<mxfile host="app.diagrams.net" modified="2020-08-14T11:15:21.815Z" agent="5.0 (Windows NT 10.0; Win64; x64) AppleWebKit/537.36 (KHTML, like Gecko) Chrome/83.0.4103.116 YaBrowser/20.7.3.100 Yowser/2.5 Yptp/1.23 Safari/537.36" etag="ILxnB2HfwcGxWTszKNwJ" version="13.4.5" type="github">
  <diagram id="3VgQyKxZcw5pXCg63vo4" name="Page-1">
    <mxGraphModel dx="1185" dy="661" grid="1" gridSize="10" guides="1" tooltips="1" connect="1" arrows="1" fold="1" page="1" pageScale="1" pageWidth="827" pageHeight="1169" math="0" shadow="0">
      <root>
        <mxCell id="0" />
        <mxCell id="1" parent="0" />
        <mxCell id="Jegls9Esf1QxolKxggTZ-1" value="Краулеры" style="ellipse;shape=cloud;whiteSpace=wrap;html=1;" vertex="1" parent="1">
          <mxGeometry x="30" y="90" width="170" height="120" as="geometry" />
        </mxCell>
        <mxCell id="Jegls9Esf1QxolKxggTZ-2" value="DocPreProcessing" style="shape=parallelogram;perimeter=parallelogramPerimeter;whiteSpace=wrap;html=1;" vertex="1" parent="1">
          <mxGeometry x="400" y="100" width="220" height="110" as="geometry" />
        </mxCell>
        <mxCell id="Jegls9Esf1QxolKxggTZ-3" value="" style="endArrow=classic;html=1;exitX=0.625;exitY=0.2;exitDx=0;exitDy=0;exitPerimeter=0;edgeStyle=orthogonalEdgeStyle;curved=1;entryX=0.5;entryY=0;entryDx=0;entryDy=0;" edge="1" parent="1" source="Jegls9Esf1QxolKxggTZ-1" target="Jegls9Esf1QxolKxggTZ-14">
          <mxGeometry width="50" height="50" relative="1" as="geometry">
            <mxPoint x="330" y="280" as="sourcePoint" />
            <mxPoint x="480" y="100" as="targetPoint" />
            <Array as="points">
              <mxPoint x="136" y="50" />
              <mxPoint x="490" y="50" />
            </Array>
          </mxGeometry>
        </mxCell>
        <mxCell id="2" value="DupeRequest" style="text;html=1;align=center;verticalAlign=middle;resizable=0;points=[];autosize=1;" vertex="1" parent="1">
          <mxGeometry x="240" y="30" width="90" height="20" as="geometry" />
        </mxCell>
        <mxCell id="Jegls9Esf1QxolKxggTZ-5" value="" style="endArrow=classic;html=1;exitX=0.25;exitY=0;exitDx=0;exitDy=0;entryX=0.787;entryY=0.18;entryDx=0;entryDy=0;entryPerimeter=0;edgeStyle=orthogonalEdgeStyle;curved=1;" edge="1" parent="1" source="Jegls9Esf1QxolKxggTZ-14" target="Jegls9Esf1QxolKxggTZ-1">
          <mxGeometry width="50" height="50" relative="1" as="geometry">
            <mxPoint x="330" y="280" as="sourcePoint" />
            <mxPoint x="380" y="230" as="targetPoint" />
            <Array as="points">
              <mxPoint x="470" y="70" />
              <mxPoint x="164" y="70" />
            </Array>
          </mxGeometry>
        </mxCell>
        <mxCell id="Jegls9Esf1QxolKxggTZ-6" value="DupeResponse" style="text;html=1;align=center;verticalAlign=middle;resizable=0;points=[];autosize=1;" vertex="1" parent="1">
          <mxGeometry x="245" y="70" width="100" height="20" as="geometry" />
        </mxCell>
        <mxCell id="Jegls9Esf1QxolKxggTZ-9" value="" style="endArrow=classic;html=1;exitX=0.698;exitY=0.945;exitDx=0;exitDy=0;exitPerimeter=0;edgeStyle=orthogonalEdgeStyle;curved=1;entryX=0.091;entryY=1.113;entryDx=0;entryDy=0;entryPerimeter=0;" edge="1" parent="1" source="Jegls9Esf1QxolKxggTZ-1" target="Jegls9Esf1QxolKxggTZ-15">
          <mxGeometry width="50" height="50" relative="1" as="geometry">
            <mxPoint x="330" y="280" as="sourcePoint" />
            <mxPoint x="440" y="212" as="targetPoint" />
            <Array as="points">
              <mxPoint x="149" y="250" />
              <mxPoint x="440" y="250" />
            </Array>
          </mxGeometry>
        </mxCell>
        <mxCell id="Jegls9Esf1QxolKxggTZ-10" value="CrawledData" style="text;html=1;align=center;verticalAlign=middle;resizable=0;points=[];autosize=1;" vertex="1" parent="1">
          <mxGeometry x="245" y="230" width="80" height="20" as="geometry" />
        </mxCell>
        <mxCell id="Jegls9Esf1QxolKxggTZ-11" value="CrawledDataResponse" style="text;html=1;align=center;verticalAlign=middle;resizable=0;points=[];autosize=1;" vertex="1" parent="1">
          <mxGeometry x="220" y="270" width="140" height="20" as="geometry" />
        </mxCell>
        <mxCell id="Jegls9Esf1QxolKxggTZ-12" value="" style="endArrow=classic;html=1;exitX=0.314;exitY=1.066;exitDx=0;exitDy=0;exitPerimeter=0;entryX=0.55;entryY=0.95;entryDx=0;entryDy=0;entryPerimeter=0;edgeStyle=orthogonalEdgeStyle;curved=1;" edge="1" parent="1" source="Jegls9Esf1QxolKxggTZ-15" target="Jegls9Esf1QxolKxggTZ-1">
          <mxGeometry width="50" height="50" relative="1" as="geometry">
            <mxPoint x="330" y="280" as="sourcePoint" />
            <mxPoint x="380" y="230" as="targetPoint" />
            <Array as="points">
              <mxPoint x="465" y="270" />
              <mxPoint x="123" y="270" />
            </Array>
          </mxGeometry>
        </mxCell>
        <mxCell id="Jegls9Esf1QxolKxggTZ-14" value="IsDupe" style="rounded=1;whiteSpace=wrap;html=1;dashed=1;" vertex="1" parent="1">
          <mxGeometry x="450" y="110" width="80" height="30" as="geometry" />
        </mxCell>
        <mxCell id="Jegls9Esf1QxolKxggTZ-15" value="SendCrawledData" style="rounded=1;whiteSpace=wrap;html=1;dashed=1;" vertex="1" parent="1">
          <mxGeometry x="430" y="170" width="110" height="30" as="geometry" />
        </mxCell>
        <mxCell id="Jegls9Esf1QxolKxggTZ-16" value="CP+BS" style="aspect=fixed;perimeter=ellipsePerimeter;html=1;align=center;shadow=0;dashed=0;spacingTop=3;image;image=img/lib/active_directory/databases.svg;" vertex="1" parent="1">
          <mxGeometry x="150" y="410" width="91.84" height="90" as="geometry" />
        </mxCell>
        <mxCell id="Jegls9Esf1QxolKxggTZ-21" value="" style="shape=image;verticalLabelPosition=bottom;labelBackgroundColor=#ffffff;verticalAlign=top;aspect=fixed;imageAspect=0;image=data:image/png,/9j/4AAQSkZJRgABAQAAAQABAAD/2wBDAAEBAQEBAQEBAQEBAQEBAQEBAQEBAQEBAQEBAQEBAQEBAQEBAQEBAQEBAQEBAQEBAQEBAQEBAQEBAQEBAQEBAQH/2wBDAQEBAQEBAQEBAQEBAQEBAQEBAQEBAQEBAQEBAQEBAQEBAQEBAQEBAQEBAQEBAQEBAQEBAQEBAQEBAQEBAQEBAQH/wAARCAH9AzQDASIAAhEBAxEB/8QAHwAAAQUBAQEBAQEAAAAAAAAAAAECAwQFBgcICQoL/8QAtRAAAgEDAwIEAwUFBAQAAAF9AQIDAAQRBRIhMUEGE1FhByJxFDKBkaEII0KxwRVS0fAkM2JyggkKFhcYGRolJicoKSo0NTY3ODk6Q0RFRkdISUpTVFVWV1hZWmNkZWZnaGlqc3R1dnd4eXqDhIWGh4iJipKTlJWWl5iZmqKjpKWmp6ipqrKztLW2t7i5usLDxMXGx8jJytLT1NXW19jZ2uHi4+Tl5ufo6erx8vP09fb3+Pn6/8QAHwEAAwEBAQEBAQEBAQAAAAAAAAECAwQFBgcICQoL/8QAtREAAgECBAQDBAcFBAQAAQJ3AAECAxEEBSExBhJBUQdhcRMiMoEIFEKRobHBCSMzUvAVYnLRChYkNOEl8RcYGRomJygpKjU2Nzg5OkNERUZHSElKU1RVVldYWVpjZGVmZ2hpanN0dXZ3eHl6goOEhYaHiImKkpOUlZaXmJmaoqOkpaanqKmqsrO0tba3uLm6wsPExcbHyMnK0tPU1dbX2Nna4uPk5ebn6Onq8vP09fb3+Pn6/9oADAMBAAIRAxEAPwD+7Ik5PJ6nufWkyfU/maG6n6n+dJQAuT6n8zRk+p/M0lFAC5PqfzNGT6n8zSUUALk+p/M0ZPqfzNJRQAuT6n8zRk+p/M0lFAC5PqfzNGT6n8zSUUALk+p/M0ZPqfzNJRQAuT6n8zRk+p/M0lFAC5PqfzNGT6n8zSUUALk+p/M0ZPqfzNJRQAuT6n8zRk+p/M0lFAC5PqfzNGT6n8zSUUALk+p/M0ZPqfzNJRQAuT6n8zRk+p/M0lFAC5PqfzNGT6n8zSUUALk+p/M0ZPqfzNJRQAuT6n8zRk+p/M0lFAC5PqfzNGT6n8zSUUALk+p/M0ZPqfzNJRQAuT6n8zRk+p/M0lFAC5PqfzNGT6n8zSUUALk+p/M0ZPqfzNJRQAuT6n8zRk+p/M0lFAC5PqfzNGT6n8zSUUALk+p/M0ZPqfzNJRQAuT6n8zRk+p/M0lFAC5PqfzNGT6n8zSUUALk+p/M0ZPqfzNJRQAuT6n8zRk+p/M0lFAC5PqfzNGT6n8zSUUALk+p/M0ZPqfzNJRQAuT6n8zRk+p/M0lFAC5PqfzNGT6n8zSUUALk+p/M0ZPqfzNJRQAuT6n8zRk+p/M0lFAC5PqfzNGT6n8zSUUALk+p/M0ZPqfzNJRQAuT6n8zRk+p/M0lFAC5PqfzNGT6n8zSUUALk+p/M0ZPqfzNJRQAuT6n8zRk+p/M0lFAC5PqfzNGT6n8zSUUALk+p/M0ZPqfzNJRQAuT6n8zRk+p/M0lFAC5PqfzNGT6n8zSUUALk+p/M0ZPqfzNJRQAuT6n8zRk+p/M0lFAC5PqfzNGT6n8zSUUALk+p/M0ZPqfzNJRQAuT6n8zRk+p/M0lFAC5PqfzNGT6n8zSUUASoSQcnPP+FFCdD9f6CigCNup+p/nSUrdT9T/OkoAKKKKACiiigAooooAKKKKACiiigAooooAKKKKACiiigAooooAKKKKACiiigAooooAKKKKACiiigAooooAKKKKACiiigAooooAKKKKACiiigAooooAKKKKACiiigAooooAKKKKACiiigAooooAKKKKACiiigAooooAKKKKACiiigAooooAKKKKACiiigAooooAKKKKACiiigAooooAKKKKACiiigAooooAKKKKACiiigAooooAKKKKACiiigAooooAKKKKACiiigCVOh+v9BRQnQ/X+gooAjbqfqf50lK3U/U/wA6SgAooooAKKKKACiiigAooooAKKKKACiiigAooooAKKKKACiiigAooooAKKKKACiiigAooooAKKKKACiiigAooooAKKKKACiiigAooooAKKKKACiiq15eWmn2lzf391b2VjZwS3N3eXc0dta2ttChkmnuLiZkihhijVnklkdURFLMwAJoAs0V/L7/AMFCP+Dqr9gr9kDWNe+HHwLtNV/bF+LeiyT2d4vw51nT9G+Duj6nCGWSy1L4sXEGrQ6xPE7REnwN4e8WaccXNtc6tY3kDQ1/LR8eP+Duv/gqb8TdRv8A/hU4+CX7OuhO1ymlQeD/AIeWvjfxDbW8sZWBtS1n4n3PizSdRv7Vj5iXFp4Y0i0lZVEunMm5GAP9Rmiv8h6H/g5R/wCC1cOsy66n7bGtNezKVeCX4RfAKbSADGsZ8vQpfhY+iwHagIaGwjdX3SKwkdmP3j+z9/weA/8ABSv4a6lpsXxs8J/A39orwzHOG1hNU8JXHw38Z3dt5m5otL8Q+Bbyz8NaZPszGk934E1eNVwzW7uCxAP9PCiv50/+Cc3/AAcyf8E/f28tW0H4a+LNU1L9lb47a5JbWOn+Avi/qOmjwh4m1i6dYotM8D/FK1+y6Bqt1PNLb2ljp3iay8G69q19MLXSNGvyN7f0VqyuqujK6MoZWUhlZWGVZWGQVIIIIJBByOKAFooooAKKKKACiiigAooooAKKKKACiiigAooooAKKKKACiiigAooooAKKKKACiiigAooooAKKKKACiiigAooooAKKKKACiiigAooooAKKKKACiiigAooooAKKKKACiiigAooooAKKKKAJU6H6/wBBRQnQ/X+gooAjbqfqf50lK3U/U/zpKACiiigAooooAKKKKACiiigAooooAKKKKACiiigAooooAKKKKACiiigAooooAKKKKACiiigAooooAKKKKACiiigAooooAKKKKACiiigAooooA5rxn4y8K/Dvwl4m8eeOdf0rwr4M8G6FqnibxT4l1y8h0/R9B0DRbObUNV1bU764dILSxsLKCa4uJ5XVI4o2Yniv8v3/AILp/wDBw/8AFr9vzxb4t/Z0/Zi8Ra78MP2LtE1DUNDu5dIu7vSvE/7RQtLqSFPEnjKc2thquk+BrqNBJofw+LrDcxOuq+LBfag2n6doH6s/8Hef/BUbV9LuPDP/AATK+DviWawivdL0X4j/ALUN9o98Y57q1vmGofDz4Uaj5RWSK3lgitfH/iGzfi8t7nwVsk8k39vL/A7QAdetFFfTH7NP7Gn7VH7Y3iiXwf8Asw/AX4mfGrWrRoBqh8EeGL/UtI0BLp2jt7jxN4iMcXh7wzZzSKY473XtT061aT5BNuIFAHzPRX793v8AwbDf8Fp7LwyPEbfsm2VxMsc09x4btPjb8CbjxFbW8IncyG1j+I5s7qR44VeKysL+71CQ3EMKWhufMhj/AB0+PX7NH7QX7LfjKT4fftFfBr4jfBjxiiPNFofxE8J6x4Yub+1RzGL/AEl9TtYLfWNMkdSINT0ua8sJwN0NxIvNAHiCsyMrozI6sGVlJVlZTlWVhghgQCCCCCMjmv7Gf+CBn/ByH4+/Zw8UeBv2P/27PG1/43/Zt1m8svC/w9+M/ivUJ77xV8CJrlvs2k6b4k1m68678QfCxLh4LPfqc73/AIFsXWWyvH8N6fHpFn/HLRQB/vTWN9ZapZWepabd21/p2oWsF7YX1nNHc2l5Z3UST211a3ELPFPb3ELpLDNGzRyRuroxUg1ar+OT/g0u/wCCpWtftF/BHxN+wP8AGbxJPrPxO/Zt8O2mv/BzVtVuWuNT8RfAj7XbaO/hx55nknuZfhdrF5pelWbSOPL8L6/4f0y0iFvoUrL/AGN0AFFFFABRRRQAUUUUAFFFFABRRRQAUUUUAFFFFABRRRQAUUUUAFFFFABRRRQAUUUUAFFFFABRRRQAUUUUAFFFFABRRRQAUUUUAFFFFABRRRQAUUUUAFFFFABRRRQAUUUUAFFFFAEqdD9f6CihOh+v9BRQBG3U/U/zpKVup+p/nSUAFFFFABRRRQAUUUUAFFFFABRRRQAUUUUAFFFFABRRRQAUUUUAFFFFABRRRQAUUUUAFFFFABRRRQAUUUUAFFFFABRRRQAUUUUAFFFFABWL4k8QaX4T8O694o1y7i0/RfDmj6nrur30+7yLPTdJs5r++uptgZ/Kt7aCWWTarNtQ4BPFbVfD3/BTfWtR8Of8E4f2+fEGj3DWmraH+xn+01q+mXSAF7a/074M+M7uznUEEForiGOQAggleRigD/HL/bP/AGjfEf7XP7V37QP7SniqW7bVPjH8VPGHjWG1vJBLLo+h6lq9x/wjPh2NleRRa+GvDsel6DZIJJAlpp0CeZIV3t8yUpJYlickkkn1JOSfzpKAP14/4Itf8EtvFH/BVb9sDRvhBJe6n4Z+CngOxh8ffH7x1pkcYvtG8C219Daw+HfD89zHJZR+MPG2oOmiaC1zHcjTrf8AtbxI+nana+H7qwn/ANbv9mn9l/4EfsgfCPwt8D/2dvhv4c+Gfw58JWMNnYaPoNjFDPfzpGiXOs6/qZVtQ8QeINTkT7Tq2uavcXepajdO891cSO2a/l1/4Mz/AIPaB4Y/YH+P/wAaEtbX/hLvir+0nfeFtQ1CElp5PCXwy8CeEpPDWn3W6GMpJaa5428aXaIkk0XkajC4ZZHkjT+wegAr5I/bP/Yd/Zr/AG+/gvr3wM/aY+HOk+OPCmrRSS6RqrQQW3i/wRrgTbaeKPA3iVYX1Hw3r1kwAFzZSCG+tGn0vVbe/wBJvLyxuPreigD/ABUf+CnP/BP/AOI3/BNL9sD4j/sv/EC4fWrHRJLfxJ8NfGwtTZ2vxB+GGvy3L+FfFdvblpBb3Mi2t3o+uWaSzRad4k0jWdPhuLqG1juZvz9r+/T/AIPW/hB4ffw5+w98eLa2tbfxTBrPxW+FWsXiIq3mraFdWXhnxX4ft55BEWkt9BvrTxG9shmVY5PEFyRG5kLJ/AXQB+mH/BHf9qbUf2Of+ClH7JPxrg1NtM8P2vxa8OeCfiDIZjHbSfDb4kXaeBvHDXcZ/dXKadoOu3es2sE+2P8AtHTLKYSQSRJPF/s/I6yIkinKuqup9VYBgfxBFf4L2mzy2uo2FzBLJDNb3trPFNEzJLFLFOkkckboQyOjKGRlIZWAIIIr/df+EPiZ/Gnwo+GfjCSZriTxT4A8IeInne3No8z614f0/UWla1ZIzbNIbgs0BjQxElCq7cAA9EooooAKKKKACiiigAooooAKKKKACiiigAooooAKKKKACiiigAooooAKKKKACiiigAooooAKKKKACiiigAooooAKKKKACiiigAooooAKKKKACiiigAooooAKKKKACiiigAooooAlTofr/QUUJ0P1/oKKAI26n6n+dJSt1P1P86SgAooooAKKKKACiiigAooooAKKKKACiiigAooooAKKKKACiiigAooooAKKKKACiiigAooooAKKKKACiiigAooooAKKKKACiiigAooooAK+WP25vhrqPxl/Yr/a5+EWjxXE+rfFH9mf45fD3TIbTH2uW/8AGPwz8TeH7SO23RTjz3n1CNYswzDzCuYn+6fqemuiyI8bjKOrIw9VYFWH4gkUAf4Ks0ZhlliYENFI8bA9QUYqQeByCOeB9BUdfq//AMFtP2KtS/YP/wCCkn7R3wcTSptO8A+IPF158Wfg9cfZ5IbC++F/xKu7rxFoVtpjyEtdQeFL2fVfAt3ckKJdV8LagVXbtJ/KCgD+/wD/AODMH9sDw0fBP7TX7DOvarDZ+KrbxZb/ALRvw70+5dBJrmk6vo3h/wACfESCxZyHLaDP4e8EXpskLF49bvbyKMLBeyV/djX+GL+zP+0l8YP2Rfjj8Pf2iPgP4su/BnxQ+GeuQ654d1i2Algl+R7fUNI1ayf9xqmha5p011pOt6VdK9rqOmXdzazKUkJH+ml/wTZ/4Ogf2Dv2vvB/h/w5+0j418O/shftBpFbWGv6D8RtSbS/hR4i1BYkWfW/BvxNvwmgaZpV1KQw0jxtf6Fq1hNI1lbya1BANUuAD+miivmK8/bZ/Y30/Qn8UX/7V37ONn4bjto7x9fuvjX8OINGS0lKLFctqcniNbMQSM6LHKZtjs6hWJYA/wA5n/BUz/g6m/ZK/Zu8FeI/h1+w54g0j9qD9oTVLDUNM03xloi3EnwT+Gt7LBLBDr2p+JJoYYviDfWcskN5puh+EGvNEvwki6n4n01oltLsA/Gv/g8r/bA8MfEb9ov9nf8AY98I6lb6hefs9eFvEvj/AOJz2dxHNHY+MfixH4eXw54avkVi9vqmieEfDkOuyRlV3WXjayJLMpVP4s67z4o/E/x98afiL40+LPxS8Uap40+InxD8R6r4t8ZeKtan+0anrmv61dy3uoX1y4CoplnlbyoIUit7aER29tFFBFHGvB0Adj8O/B+tfELx/wCB/AXhu3F14h8a+LvDnhTQrUlgLjWPEOr2ek6bASiSOBLeXcKEpG7Dd8qMcA/7rvhDQ4fDPhTwz4ct5JZbfQPD+j6NDLNsM0kWmafb2UbymNUTzHWEM+xFXcTtUDiv8oT/AINmP2KNS/a6/wCCofwl8WajpEl58Mf2V5I/2g/HWoSwyfYo9b8K3Ma/C3SVucfZ/wC0734iS6HrENjKxe70fw7rsqRulpMyf6ztABRRRQAUUV5p8WPjN8I/gR4Pv/iD8a/ib4D+E3gbS9g1Dxd8RfFeh+DvD1q8ocwwy6tr17YWQnnMbrb24mM07qUhjd/loA9Lor+b/wCPf/B1X/wSK+Ceo3ukeH/iV8TP2gNS06eW1vI/gh8Nb7UNPW4hMiutn4h+IWofDvw1q8BKL5d9o2sahp8wkRobqRA7J8Zxf8Hnv/BP06sYZv2b/wBriPQ/tcqDUI9F+EcuqGyDsIbg6S3xVitRcvGEaS0GsGONmZFu5QodwD+wyiv54v2f/wDg6K/4JDfHa+0/SNT+NPi34Ea1qZjS2sPjp4A1fw3ZJNIyL5N94q8MS+MfBWmbN+ZLjUvEtpZqquftJA5/ef4e/Er4d/FvwppXjv4WeO/B/wASPBOuQC50Xxd4E8SaP4s8NatbkkCfTtc0K8vtNvIsgjfb3Mi5BGcg0AdtRRRQAUUUUAFFFFABRRRQAUUUUAFFFFABRRRQAUUUUAFFFFABRRRQAUUUUAFFFFABRRRQAUUUUAFFFFABRRRQAUUUUAFFFFABRRRQAUUUUAFFFFAEqdD9f6CihOh+v9BRQBG3U/U/zpKVup+p/nSUAFFFFABRRRQAUUUUAFFFFABRRRQAUUUUAFFFFABRRRQAUUUUAFFFFABRRRQAUUUUAFFFFABRRRQAUUUUAFFFFABRRRQAUUUUAFFFFABRRRQB/OT/AMHGv/BIS5/4KV/swWXxF+DWj20/7WP7Odpq+ufDq1RYbe4+J3gu7VLrxX8Kri8Zok/tG6NrFrfgia9aW3tvENrNpAbT7XxPqWpW/wDlKarpWp6HqeoaLrOn3mlavpN7c6dqmmahbS2d/p+oWUz293ZXtpOkc9tdW08ckM8EqJJFIjI6hgRX+9DX8o//AAXC/wCDbDwB+3zqPiH9pz9kmfw18If2sLmCfUPGHhzUEOmfDj463cMIIudYks4JR4T+IFwsYiTxPBayaZr1wyDxNDFPNL4gtwD/ADB6K99/aO/Za/aF/ZF+JGqfCT9pL4R+NfhB4+0os0mieL9InsU1CzE81tHq2gaool0jxJoV1NbzLZa7oN9qOkXvlubW8mCkjwKgCQzTFdpllK4xtMjFcemM4xUdFFABXX/D/wAAeM/ip438KfDf4d+G9W8YeOvHGvaZ4Y8J+F9Cs5r/AFfXde1m7isdN02wtIFaSa4urqaOJFAwN25iqgsPoL9kT9hz9qj9uv4lWnwq/Zb+Dniz4peJpGgk1W70qz+y+FvCmnzS+V/bHjLxdqDWvh3wvpKvlBd6xqNqLiYLaWa3N5LDbyf6Yn/BEj/g3y+D3/BMHTbL41fFi+0b4zftk61o7Wl541jszJ4M+ElnqNuE1Tw78K7W/gS8e/uUeTT9Y8d38Vrq+q2PmWOm2Gg6beanaaiAfTP/AAQy/wCCV+j/APBLH9jnSfAOvjT9U/aF+K1xYfED9oPxPYiGWAeKHsfJ0jwHpF6gaS58N/D7T55tLspmmki1HWrvxFr9vHaRa0tlbftFRRQAUUV/P5/wcI/8FdY/+CYH7K0OjfDC+0+f9qr4/wAeseFvg/aytBcv4F0i2t0i8UfFrUdOkJE0XhpLy2sfDVvdI1tf+KtQsJJre/0zStYtqAPE/wDgtn/wcZ/B/wD4JvrrPwA/Z9tfD3xw/bEms5I7/S5b1b34dfBF54gbe6+Jc2mXkN7qfimRZI7jT/h/p1zZ3ots3/iDU9Ft5NMtta/zZ/2s/wBtr9qX9uP4kX3xU/ah+MvjD4q+KLqWdrC31nUGg8M+GLSdlZtK8HeEbAWvhrwppKlEJsNC0yxhmlDXNyJ7qSWeT508U+KPEfjfxL4g8ZeMNc1XxP4s8V6zqfiLxL4j12/udU1rXte1m8m1DVtX1bUrySa7v9R1G+uJ7u8u7mWSe4uJZJZHZ2JODQAUUUu1sbtp2no2Dj8+lACV9v8A7FH/AAUZ/bE/4J8+PLbx1+y98aPFPgRGvra88Q+Bpb2fVvhr42jgKI1p4w8C30smgawJLZWtItQa0i1nToZZH0nU7C4KzL8QUUAf60//AARc/wCC+vwK/wCCqGhx/DPxbYaZ8Fv2vPDujm+8Q/CqbUGl8PePbGxjX+0vFfwn1K+f7VqVjCP9L1TwpfPJ4i8PQvIxk1rS7WXW2/oJr/CM+F3xQ+IHwV+Ifg74r/CvxXrHgf4ieANf03xR4Q8V6BdyWWq6Jrek3KXVleWs6HB2SxhZoJVkt7mBpLe5ilglkjb/AF6v+CJP/BUfw1/wVN/Y40D4n30mm6X8ePhxNaeAf2hPB1kUhXTvGlvZrNY+LdKsS5ni8LePdOT+2tIkKfZrTUY9d8OxXF1N4fuZ3AP2JooooAKKKKACiiigAooooAKKKKACiiigAooooAKKKKACiiigAooooAKKKKACiiigAooooAKKKKACiiigAooooAKKKKACiiigAooooAKKKKAJU6H6/wBBRQnQ/X+gooAjbqfqf50lK3U/U/zpKACiiigAooooAKKKKACiiigAooooAKKKKACiiigAooooAKKKKACiiigAooooAKKKKACiiigAooooAKKKKACiiigAooooAKKKKACiiigAooooAKKKKAPDPj7+zL+z3+1N4Ln+Hn7Rfwa+HXxm8HTGSRNE+IPhbSfEcNhdPE0P9oaPPf20t3omqxIxFvquk3FlqNsfnt7mNgCP84L/AIOif+CVv7HH/BNzxN+yT4g/ZG8Ea/8ADux+P3/C928Z+FL3xl4g8W+HbCT4cn4Qtocnhz/hKbvVtc04TN451o38Nxrd9bOEsktYbRIGWX/Twr+Cf/g91/5xs/8Ad2v/AL7fQB/BPX9qf/Br9/wR+/YU/b3+Bvxk/aA/aw+GWrfFjxL8OfjcvgLwx4ZvvGXiTQPBEWmWvg3wt4ljvNR0fwrf6HeazetqGsXKTQ6pql3pFxapFBPpcgEpl/isr/SQ/wCDLz/kxX9p7/s6ab/1VngCgD+s74P/AAP+Dn7PvgvTfhz8Dvhf4D+EngTSE2af4U+HvhbRvCehwM2DLObDRbOzgmu7hwZbq8nWS6u52ee5mlmd3b1KiigAooooARmVFZ2ICqpZiegVRkk+wAzX+O1/wXg/be1b9u3/AIKW/tBfEKPWJNS+G/w28S3/AMDvg3bJN5um2vw++Gmp3+jJqel4Zv8AR/GXiMa/43ZnPm7/ABF5TCOOGKCL/WR/bN+KF58Ef2Qv2pfjLp8zW9/8J/2ePjN8R7KdPM3Q3fgn4d+IvEdvKvlJJLujm01HHlo8mR8is2Af8Ou6ne6ubi5ldpJLieWeSR2LO7yyNI7uzZZmZmLMxOSSSeTQBBXrPwK+B3xQ/aT+LvgH4F/Bfwlqfjj4m/EvxDZeGfCXhvSYHmuL2/u2LSTzuqmOy0zTbWO41LWNUumisdK0u0vNRvpoLS2mlTyav72f+DMT9jfwvqNh+0x+3X4l0e11LxHoviKy/Z4+F2oXMKSN4ddND0rxp8Tbyz8xnEd/qdj4g8C6dHeRxxT29gNTtEmaHUrmOgD9E/8Agmr/AMGpP7F/7Ofgzw34z/bU0i1/ar+Pl3YafqWs6Fqt3qth8FfA2rPGk9xo2geF7C7sJPHCWMkkun3WseN2vtN1hYlvLXwtorOIl/d+9/4Jjf8ABOTUPDR8H3X7CH7Ib+GjbvbppCfs7/CiG2t0cOPMtPJ8KxyWl0jSPLFe2zxXcU7G4inSf95X3LRQB/G9/wAFSv8Ag0y/Zx+MPhDxP8Uv+CeEKfAL416db3usxfBvUdY1DUfg58RZ0WW5m0XSZtZub7U/htrt85KaTcWd9ceDIpUt9Mm0LRbO4k1mw/zofiF8P/Gnwo8c+Lfhp8RfDeq+EPHfgTxBqvhXxd4X1u1ez1XQtf0S8lsNT02+tpAGjntbqGSNsbkcAPGzxsrH/d/r/OL/AODx/wDYx8NfC39pX4Cfti+CdEtdKj/aP8MeIfBPxR/s+BIILz4h/CxdE/sbxNqICKX1XxL4N8QWWjtJG7pJB4FWWaOK4kea7AP4w6/oo/4Nif23dS/ZJ/4KdfDTwFqutNY/Cv8AawCfAjxtYT3QisD4o1mSSf4T6yIJMQy6pb+OxYeG7WZnieDTfFusrGztN5Mv869dv8M/Gut/Db4jeAviH4auDaeIvAnjPwz4w0G6HW21jw3rVlrGmzjBHMV5ZwyDkcrQB/u80Vzng7XrfxV4S8L+J7RXW18ReHtG1y2WQo0iwarp1tfRB2ieSNnEc6hjG7oTkqzAg10dABRRRQAUUUUAFFFFABRRRQAUUUUAFFFFABRRRQAUUUUAFFFFABRRRQAUUUUAFFFFABRRRQAUUUUAFFFFABRRRQAUUUUAFFFFABRRRQBKnQ/X+gooTofr/QUUARt1P1P86Slbqfqf50lABRRRQAUUUUAFFFFABRRRQAUUUUAFFFFABRRRQAUUUUAFFFFABRRRQAUUUUAFFFFABRRRQAUUUUAFFFFABRRRQAUUUUAFFFFABRRRQAUUUUAFFcZ8Q/iL4D+EvgnxL8SPid4v8O+AvAPg7SbvXfFPi/xZq1lofh7QdIsYmmur/U9U1CaC0tLeJFOXllXcxVEDOyqf4Rf+CpX/AAd462+qeIPg/wD8ExdAsrLSrVrnTb79qL4iaEL2/wBRlVtpuvhZ8OtZgFlY2kZTMHiHx9ZahLfRzSong7TjBb6hcAH90fxQ+Mvwi+CPhy48YfGX4o/D34T+E7QObrxN8R/GXh7wVoNuEjaVzNq3iPUdNsI9sStI2+cYRSx4Ga/zr/8Ag7S/b9/Y9/bV1z9inw9+yv8AHbwh8bb/AODLftFr8Rp/BS6te6NoJ8av8E08MeT4hn0230HW11Q+EfEBR9B1LU1gSw33TQJc2jT/AMq/x3/aU+P/AO0941vfiL+0L8YviJ8YvGd+8zSa74/8Vat4jubaKZ9/2HTItQuZbXR9LhwsdppOlQWem2cEcVvaWsMMUca+I0AFf3a/8GoH/BR79h/9lD9m345fBP8AaT/aP+HvwT+Injj9oA+MPDOm/EW8vvDOjah4cm8A+ENEj1KTxjqNjF4OsE/tPSr+2eHUdetLmPyBLJCkMsMkn8JVFAH+774D+I3w/wDil4csfGHwz8ceEfiF4T1SMTab4m8E+I9I8U6BqERAIlstX0S8vrC5jIZSHhuHXBHPIrs6/wAOr9mX9s39qj9jfxpb+P8A9mP47fEb4OeI4ri2nuz4R8Q3dvoeurZsXt7PxV4VuWufDHi3TEYljpXiXSNV052wz2rFQR/cV/wSo/4O4vDPxA1Lwx8Ev+Clmh6P4A8RXxtdI0r9pvwVYvaeB9Sv3aO3t5Pih4Nh81/CL3ZG688UeGGuPDyXcwa48OeHNKjmvIAD+4uisfw/4h0HxZoekeJ/C2taV4j8Oa/p9pq2h69od/a6ro+saXfwpc2Wo6ZqVlLPaX1ld28iTW9zbTSQzROrxuykGtigD4d/4Kb6NqPiP/gnB+314f0e3a71bXP2M/2mtI0y1QgNc3+o/BnxnaWkCkkANLcTRxgkgAtycV/iZEFSVIwQSCPQg4I/Ov8AbR/bw/bU/Y4/Y0+CfifxH+2L8VPCXgfwT4o0HW/D0fhTU5pNT8V/ECHUdNuLO+8PeFfBmli48ReI57y2uGt7n+z7JrSyin+06leWNmslzH/im+LR4cHirxKPB9zql54TGvauPDF3rlpb2Gs3Xh8ahcf2PcatZWlzeWtnqU2n/Z5L21tru5gguWkiinmRVkYA5+v9K3/gzP8AivoHiP8AYB+PvwhiubIeLPhl+01qnibUtPt1KXS+F/iN8P8AwVH4c1O+3SP5kt5rHg3xfZRSokSfZ9Kii2F43d/81Kv2Q/4Iif8ABU/Xv+CVn7YGmfE3U7a/1/4E/EuxtfAPx98JafiS9uvCMl8lzp/i7Q4HIil8TeB9QZtV06F9v9padNrWgiez/tg3tuAf7EFFeP8AwI+P3wb/AGnPhb4T+NPwF+Ifhv4nfDLxtpkGq+HvFXhi+S7tJ4Z41d7S9gYR3ukaxYSMbXVtE1a2stX0i/insNSsrW8glhT2CgAr+FT/AIPXPin4dh8C/sO/BaK5t7jxZf8Ain4r/Eq9s45kN1pegaXpXhfw1ptzd2+d8cGuahq2qR2Ep+WV9B1BBzE1f2N/tWftbfAH9in4M+Kfjx+0d8RND+Hfw/8AC1nNK1zqd1ENV8QamIJprLw14U0YP/aHiPxNqzQSRabo2lwXF3cMryFEt4Z5o/8AID/4Kvf8FEfGv/BTr9s34h/tMeJLK58P+FZ0tvBnwh8EXEyzv4I+Ffhye7/4RvSLiRHkjk1fUJrzUPEniOWKV7Z/EWt6oLLy7BbSCIA/NurFmhku7VACS9zAgAGSS0qgADucngd6r1+i/wDwST/Zh1b9sH/go1+yT8C9PsJL/TNc+MHhjxJ41Cw+bFbfDzwDdjxx49uJ2YeTED4W8P6pb27XBEUt9cWtsA8s8cTgH+yJ8CvC8/gn4J/CDwbdCcXPhT4Y+BPDlwLpVS5E+i+GNL02UXCISiTb7ZvNVSVV9wBIFeq02NFjRI14VEVF/wB1QFH6CnUAFFFFABRRRQAUUUUAFFFFABRRRQAUUUUAFFFFABRRRQAUUUUAFFFFABRRRQAUUUUAFFFFABRRRQAUUUUAFFFFABRRRQAUUUUAFFFFAEqdD9f6CihOh+v9BRQBG3U/U/zpKVup+p/nSUAFFFFABRRRQAUUUUAFFFFABRRRQAUUUUAFFFFABRRRQAUUUUAFFFFABRRRQAUUUUAFFFFABRRRQAUUUUAFFFFABRRRQAUUUUAFFFFABXn/AMVvip8Pvgf8N/G3xd+K3irSvBPw5+HfhzVPFnjHxVrU3kadouhaPayXd9eTFVeWV1ijKW9rbxzXd5cvFa2kE1zNFE/oFf53X/B2z/wVa1H4hfE+1/4JqfBjxOyfDz4Yy6T4l/aTvdKndYvFXxLkWHVvDPw8ubiF/KvNH8CWElhrur2oeaCXxdqFta3UUGoeEsEA/Iv/AILc/wDBcv4yf8FSvijqfgjwdf658Ov2NvBOuSj4cfCuK6a1uvGlxp8s8Ft8R/iaLZ9mp+ItRidp9K0J5J9I8I2MqWViLrU21PWtT/AiiigAorY8P+Htf8W65pPhnwtomreJPEevX9rpWiaDoWn3eraxq+p30yW1lp+mabYxT3l9e3dxJHDb21tDJNNK6xxozMAf6YP2Rf8Ag0+/4Ka/tHaHpnjH4o23w7/ZR8KamkdxBZfF7VtRv/iRPYzIGjuo/h/4R0/V5dLlySsmm+L9a8K6rCVJkslVkLAH8w9Ff3Z3f/Bkp4vTQRcWP/BQvw7ceJ9pLaTdfs4ajaaIH3OAo1+L4zXl8VKiMlj4dUgs6hDsVpPyB/bS/wCDXj/gp5+yPoOs+OvDfhHwj+1B8PNFgutQ1DVvgHqep6z4u0vSrVHka61P4ca/pOheK7qZY42kmt/CFr4uS3j/AHktwEDsoB/OVRVq+sL3S72703UrO60/ULC4mtL2xvYJbW8s7q3dop7a6tp0SaCeGRWjlhlRJI3Uq6hgRVWgD+oL/ggR/wAF+/Hf/BPTx14e/Zu/aU8R6340/Yo8Za1bafFPqNzfavqv7Omp6reBZfF3hGJjc3UvgF7m4kvfGfguxjfYGufEnhq1/tv+0dN8R/s5/wAFRf8Ag7w8G+Ek8Q/CH/gmf4ct/HfiMJcadeftMfEHR7m38G6RPloZZ/hx4A1KG21HxRcxq2+z1/xfHpejQXcAZfDPiPTpknb/AD4aKAPa/j9+0d8dP2pviRrfxd/aG+KfjL4ufEXxBMZNQ8TeM9ZutVu0hDO0GnabBKwstG0ayVzDpui6RbWOk6bbhLaxs7eBEjHilaOkaRq2v6pp+iaFpl/rOs6teW2naXpOlWdxqGpalf3kyW9pZWNjaxy3N3d3M8kcNvbwRySzSuscaMzAH+tj/gl3/wAGoH7TX7Tn/CN/Fn9uHUNY/ZZ+Cl4LfUoPh2tpC/7QHjLT3wywy6NqEUun/C61uFJJuvFdtqHiSIxNE3g6KK5h1FAD+Raiv6Pv+C3H/Bvt8af+CaPinWvjH8GbLxF8X/2Lda1R5NK8aQ27an4s+D7Xsyi08MfFeCxt41jshNKLHRfHVtbx6LqzrBbamujaxd2ljd/zg0AfX/7KH7ff7Y/7Duv3HiH9lX9oT4i/B2e/uIrrVtH8P6st54O165g2CCfxF4F1yDVfBviGaFUEcMus6FfPFE0kUbLHLIrfsJdf8HW3/BYy48NvocXxe+GFlqb2i2y+L7b4KeAm8QRzKVJvkt7rTbnwwbpwCrK/h1rQBmKWqttZf5vKKAPpr9p79sz9qb9s/wAZr49/ai+OnxD+NHiO3+0Lpj+MdduLrR/D0F06y3Fn4V8M232Xw34V0+aVRLJp/h3SdMsmlzIYN5LH5looAJIABJJwAOSSegA7k0AFf6LP/Box/wAEvNX+D3wx8W/8FFPjJ4afTfGPxw0L/hCv2fNN1a1MWo6R8JEv0u/Evjv7NcL5lq/xD1jT9Os/D9wYra5bwxoU+oW0tzpHi2Fn/G3/AIIKf8G6vxF/bV8V+EP2pf2xPCeu/D79j/Rbqy8QeGPCWsQ3Gi+K/wBoi5tpY7mxstPs5hDqWj/C6Yqkus+Knjt5vEdmw0vwpI4urvXdG/01dD0PRvDOjaT4c8O6Vp+haBoOm2Wj6Jouk2cGn6XpOk6bbR2en6bp1japFbWdjZWsMVta2tvHHDBDGkcaKigAA1KKKKACiiigAooooAKKKKACiiigAooooAKKKKACiiigAooooAKKKKACiiigAooooAKKKKACiiigAooooAKKKKACiiigAooooAKKKKACiiigCVOh+v8AQUUJ0P1/oKKAI26n6n+dJSt1P1P86SgAooooAKKKKACiiigAooooAKKKKACiiigAooooAKKKKACiiigAooooAKKKKACiiigAooooAKKKKACiiigAooooAKKKKACiiigAooooA+af2yP2jPD37I37K3x//aW8TmBtL+DHws8YeOo7K4kMK6zrGj6RcyeHfD0Ui4K3XiPxA2maFZ8qDd6hCGdFJcf4j/xP+I3i74wfEjx78V/H2r3Gv+OPiV4w8R+OvF2t3W0XGq+I/FWr3et6zfyrGFjR7m/vZ5SkarHGGCRqqKoH+nt/wdw/Ge9+GP8AwSbv/BOn3bQSfHv49/Cz4Y6hDDKiTzaLpMfiL4rXZZNwlazF98N9Lt7lowV3XUEEvyXG1v8ALPoAK6vwJ4H8W/E3xr4T+HXgHQNS8VeN/HXiLR/CXhHw1o1tJearr3iPxBfwaXo+kadaxBpJ7y/v7mC2gjUZaSRRwMmuUr+vb/gz8/Ys0P43/to/FT9qvxtocOr+Hv2TvBWlReCVvoVe0h+LvxUk1fS9E1mKOdXgvZvDvg/QPGkqIqNJpeq6roOqrLbXMFk0gB/VP/wRD/4IR/BP/gmX8LvDXxJ+JHhzw/8AEX9tXxZodte+PPiNqVtbava/DObUrQm68AfCtrmOSPR7DTYrmXTdc8T2ixax4suVuZZ7iDRmsNHsf6E6KKACggEEEZB4IPQj0NFFAH8rn/Bfz/g38+GX7cfw58bftSfsu+DNK8E/toeD9JvPEWrad4csotO0n9o3TNMge5vPD/iPT7UR2o+JItY5T4V8XpAL7WLlLfw14klurGXStR8O/wCX7f2F7pd9eaZqVpcWGo6fdXFlf2N3DJb3VneWsrwXNrcwSqskM9vNG8U0Uiq8ciMjAMCK/wB6Wv8AKW/4OlP2KdC/ZL/4Ka+JfG/gbTINK8AftW+FLX48WdhZReTY6X471HVdS0L4m2EK7V/fal4m0tvGtyFLRRyeMRDCUSMQQgH83FWLRIJLq2jupZILWSeFLmeKNZpYYGkVZpY4XkhSV44yzpG00SuwCmRASwr0UAf68X/BIj/gjZ/wTu/Yk+FXwy+OPwD8LxfGX4kfEXwH4Y8baZ+0r8TLWw1rxlf6L4y8O2WrWlx4GsRD/Y3w90XULDUmeG28PWyazPYXYstd8Qa4IY5R+51fht/wbg/Gm7+Nv/BHb9kTU9VvvtuueANA8W/CDUwZ0na0tfhn458ReGfCtmxV2ePyvA9n4YZIZkieON0VFeDyppf3JoAzdZ0bSPEWk6loHiDS9O1zQ9ZsbrTNX0bV7K31HS9U02+he2vbDULC7jmtbyzu7eSSC5triKSGaJ3jkRkYg/ykf8FCf+DS39jD9pzVdf8AiN+yn4ov/wBj/wCJery3up3XhnSdI/4S34IavqlxK10/leCpb/TdU8ErdzFoAPCetR+H9KhdXsvCEgh8iX+smigD/Ke+On/BqP8A8Fd/hJfXS+Cfht8Mf2hdHgaV11j4TfFbwxp7/ZESSRZpNG+Kk3w31p7jYiJJZadZalKJ5BHbtcxqZq+NoP8AggJ/wWEuNXOix/sKfFxbxbme1M003hG30vzLcyCRhrdx4lj0drdvLbyboXxtrgFDBLIJI93+xVRQB/lgfAD/AINMP+CsPxav9OPxM8MfCf8AZv0C5eOW91D4kfErRPEur29ixDM9roPwrfx00180R3Q2Go6ho+JP3N5cWTh9n9YX/BOj/g1h/YV/Y01jQfib8c7zUP2wvjLophvLGf4haJYaP8H/AA7q0Mkc0Go6H8LIp9VTVb61YSRpc+N9f8UWJIhvrLRtLvoY5U/p9ooAjhhhtoYre3iigghjWKGCGNYoYokUKkcUaBUjjRQFVEUKqgAAAVJRRQAUUUUAFFFFABRRRQAUUUUAFFFFABRRRQAUUUUAFFFFABRRRQAUUUUAFFFFABRRRQAUUUUAFFFFABRRRQAUUUUAFFFFABRRRQAUUUUAFFFFAEqdD9f6CihOh+v9BRQBG3U/U/zpKVup+p/nSUAFFFFABRRRQAUUUUAFFFFABRRRQAUUUUAFFFFABRRRQAUUUUAFFFFABRRRQAUUUUAFFFFABRRRQAUUUUAFFFFABRRRQAUUUUAFFFFAH8X/APwemXWrp+x/+yRZQws2hT/tE63c6jcCEssWq2vw61uPSIWuOkTTWt3rTrF1mEDMP9RX+cfX+oF/weA/Ca58ef8ABLfw34+sbdnm+C37Sfw58W6pcr5zCHw94l0Hxn8PLmJ41kECrPr/AIs8NN58sbvG0KxRMguJQ/8Al+0AFf6Pv/BlvYaVH+xd+1bqcMVuNau/2lbGy1CZXzdSabYfDTwtPpUU0e87YIrnUdXa3bYu95rkbm2EL/nBV/bB/wAGZP7WWj+Cfj/+0v8AsfeJdTjtJPjb4P8ADnxS+HEN3cmOK48VfC19WsfFei6bBys2p614V8TQ63IOGGn+CLlgSE20Af6KFFFFABRRRQAV/Az/AMHuNlYR6l/wTj1COGFdTubL9qe0u51P7+Sxsp/2f5rCKQZ/1UM99qLQnaPnmnAJwQP75q/y/P8Ag7o/ay0f46/8FG/DvwO8KarDqfh79lL4XWHgvXGtp47m1j+J/je9fxh4xigmhZot9hocvgnRNQgyZrTWNI1K1uCssLRRgH8qVFFFAH+pD/waHXeq3P8AwSblh1Dzfslh+0n8WbTRPMt1hT+zH0rwTeS+RIsaG6i/te71TM7tMyzebb+YFgWKP+o+vwC/4Ni/hRe/Cz/gjf8AsyzapBNa6p8Sr/4n/E+6tpo5UZLPxH8R/Elp4dmTzJHDxah4V0nQtTjeOOCMregCNyDcTfv7QAUUUUAFFFFABRRRQAUUUUAFFFFABRRRQAUUUUAFFFFABRRRQAUUUUAFFFFABRRRQAUUUUAFFFFABRRRQAUUUUAFFFFABRRRQAUUUUAFFFFABRRRQAUUUUAFFFFABRRRQBKnQ/X+gooTofr/AEFFAEbdT9T/ADpKVup+p/nSUAFFFFABRRRQAUUUUAFFFFABRRRQAUUUUAFFFFABRRRQAUUUUAFFFFABRRRQAUUUUAFFFFABRRRQAUUUUAFFFFABRRRQAUUUUAFFFFAHxJ/wUh/ZZt/21v2F/wBp79mJo7VtU+Kvwo8RaX4SkvREbO08f6RHH4k+HmoXXnDYLfTvG+jaBfTNujdY7dmjmhkCyp/ig+INB1fwtr2teGfEFhdaVrvh3VtQ0PWdLvoXt7zTtV0q7msdQsbuCQLJDc2t3BLBNE4DxyIysAQa/wB5mv8AMN/4Oqf+CXmq/sp/ta3H7Zvw18PTD4A/tZa5eat4lubKGV7LwT8fp0uNR8XaRfMsRis7bx/DFN420N5bgveamfGFpDBBbaTB5oB/KDXtX7Of7QHxO/ZW+OXwv/aH+DevS+HPiV8JPF2leMfC2pIZDbvd6bMGuNL1S3jki+36Hrdi91o2vaXK4t9U0e/vtPuVaC5kU+K0UAf7Of8AwSu/4KmfAD/gqR+zxoXxU+GOuaVo/wAT9G03TbL41/BefU4JfFnwy8XyQbbqOayfybzUfCOrXMN1ceEvFcNqthrNjHJA5tdZ0/V9L0/9Pa/wxf2c/wBpv49/skfFHQvjP+zj8UvFfwl+JPh2UNYeI/Ct/wDZ2uLcujzaXrWmzpcaT4h0O82KmoaFrtjqOj6hEDFe2U8ZKn+yb9kH/g878deHdB0vwx+2z+zFafEPUbG2gt7r4p/A3XbXwrq2pmBhG11qnw48Sx3Ghz6ldQkT3VzpHi7w/p32qOQWui2tvcJHaAH+gpRX8k15/wAHlH/BMaLRlv7P4Pftl3epym5jj0N/h58JLa4hkijLQS3t6fjfLYR2dzJtjElpPfXUS7nkshtCt+QX7an/AAeS/Hn4haHq3g79iP4CaL8BUv4ZLVPix8T9VsviN48tYpUOLzw94Qg06z8FaBqcL4VJNbm8d2bJuYWcchRowD+qD/gtb/wWO+Ef/BLD9nzXHsdZ8P8Aiv8Aav8AH+hXtj8DfhEb2O5vYb+7EljH8RvG1hbSG70zwJ4Zm829/wBI+xy+LNSsl8OaTcQtJqOp6T/kafEDx74v+Kfjrxj8S/iBr194o8c+P/E2t+MfGHiTU5PO1HXfEviPUbjVta1a9kwA9zf6hd3FzKVVV3yEKqqABt/F34x/FP4+fEPxL8WPjR4+8U/Ez4j+L7+TUvEfjDxjrF5ret6ndScKJLu8kkaK1towlvY2NuIbKwtIobOyt4LaGKJPNaACp7VYHurZLqQw2zzwrczKjSNFA0iiaRY1w0hSMswRSGYjaOTUFFAH+0f/AMEtP2jf2K/jX+yD8E/CH7FXxi8L/Ev4e/Bj4WfD74ZDSrSYaZ438LReEvCumaJa2vjnwZfmHxB4e1m5jsDPcPqNp5OoXDT3dne6hBILqT9Ia/wuPgH+0X8cv2XPiPonxc/Z8+KPjH4TfETw/Ok2n+JfB2sXOl3TxrJHLJYalbxsbHWdIuzEkeoaNq9tfaVqMG63vbOeFmjP913/AAS8/wCDvPwl4qPh74Q/8FMvDVv4I11li060/aa+HWj3dx4R1GZUjjgn+JPw802K71Pw7cTlJHvPEPgyPU9IlvLmIHwn4e02Ke8iAP7mSQASTgDkk9APU1+Ln7f/APwXy/4Jyf8ABPK51Lwp8R/iw3xS+MGnGWKb4LfA6LTvHXjXTruM7GtvFN6NU07wl4Mnido3nsPE/iLTdZNs/wBos9JvVG0/yjf8F0P+DnTxx8X9e8Wfsq/8E5vG2o+CfgzpzXugePv2j/Dlzcab4w+Kc+DbX+l/DXUFjgv/AAn4HhbzYT4ns5IPEHihsS6dPpWiKG1r+LK5ubm9uJ7u8uJrq6uZXnuLm5lee4uJpWLyTTTSs0kssjks8jszMxJYknNAH9t/x1/4PUfj5qeoXkH7Nf7Hfwn8GaVFM0dhqXxp8XeLPiNqF5Ash23V3o/gub4ZW+nSzRbSbKLWtUS3kyPt1yvJ+NYv+Dwj/gqrHdx3L+FP2UZ4UuFmaxl+FvjQWssayBzayND8UorsQOo8pmjuo7jYSUnWTDj+VOigD+5X9n3/AIPUvirY39lZ/tS/sceA/EumTNHHqHiH4FeMte8GX2npmLzbq08J+Oz44g1VgBNsspfGOkAl4w18PLYy/wBXH7AX/Ba//gnt/wAFHvsuh/AX4xRaN8U5bN726+CPxTsk8C/FG2jjJ84WGl3V3d6H4tEEYWe6m8D6/wCJ7eyikQ3sts5KL/jZVp6NrWseHNW03X/D+q6joeuaNfWup6RrGkXtxp2qaXqNjPHdWV/p9/aSQ3VneWlzFHPbXNvLHNDNGkkbq6ggA/3naK/g6/4IF/8ABzHrXijxB4S/Y0/4KP8AjiC8vtXex8O/Bz9qDxJcpb3N1qjslrpvgz4z6pMywTz6gzRWujfEO6MUr3nl2/i2W4e7bXYf7xFZXVXRldGUMrKQysrDKsrDIKkEEEEgg5HFAC0UUUAFFFFABRRRQAUUUUAFFFFABRRRQAUUUUAFFFFABRRRQAUUUUAFFFFABRRRQAUUUUAFFFFABRRRQAUUUUAFFFFABRRRQAUUUUAFFFFAEqdD9f6CihOh+v8AQUUARt1P1P8AOkpW6n6n+dJQAUUUUAFFFFABRRRQAUUUUAFFFFABRRRQAUUUUAFFFFABRRRQAUUUUAFFFFABRRRQAUUUUAFFFFABRRRQAUUUUAFFFFABRRRQAUUUUAFfNn7XX7KPwb/ba/Z7+JH7NXx48OR+I/h58SNEl029CeXHq2g6rERcaF4r8N3skU39m+JPDWqx22raPeiKWNLq2WK6gubOW4tpvpOigD/F+/4Kjf8ABLz9oH/glx+0NrHwi+LekXWq+BNYur/Uvg58XtPs5/8AhE/iZ4PW5YWt1a3ZTydP8UaZC8Ft4q8L3En27Rr8iSP7Zo97pWq6h+aFf7in7XP7Hf7PP7cvwX8RfAX9pb4d6T8QvAGvqZ4YrxPI1rwzrkdvcW9h4p8Ia5CBqHh3xLpa3U/2LVNPljk8uaezuVubC6urWf8Azff+Co//AAa4/th/sb6r4g+I/wCyrp2vftbfs5xG61GH/hGtOS4+N/gXT48zGz8XeA9NjEviuC0hYRp4k8CW999rS2ur7VfDnhmARRyAH8ttFW7/AE+/0q9utO1Syu9O1Cynltbyxvrea0vLS5gkaKe3ubadI5oJoZUeOWKRFeN1ZGUMCBUoAKKKKACitvw54a8R+MNc0vwz4S0HWfE/iPW72203RtB8P6ZeaxrOq6jeSrDaWOnabp8NxeXt3czOsUFvbwySyyMERGYgV/XN/wAEqf8Ag1D/AGjP2h9V8O/Fv9v2PWv2a/gekltqkPwoRreL47/EC1HlSx2Wo2Ei3Nv8LNIudzx3s/iGObxkn2ea0j8LacLu21qAA/Jv/gjR/wAEcvjP/wAFXPjtaaXZ22r+Cv2ZvAOsabcfHP4yi38mGw0zzY7mbwR4IuLu2ns9V+ImvWIeOwg8m7svD1tMuu65C9utnYap+pv/AAVB/wCDT79pv9mX/hJPix+w9qOrftT/AAVskudUuPh5Ja20Hx/8HadErSSQxaPYpBpvxRt4EXKXHhO30/xNO0qwReDJ0glv5P8ARh+AH7Pnwb/Zb+E/hH4H/APwBoPw0+F/gbTxp3h3wr4etvItbdGkee6vby4kaS81TVtSu5Zr7VdX1K4utS1O/nnvL65nuJpJG9loA/wYNX0jVtA1TUNE13TL/RtZ0m8udO1TSdVs7jT9S02/s5nt7uyvrG6jiubS7tp45Ibi3njjlhlR45EVlIGdX+wf/wAFPP8Agh1+wd/wUj8Pa54s+KXg23+E/wAbbLS7u6sP2ivhrb6X4f8AGURstPK248eQyQLovxA0K0S2tRNB4mhfVLPT7Z7XQvEGgrPPM3+Qj4u03RdG8V+JtH8Oa1L4k8PaVr+sadoXiGfTv7In13SLLULi203WJtJ+13/9mS6lZxQ3j2H268+yNMYPtVx5fmuAc9RRX6E/8Ew/+CeHxU/4Kb/taeBf2aPhrL/Yem33meJvih8QJ7V7vTvhv8MtHuLZfEfii5t0KfbdQP2m20jw5pRlt01bxHqel2Nxd2FlLd6jaAHxF4J8BeOfiV4hsPCPw78G+KfHnirVZRBpnhrwdoGq+Jde1Gdvuw2WkaNa3l/dSnskEDsewr7suv8AgkN/wVHs9BfxJc/8E/v2t49LjtFvZf8AixPxDbUYrZtpLy6MmhNq8bRq2+aJ7FZoEV3mjRUcr/rUfsIf8E2/2SP+Cc/wt034Zfs1fC7RfD9wLC1t/FnxH1WysdT+J/xDv4UQzar4z8YNaRahqDT3KvdQaTbGz8P6U8rxaNpOn25EVfeFAH+Dd4n8K+J/BOu6l4X8ZeHdc8J+JdGuZLLV/D/iTSr7RNa0u8iIEtrqGl6lBbXtncRkgSQ3EEciE4ZRWBX+zl/wUn/4JKfsif8ABTr4Yan4T+NvgPStJ+JllpF7bfDj47eG9NtbL4keANWeGX7BNHqkAt5vEfhuO7dZtS8H63PcaNqEe94ksdRW11K1/wAkT9uX9jP4ufsCftPfFD9l340WAh8V/DvWWgsNctILiPQ/G3hS+X7X4Y8b+G5bhEa40TxHpUkF7BnM9jcm60m/WDUtPvbeEA+SVZkZXRmR1YMrKSrKynKsrDBDAgEEEEEZHNf6hf8Awa4f8FWta/bd/Zi1n9mD42eI5Na/aF/ZX0vRLDT9c1W8a51v4jfBW5VdL8MeIb6e4ka61PXfB97AvhXxNqEgkkntp/C2pX11c6nrF5JX+XnX67f8EKv2ttR/Y1/4KifssfEcahPZ+EPGfjzT/gt8SrdHVbS88D/Fq4h8H3c+pAlS9n4b1nUNF8ZBY2En2rw5bMqy4MEoB/sdUUisGUMpyrAMCOhBGQfxFLQAUUUUAFFFFABRRRQAUUUUAFFFFABRRRQAUUUUAFFFFABRRRQAUUUUAFFFFABRRRQAUUUUAFFFFABRRRQAUUUUAFFFFABRRRQAUUUUASp0P1/oKKE6H6/0FFAEbdT9T/OkpW6n6n+dJQAUUUUAFFFFABRRRQAUUUUAFFFFABRRRQAUUUUAFFFFABRRRQAUUUUAFFFFABRRRQAUUUUAFFFFABRRRQAUUUUAFFFFABRRRQAUUUUAFFFFABQQCCCMg8EHoR6GiigD88P2uP8AglB/wT0/bka5vv2lP2Wvhr438U3UQik+IOmafdeB/iURGipbCb4g+Brvw74tvobMorW1lqOrXmnod6NaPFLNHJ/nyf8AByh/wR+/ZS/4JW61+ynqn7L2ofFP7D+0JJ8c38UeHviD4r0rxTpHh5fhq3wnOhReE5rfw1pGuQR3A8e6supnXtZ1+SdbXTjbyWjR3LXf+pVX8E//AAe6/wDONn/u7X/32+gD+Cev7Cv+Db3/AIIf/sWf8FL/AIG/Fn49ftRSfFjWtV+Gvxqf4d6X4J8KeNbLwp4I1fRE8GeF/Enn62LDw83i99Ra81q6gabS/F2lQfZEhRbZZleeT+PWv9JD/gy8/wCTFf2nv+zppv8A1VngCgD+kX9lL/gm/wDsNfsQ2K2v7Lv7M3wv+FN+bZbO48V6dora38QNQtFUottqvxF8UT63451W3AZ2EOo+ILmIPJK4TfLIzfbdFFABRRRQB8Zf8FG/FuqeAf8Agn1+3H450R/L1nwd+yL+0Z4o0mQNtKaloPwi8XapZPu2tt23NrGd21sYzg9K/wAR52Luznq7Mx+rEk/qa/29f2//AAHqPxS/YU/bN+GejpLJq3xC/ZX+P/grTI4FDTyah4o+FfirRLNIVIIaVri9jWNSCC5AI5r/ABC5EMcjxnqjshz1yrFTn8RQAyv9HH/gzC/Z+0Dw7+yP+0z+0vPpsY8Y/E345QfCq11GURyTp4M+GHg7w9r8CWb/ADPbQX/iL4haul7GrI11Lo1m80bJb2zn/OOr/Q5/4Mvv2ovDOq/An9qD9jnUtYhi8b+DviXbfH7wvo91cyNean4N8aeHvDfgjxNLpMLuyDTvDOv+EdCk1JIkiWG88Z2spEj3cjKAf270UUUAFfwO/wDB6r8APDdvd/sXftP6dbW1t4s1SL4h/BLxbdCJBdavomknSvGngdDKqq/l6Hd6p46DCVpQ39tQiIQiKTzv74q/z8P+D0j9p3wzrnjv9kf9kbQdQt7zxF4E0fxn8aviFbwSW8/9lDxk+neFvAVhcPGry2movaeH/F2o3NjLLFIdPv8ARr14Hhu7WYgH8L1aWi393pesaVqdhcS2l7p2pWN9Z3UDtHPbXVpcxTwTwyIQySxSxrIjKQysoIORWbW94V0LVPFHifw74b0Syl1HWfEGuaTouk6fBt86+1LVL6CysbSLeyL5lxczxQpuZV3OMsBzQB/uofCTxYvjz4V/DXxurpIvjDwF4R8TrJHDJbxyDXdA0/VA6QTEywqwusrFIS8YIViWBr0KuK+G3hW38C/DvwJ4KtBGLXwj4O8NeGbYQxmGEQaHo1lpkQiiZ5GjjCWy7EaRyq4UuxGT2tABRRRQAUUUUAFFFFABRRRQAUUUUAFFFFABRRRQAUUUUAFFFFABRRRQAUUUUAFFFFABRRRQAUUUUAFFFFABRRRQAUUUUAFFFFABRRRQBKnQ/X+gooTofr/QUUARt1P1P86Slbqfqf50lABRRRQAUUUUAFFFFABRRRQAUUUUAFFFFABRRRQAUUUUAFFFFABRRRQAUUUUAFFFFABRRRQAUUUUAFFFFABRRRQAUUUUAFFFFABRRRQAUUUUAFFFfh3/AMFe/wDgul+zN/wSn8LN4a1Pyfi9+0/4i0dtQ8EfAnQNVhtrixtrjfHZeJ/iRrEcd3/wh/hdpUY2qPbXGua80TxaRp720d7qNgAftvqOpado9jd6pq1/Z6XpthbzXd9qGoXUNnZWdrbRtNcXN1dXDxwW8EEKPLNNK6RxxozuwVSR/na/8HiX7Vf7Nn7Q3iX9hvwj8CPjn8L/AIxeIPhR/wANJr8R7L4aeMtD8aJ4Ol8WH4Fr4ftdcvfD95f2Fne6i3hrXBHZPc/a4jptwJ4YiF3fzy/t7/8ABYb9vX/gox4k1K++Pnxp1yy8AXE7PpHwQ+Hl3qHg74P6Da71eG3TwpY3znxFcwOpePWvGV74j11TJJGmpR23l28f5gkkkkkknkknJJ9ST1oASv8AQI/4M/v2t/2YfhL+zP8AH74KfFT4+fCf4a/FXxd+0OPE/hPwN498ceH/AAhrvijRLn4f+DNGhu/Dlt4gvtPGtu2pafeWptNMe6vEa3d3t1jw5/z96VWZGDKxVlOQykhgfUEYIPuKAP8AeqhnhuYo57eaKeCVQ8U0MiSxSIwBV45ELI6sCCGUkEEEHFS1/jvf8E7/APgun/wUB/4Jz65oVj8PfivqvxO+C1hcQR6t8Avi3qOpeLPAFxpIbFxa+F5Lu6fWvh/eiNpJbS88I3+n2f24Qz6vpes2scljN/pe/wDBKz/gsL+y7/wVa+Gdz4g+Et/L4K+L/hOxtJ/ij8B/FN9bSeMfBsk5WE6rpdxGltD4u8GT3Z8ix8U6XbRIryW9trNhouozpYUAfrJRRRQBHLGk0UkLjKSxvG4OCCjqVYEHg5BI54r/ABcf+Ctv7HuqfsLf8FCv2mf2e7jS303wxovxD1bxT8MmW38mzvfhX46mbxZ4BlsZEAt7hbDQNVtdEv2tSYbfWdK1KxZYZ7SWCP8A2kq/lK/4Oh/+CROqftu/AHSv2tfgR4am1j9pP9mnw/qEOt+H9JtWudY+KfwUWa41fVdAs7eINNfeIvAt9Nf+JvDNpbjz7+z1DxPpUUF9qF7pEUAB/mCV9a/sP/tofGn9gH9pP4e/tO/AfV4LDxr4FvZVutK1JZp/DvjHwxqSfZfEXg3xRYwzQPe6Fr1gXt51jliurK5W11TTbi01SwsruD5MdHjdo5FZHRmR0dSro6kqysrAFWUghlIBBBBGRTaAP9h7/gmz/wAFyP2GP+Cj/gbw0/hH4n+GvhZ8drmxsYfFv7PfxI8QaZoHjfTfELxRJfweD31KWxtviJoH2xm/s7WvDIuJ2tZbT+2dM0TUZn06L9ijeWirva6tggGS5niC4HJO4tjAAJzntX+C1HJJEweJ3jdeVeNmRgfUMpBH4GvU7347/G7UvDq+ENR+MHxPv/CaRPAnhm88eeKLnQFgkSWN4V0ibVHsBE8c8yNGLfYySyKRh2BAP9W//gqD/wAHB37D/wDwTy8E+KNE8OfEHwv+0H+0ylneWfhX4J/DbXrPX49L1/ZNFBc/E/xRpEl5pHgjSdOulifUdNurmTxbdRPGum6DPE8t3a/5Wf7T37Sfxa/a++PPxM/aP+OPiKXxR8Tfir4kufEXiLUSHjtLYOsdrpmh6NavJL/Z/h/w9pVvZaHoOmpI8en6RYWdojMItx8IZmdizszsxyzMSzE+pJJJPuTTaACv21/4N6/2N9Q/bL/4Kl/s6+H7jSptQ8AfBfX4f2hfidciPfaWfh74WXlnrGg2l+pVo5bXxF4+fwj4auLdipltdXuWGVifH4saXpepa3qWn6No1hearq+rXtrpul6Zp9tNeX+o6hezJbWdlZWlukk9zdXVxJHBbwQo8s0rpGiszAH/AFfv+Dcv/gk1cf8ABNn9kiTxp8WdFjs/2pv2kodE8X/FG3uYYzf/AA98L2tvLN4M+FSzEF4rvRob+71fxasRRJPE2pz6dI95baDpt0QD+iMAAAAYAAAA6ADgD8KWiigAooooAKKKKACiiigAooooAKKKKACiiigAooooAKKKKACiiigAooooAKKKKACiiigAooooAKKKKACiiigAooooAKKKKACiiigAooooAlTofr/QUUJ0P1/oKKAI26n6n+dJSt1P1P8AOkoAKKKKACiiigAooooAKKKKACiiigAooooAKKKKACiiigAooooAKKKKACiiigAooooAKKKKACiiigAooooAKKKKACiiigAooooAKKKKACiikJABJIAAJJPQAckn2AoA/HP/AILZf8FVvCH/AASq/ZJ1P4i240zXvj78TH1LwX+zz4Ev33w6r4tS0jk1LxdrdrHIlzJ4Q8BWd3b6trfklBf39zofh37VYy69De2/+RJ8X/i/8S/j58S/Gfxi+MPjLXPiB8SviBrl54i8XeLvEV497qmr6pevueSR2xHBbQRiO1sLC1jhsdOsYLewsbe3tLeGFP2S/wCDir9u/Vv24f8Agpf8ZDp2sXF38I/2dtW1H4AfCfTVuPN01bXwLqNxp/jfxPbLC5tLiTxh46i1zU7fU441uLnw7F4csp5Jk02Bh+EtABRXV+BvA3jH4m+MfDPw9+HvhnWvGXjjxnreneHPCvhXw7p9zquua/rmrXMdnp2l6Xp1nHLc3d5d3MscUMMUbMzN0ABI/vt/4Jq/8GgPw1sfB+g/Ev8A4KUeLfEHiXxxq1vBqH/DPnww8Rf2D4V8LwTxxyLpnjjx5pqNrviHWo1do7218HX2g6bp1zG0dvrmuwsJgAf589Ff69l5/wAG3v8AwRfvNGl0Q/sU+G7a3kshZLeWnxK+NEGrwosYjS4i1ZfiKb/7Ym1X+0yTySySAtM0u5w384//AAVO/wCDRa28EeCvFHxt/wCCbHivxZ4ol8OWF7rms/sz/EG7g1zXtTsLOGS5uo/hV40ht7K71HUoIIh9i8H+J7W+1HV5GlWy8USXps9KuQD+Euvob9lf9qX42fsZ/HPwJ+0P+z/4y1DwV8SPAGrQajp17ayy/YNWsd6jU/DfiPT0kjh1rwzr1oJNO1rSLvdb3tnNIhCSCORPB9U0vUtE1LUNG1mwvNK1bSb2603VNM1G2ms7/TtQspntryyvbS4SOe1u7W4jkguLeZElhlR45FVlIFGgD/ab/wCCWv8AwUQ+Gv8AwU3/AGQvAX7SfgMWukeILgP4V+LfgOO6Fzd/Dv4o6LbWreIvDk7H95Jp9zHdWev+HLuQB77w3q+lXM6Q3bXNtB+itf5bv/BqL+3dqn7M/wDwUMsv2cPEGsSQfCb9sTTG8DXllczY0/TPit4cs9S1v4a66itIPLutTkGseBwkEbtd3HirTjcApYxSQ/6kVABSEBgVYBlYEMpAIIIwQQeCCOCDwRS0UAfxF/8ABd7/AINjp/jh4i8Y/tif8E7dD0XSviVqxu/EPxX/AGarZbTRNJ8fas7SXOp+MPhbdSzW2laN4t1Bi1xrXhC7FnpXiK6afUtKvbLWnl0/W/8APv8AHPgPxt8MfFuveAviN4S8R+BfG3hbUrrRvEnhLxbo2oeH/EWharZSGK707VtH1SC2vrG8t5AUlguII5FPVcEGv94Svz//AG0v+CXH7CX/AAUC0prT9qL9nvwZ451+O2W2034i6fDceE/iho8cQJto9P8AiD4Ym0rxM1lbSkTLo99qF7oc8gxd6ZcRs6MAf4p9Ff6IXx4/4Msf2f8AxDf32ofs4/ti/E74Y2sstzc2vh34p+AfD/xVtYvMy8OnQa34e1j4ZXtrZwufKiubux1i8WAJ55u5leaX43h/4MpPjw2svBcftw/CqLw+GkEepQ/CrxXPq7oEJiL6M/iaC0RnkwkijXJBGmXVpT8lAH8Qtej/AAm+D/xS+O/j3w/8Lvgz8P8Axb8TviH4qvVsPD/g/wAE6FqHiHXtTuWVncQafpsE8whghSS4u7qRUtrO1imurqaG3ikkX/Qc+AH/AAZd/sueE76z1H9o/wDaw+LvxjS3kiuJNB+HHhHw58HNHu2Vw7WWoXWqah8UNZuLJhmGWTTr7RL2Vcywz2bMFT+oL9kL/gnv+xr+wd4Yl8LfsqfALwL8KIbyCG31nxDptjNq3jnxHHAEMa+JfHuvz6r4w12KORPOhtdS1q4s7aZ5XtbeAyOCAfzj/wDBB/8A4Nq9G/Y21Xwh+13+3FZaH4x/ad01bfW/hx8I7eay17wV8DNRdYLiz17WL6ITWHir4paU+9bO6sZbnw14Tvd15o1zrGrQadrmn/2B0UUAFFFFABRRRQAUUUUAFFFFABRRRQAUUUUAFFFFABRRRQAUUUUAFFFFABRRRQAUUUUAFFFFABRRRQAUUUUAFFFFABRRRQAUUUUAFFFFABRRRQBKnQ/X+gooTofr/QUUARt1P1P86Slbqfqf50lABRRRQAUUUUAFFFFABRRRQAUUUUAFFFFABRRRQAUUUUAFFFFABRRRQAUUUUAFFFFABRRRQAUUUUAFFFFABRRRQAUUUUAFFFFABRRRQAV8+/tafFWb4Ffss/tI/Gy2kihuPhD8CPi18TIJZoftEMc3gXwHr3iaOSWDB86NH0xWeLB8xQVwc4r6Cr4Q/wCCpNrc33/BND/goRZWVvPd3l3+xR+1FbWtrbRPPcXNxP8ABPxtFDBBDErSSzSyMscccas7uwVQSQKAP8UvU7+61XUb/U765nvL3Ub26vru7uZZJ7m6ubud557ieaVmllmmlkaSWSRmd3ZmYliTVKgggkEYI4IPUH0NFAH9w3/BnD+wX4U8fePPjl+354+0a31mb4QX9t8GPgrHfWaXNnpXjjXdHt9e8f8Aiu2klH7nXdF8K6j4e0PTJI9/l2XjDWndY5haSD/Qqr+R7/gzb8aeGtY/4Js/GHwXYPZQeJ/Bv7V/jK98Q2ELob6aw8T/AA5+GE2g67eIkSMsV+dL1XSLV5Hld/8AhHp1DiONEX+uGgAooooA/wAyj/g7n/YN8K/s3ftn/Dz9qL4b6Bb6B4R/bA8P+JdU8aWGnQeXYJ8avAN7pcXjLXBHERb2D+MdC8TeFdXnh8mJtS8QW3ifWDLc3F3eeR/JNX+gz/weveNPDEHwt/YX+HsktpL4x1Lx18X/ABfawqY5L6y8OaPoXg/R72WUBWltrXUtS1uwSAyPFHey6ZcCJZ2sZjB/nzUAep/A34ma18F/jT8I/jB4bdo/EPws+Jfgb4h6G6SPEyat4N8TaZ4h09lljIeMi60+IhkIYdQc1/ujeH9Xs9f0LRdd0+f7TYa1pWn6rZXHlyxefa6haQ3dvN5U6RzR+ZFKj7JY0kXO10VgQP8ABvswWu7VVzlrmADAycmVQMDuc9B61/us/BPStQ0L4OfCjRNWlvZ9U0j4b+CdM1KbUoTb6jNfWPhvTbW7lv7cqhgvJJ4pGuYiimOYuhUEYoA9OooooAKKKKACiiigAooooAKKKKACiiigAooooAKKKKACiiigAooooAKKKKACiiigAooooAKKKKACiiigAooooAKKKKACiiigAooooAKKKKACiiigAooooAKKKKACiiigAooooAlTofr/AEFFCdD9f6CigCNup+p/nSUrdT9T/OkoAKKKKACiiigAooooAKKKKACiiigAooooAKKKKACiiigAooooAKKKKACiiigAooooAKKKKACiiigAooooAKKKKACiiigAooooAKKKKACuL+I/gfRfib8PfHXw48R2/wBr8P8Aj7wf4k8G65a5x9o0jxNo95o2owE9hLaXsqH/AHq7SigD/Cs+P3wf8Vfs+/HH4vfAzxxbi28X/CH4k+NPhx4jiVJEiOreDvEOoaDeTWwkAZrS4msWuLSXlZraWKVGZHVj5FX9nn/B3T/wTN1n4VfH/Q/+CiPwy8PTTfDD48JpXhH42tp0EkkPhL4xaHpyafoniDUY40WKx0r4heF9PsreO4RWi/4Sfw7qsmoTpeeINPjuf4w6AP6Cv+Dd3/grJo//AATD/a21Ox+Ll5dwfsx/tEWOi+Dfi5eW0d1eN4I1jR7u6l8EfEyPTbUPNfW/hu41TVdN163topbs+HNd1O8s7e9vtOs7K4/1hvCfizwx478M6B4z8F+INH8V+EvFOkafr/hvxL4f1C11bRNd0TVbWK903VdK1KylmtL6wvrSeG5tbm3lkimhkSRGKsDX+DfX62f8E/v+C3H/AAUK/wCCbtnF4W+Anxci1v4Tretfy/BP4q6YfHPw0FxJK807aTYzXdj4h8Ii7mllmv18E+IvDa6jPJ59+LmZI3QA/wBkSvOvi18W/hr8Cfhz4u+Lnxf8aeH/AIe/DfwJo11r3ivxf4n1CDTNH0fTLVQXlnuZ2UPNNI0dtZWcIku7+8mgsrOGe6nhif8AzvL7/g9F/bfk8Lw2mnfst/sw2njIIwuNeu3+J194ckcrOEaHwvF41sdRhCu1uzLJ4ruNwimUMpnRoP5//wBvb/grd+3d/wAFI9RtV/ac+NGo6x4I0q/bUfD3wk8IWdv4N+Fmg3ewpHdxeFNI8tNb1K2WS4Sz1zxZd+IdetIbq6tbbVIrWZ4CAerf8FuP+Cmd7/wVH/bc8VfGfRbbUNH+DPgfTI/hh8CPD+pfur+H4f6JqOoXY8SaxaofKt9e8aatf33iG/tx5sum2t1pugvd3qaPFdS/kDRRQB9v/wDBNf8AZu1P9rr9vP8AZS/Z507T5NTtviJ8aPBlr4mgjiM7QeA9E1OPxL8QtSaII4ePSfBGj6/qciuBGyWjLI6IS6/7ZsUawxRxL92KNI1/3UUKP0Ffwgf8Gfv/AATR1TR4fHv/AAUp+K/huayGs6fqXwq/Zqi1S2aOW50uaZU+JXxIsI5UGLa6kt7fwPoGoxMGmij8awsn2eW2ll/vDoAKKKKACiiigAooooAKKKKACiiigAooooAKKKKACiiigAooooAKKKKACiiigAooooAKKKKACiiigAooooAKKKKACiiigAooooAKKKKACiiigAooooAKKKKACiiigAooooAKKKKAJU6H6/0FFCdD9f6CigCNup+p/nSUrdT9T/OkoAKKKKACiiigAooooAKKKKACiiigAooooAKKKKACiiigAooooAKKKKACiiigAooooAKKKKACiiigAooooAKKKKACiiigAooooAKKKKACiiigDxf9oj9n34U/tUfBb4h/AD43eFbLxl8Mfid4dvPDnifQ7xcM9vcgPbahp9yo87TtZ0i9jt9U0XVLVo7vTNTtLW9tZI54EYf5J3/BYb/gjX8e/wDglN8Z72w1nT9X8dfs1+MtZvm+DPxxtLGSXS9SsHkmuLTwh42mtoFtPD/xD0uxXF7p8wt7XXIrefV9AM9ol3BYf7DNeb/Fz4P/AAu+PXw78UfCb4zeA/DHxL+G/jPTpNK8TeDvGGk2mtaHqtm7LIgms7uORY7m2njiu7G9gMV5p97BBe2U8F1BFMgB/hL0V/f7/wAFB/8Agzl0fX9V8QfET/gnV8YNP8IJeTS30P7P3xqm1O60GyLLJLLZ+DvinYx6prNtbhlSDTdI8W6Dqr75We88YxQxqo/lo+PP/BC//grH+zrqF5Z+Of2IPjZ4gs7Q3Mh174SeHh8avD72NsrynU5NT+FU/i6PTrJ7dPtB/tddOubeM7b23tpkliQA/JmivqSL9h39tCfWJ/D0P7JP7SkuvW0QmuNFi+B/xKfVYIWSKRZZtPXw0buKNo54HDvEqlJomBxIpP3Z+z5/wQC/4K4ftHX9lB4Y/Yy+J/gHSrmdI7vxH8cbO2+CmmaZbNKYn1C4sfiNPoHiO+tY8eYU0LQtWvZoSstraToykgH431/Qn/wQ3/4IV/Fv/gp98UdF+JHxK0bxF8P/ANinwbrHm+PPiO8R0y++I11p0jM/w8+GL3kROp399cxCz8ReJLaC40rwpYm5aaaXWm07S7v+kT/gnN/wZ/fCL4U6voHxO/4KCfEyx+PHiLTjZ6jD8DPhxFquifCiz1S3mjuBH4p8YXxsPFXjzTwUCPpdpo/gywkZXivjrFjM9u39mXgvwV4P+HHhXQfA3gDwvoHgrwZ4W0210bw34V8LaTY6F4f0LSbKJYbTTtJ0nTYLaxsbO3iVUigtoY40UYC0AU/h18PPBPwl8B+EPhj8N/DWk+DvAPgLw7pPhPwf4W0K0isdI0Hw9odlDp+l6ZYWsKqkVvaWkEUSDBZtpd2Z2Zj2dFFABRRRQAUUUUAFFFFABRRRQAUUUUAFFFFABRRRQAUUUUAFFFFABRRRQAUUUUAFFFFABRRRQAUUUUAFFFFABRRRQAUUUUAFFFFABRRRQAUUUUAFFFFABRRRQAUUUUAFFFFABRRRQBKnQ/X+gooTofr/AEFFAEbdT9T/ADpKVup+p/nSUAFFFFABRRRQAUUUUAFFFFABRRRQAUUUUAFFFFABRRRQAUUUUAFFFFABRRRQAUUUUAFFFFABRRRQAUUUUAFFFFABRRRQAUUUUAFFFFABRRRQAUUUUAFBAIIIyDwQehHoaKKAI/JiyW8qPceCdi5I9CcZ7D8qkoooAKKKKACiiigAooooAKKKKACiiigAooooAKKKKACiiigAooooAKKKKACiiigAooooAKKKKACiiigAooooAKKKKACiiigAooooAKKKKACiiigAooooAKKKKACiiigAooooAKKKKACiiigAooooAlTofr/QUUJ0P1/oKKAI26n6n+dJSt1P1P8AOkoAKKKKACiiigAooooAKKKKACiiigAooooAKKKKACiiigAooooAKKKKACiiigAooooAKKKKACiiigAooooAKKKKACiiigAooooAKKKKACiiigAooooAKKKKACiiigAooooAKKKKACiiigAooooAKKKKACiiigAooooAKKKKACiiigAooooAKKKKACiiigAooooAKKKKACiiigAooooAKKKKACiiigAooooAKKKKACiiigAooooAKKKKACiiigAooooAKKKKACiiigCVOh+v9BRQnQ/X+gooAjbqfqf50lK3U/U/zpKACiiigAooooAKKKKACiiigAooooAKKKKACiiigAooooAKKKKACiiigAooooAKKKKACvjv9qP/AIKAfsb/ALFV/wCENM/am/aA8CfBW/8AHtpq194PtfGN1eW0mvWmhS2MGrz2ItbK6DJYy6lYpPvKENcx4BBJH2JX+fT/AMHsn/JT/wBgf/sR/jt/6fPhrQB/VL/w/i/4JDf9H4fBD/waav8A/Kiu6+GX/BZf/gmD8ZfiD4P+FXww/bL+EPjL4heP9f07wt4O8K6RqOqSanr/AIg1e4S003S7FJdLija5u7iRIoleRFLsAWA5r/GGr9NP+CMn/KVn/gn/AP8AZ03wi/8AUr0+gD/Z8ooooAKKKKACiiigAooooAKKKKACiiigAooooAKKKKACiiigAooooAK+Ef2u/wDgpr+wj+wnah/2pP2lfh18M9Zltvtln4JfULjxL8RdQtWjkeK6svh54Stdc8ZTWMxiaKPUf7FXTvPZInu0d1B/nl/4ORv+C+nif9imW4/Yg/Y81+2079pPxH4es9T+LPxWs3sr66+CXhrX4DPpfhzw9aypcw2/xK8TaVJHqh1G9iD+E/Dl9p2pabBLrGs6dqOif5vXi3xh4s8feI9X8YeOfE2v+MfFev3s+pa54l8T6vf67r2sahcuXuL7U9W1Oe5vr67nclpZ7meSV25ZiaAP9Lz4nf8AB4x/wTQ8I3s2n+Afhn+1D8Vmilwusab4J8FeFfDtxAEm/eQT+KfiBY+IRIZVhAiuPDMC+TK8rSrJEIJKf7Kf/B2h8BP2r/2lfgX+zV4U/ZO+K/hvXfjh8UPCHw10/wAR6/438JvpWhSeKtXttLOr3dvYWVzdXaWKzm4+xwiJrlkEP2mAMZV/zLK/TT/gjJ/ylZ/4J/8A/Z03wi/9SvT6AP8AZ8r4k/ad/wCCj37D/wCxl4s0HwN+1B+0f8Pfgz4t8T6APFOg6F4vvL63vdT8PnULzShqlstrY3SG2OoafeWoZnVvNt5BtwAT9t1/m3/8Hof/ACfV+zD/ANmsw/8Aq0/H9AH9j/8Aw/i/4JDf9H4fBD/waav/APKivRfhL/wWI/4Jm/Hb4j+EvhH8I/2w/hL47+JHjvVY9E8I+EdE1DU5dV13VZY5Jo7Kyjm0yGNpmjhkcB5EGEPNf4vdfrj/AMEHf+UvP7B//Zb9L/8ATRq9AH+x/RRRQAUUUUAFFFFABRRRQAUUUUAFFFFABRRRQAUUUUAFFFFABRRRQAUUUUAFFFFABRRRQAUUUUAFFFFABRRRQAUUUUAFFFFABRRRQAUUUUAFFFFABRRRQBKnQ/X+gooTofr/AEFFAEbdT9T/ADpKVup+p/nSUAFFFFABRRRQAUUUUAFFFFABRRRQAUUUUAFFFFABRRRQAUUUUAFFFFABRRRQAUUUUAFf59P/AAeyf8lP/YH/AOxH+O3/AKfPhrX+gtX+fT/weyf8lP8A2B/+xH+O3/p8+GtAH8Mtfpp/wRk/5Ss/8E//APs6b4Rf+pXp9fmXX6af8EZP+UrP/BP/AP7Om+EX/qV6fQB/s+UUUUAFFFFABRRRQAUUUUAFFFFABRWfqOraVpFtPe6rqVhplnaxPPc3WoXlvZ29vDGpaSWaa4kjjijRQWZ3ZVUDJIFeUf8ADR37Pf8AbP8Awjv/AAvP4Q/2/v8AK/sT/hY/g/8AtbzPJ+0eX/Z/9sfa9/kfvtnlbvL+fG3mgD2eiqNhqem6rbW95pmoWWo2l3BFc2t1Y3UF3b3NtOiywzwTQSSRywyxsskcqMyOjBlYqQavUAFFFFABRRRQAVx/xC8a6L8NvAXjb4ieI53tvD3gTwn4h8Ya5cRoJZINI8NaTd6xqMyRllEjRWlnM6oWUMVAJGc12FfCX/BUa9u9O/4Jp/8ABQbULC4ltL2x/Yp/ahu7O6gdo57a5t/gp41mgnhkUhklilRZI3Ugqygg5FAH+Nb+0z8dvGf7Tv7Qfxm/aE+IV5Le+MfjD8R/Fnj7W3kne4S1n8RaxdX8Ol2bMsYj0zR7SWDStLtoooYLTTrO1tbeGGCGOJPDqCSSSTknkk9SfU0UAfrl/wAEl/8Agjr+0X/wVp+KGveGvhhqGl/Dr4T/AA9Omv8AFX41eJ7C61HRPCv9ri5fTdG0TRbWezuPFni3UYrS5uLXQ4NQ062gtoTc6rq2mQS2r3H9vX7GH/Bpt+zJ+yN8dPgb+0Y37T3xv8f/ABI+CHxB8L/EbTbUaH4I8MeDNb1fwvfWuo21ne6KdO8Qa1bafcXVuwmWHxM9wIJFjScOhlf6B/4NS/hTofw//wCCO/we8ZaZZWVvqfxs+I/xn+IXiK7t1T7Vf3+jfEXXPhZaPfyC2gdpINJ+HdjBBG812Et1RkmTzGt4f6Q6ACv82/8A4PQ/+T6v2Yf+zWYf/Vp+P6/0kK/zb/8Ag9D/AOT6v2Yf+zWYf/Vp+P6AP436/XH/AIIO/wDKXn9g/wD7Lfpf/po1evyOr9cf+CDv/KXn9g//ALLfpf8A6aNXoA/2P6KKKACiiigAooooAKKKKACiiigAorK1XXdE0O0nv9a1fTNIsbUBrm81O/tbG1t1Z1jUzT3UsUUQZ3VAXZQWZVHJAry23/aP/Z7u9Xk0C1+Ofwhuddikmil0aD4j+D5tUjltwzXEb2EesNdK8CqxlRog0YUlwADQB7PRVa1vbO+ijnsru2vIJY0limtZ4riKSKRQySJJE7q6OpDK6kqykEEgirNABRRRQAUUUUAFFFFABRRRQAUUUUAFFFFABRRRQAUUUUAFFFFABRRRQAUUUUAFFFFABRRRQAUUUUAFFFFAEqdD9f6CihOh+v8AQUUARt1P1P8AOkpW6n6n+dJQAUUUUAFFFFABRRRQAUUUUAFFFFABRRRQAUUUUAFFFFABRRRQAUUUUAFFFFABRRRQAV/n0/8AB7J/yU/9gf8A7Ef47f8Ap8+Gtf6C1f59P/B7J/yU/wDYH/7Ef47f+nz4a0Afwy1+mn/BGT/lKz/wT/8A+zpvhF/6len1+Zdfpp/wRk/5Ss/8E/8A/s6b4Rf+pXp9AH+z5RRXgP7UH7TvwX/Y7+B3j39of4/+MrDwP8Mvh5pL6nrWrXjF7m8uJHW30zQtEsI911q/iDXdQlt9M0bSbKOW6vr65hhjTBZlAPKf2+v28vgL/wAE6f2cfGX7Rnx88RW+naRoVpc2nhDwlb3MK+KfiZ42ktLibQ/Avg+wkPmXusaxPDtln2fYdG09LvWtXntNLsLu5i/zUPiv/wAHTX/BYjxr8SfG3iv4eftE6V8IPAuveItT1Hwl8MdE+DnwJ8Uab4I8Pz3Dtpfh6DxH4y+F2teJtcews/KiudV1fUZri+uRNcCO2ikjtYfi/wD4K5f8FXvjV/wVY/aM1D4m+NZr/wAKfB/wnNe6R8DvgzDqUtzofgLww7oj6heIoittT8beJRBDfeKfEDW6y3Ewt9Ls/I0bS9Ns7f8AKKgD97P+InL/AILdf9Hof+a//sxf/OZr9V/+CSn/AAUX/wCDin/gqp+0Xpfwy8C/tiaj4Z+EHha707VPjn8Zpf2b/wBmSbQvh74UllZja2sk3wbhttU8aeII4Liz8K+HYpmuLq4E2o3a2+i6bql9a/zm/wDBM3/gmx8ef+Cnn7SHh74FfBzSrux8PW9zY6n8Wfinc6fJdeF/hT4Ge6Ed94g1iUy2sF3qlxGk1v4b8OR3kN/4g1NRBAYbSC/vrL/Xa/YT/Ya+A3/BPL9nXwf+zd+z54ffSvCvhyM3uua9qLR3Pijx54uvIoV1zxr4u1FI4vt2t6xNChZY44bHTbKK00nSrWz0uxtLSEA+stFsbvTNH0rTb/WL/wAQ32n6dZWV5r+qw6Zb6nrd1a20cFxq2owaLp+k6PDfajKj3d1FpWl6bp0c8zpZWNpbCOCPTor8bf8AgtL/AMFc/hx/wSf/AGa5PGcsOleMf2hviUmpaD8AvhZe3LpFrOtWqW66p4x8TpbSJeweB/Bkd7a3mrtbtDPq+oXGl+HbS6spdUfUtPAPob/goP8A8FQ/2P8A/gmf8OP+E8/aY+IsOnazqdvPJ4J+FPhgW2t/FT4g3EOVaHwx4WN3astlHIPLu/EGtXWk+G9PkaOG91eG4ntoZv4Dv26v+DtT9vz9ofUtZ8N/stWvh/8AZA+FkrXNpZXOgW9h42+MOrafKDCZdY8deIdOl0rQ5pkVLm2j8F+GtE1PSJpZYB4j1MJHc1/ON+0v+058cv2v/jD4s+PH7RHxC134lfEzxleNc6nrut3G+O0tVZvsWi6Jp8QjsNC8P6VCwtdK0TSre107T7ZVit7dBnPgtAHtvxc/aV/aH+P2qPrfxx+Ofxb+L2rPctdm/wDiR8Q/FfjO4S4ZWQyQv4g1W/8AIKxu0SLCI1jiJijVY/lrxn7VdZ3faZ9397zpM/nuzUFFAH0D8EP2r/2m/wBmrXIfEfwA+Pvxd+DusQ3Edwbn4eeP/E3heO6ePH7rUbPStRt7LVLWVcx3FlqNvdWlzCzQzwyROyH+sf8A4Jp/8Hd/x7+G2u+HPhp/wUU8PWvxu+GdzNZaVJ8cfBekad4d+LXhGBnWA6v4k8O6XDZ+F/iBptpEIvtUen2PhrxIIhdag994iv8Ay7C4/i3ooA/2RP2+/wBui3t/+CSf7Qv7cH7EPxj8P6vNpvwXuPHfwi+Kvhqz0DxVp9pfjUNOtxNNofijStV0salYGa5sdU0HxJojXel38dxZanp1ve20kUf+dP8A8ROX/Bbr/o9D/wA1/wD2Yv8A5zNfFv7KX/BSL4yfs0fs1/tafsgreXnij9n39q/4a6z4d1vwZd3ZMHg74ibdPm0D4jeGUlylpfyjSrfw/wCJrWJ4YNY0OeG4uI7m/wBC0cR/nLQB+9n/ABE5f8Fuv+j0P/Nf/wBmL/5zNf6QX/BGD9on4w/tYf8ABMz9lf8AaC+Pni7/AITv4ufEfwr4o1Lxl4r/ALD8O+G/7YvdO+Ifi/Q7Ob+xPCek6F4esfJ0vS7G28vTdKtI38jzpEeeSWR/8ZGv9gL/AIN1f+UM37D/AP2I/jb/ANWz4+oA8E/4OZf26/2pv+Cff7Cvwr+Mf7JHxO/4VT8RvEn7U/gv4caz4h/4Q/wJ41+2eDdW+Fnxk8R6hpH9l/EHwz4q0aDz9Z8K6DefbrbT4dRj+w+RFdpbXF1DP/BN8Vf+DiT/AILBfGz4Y/ET4OfEz9rb/hJPhz8VvA/ir4cePfD3/Cj/ANnbSf7d8G+NdDvvDniXSP7U0T4TabrOm/2lo2pXln9u0rULHUbTzvPsru3uUjmT+yD/AIPMv+UY/wADv+z3vh1/6pD9oWv8zGgAooooA/XH9mP/AILq/wDBUv8AY4+CPgv9nP8AZz/ac/4V78HPh7/wkH/CIeEP+FP/AAJ8U/2T/wAJT4n1rxlrv/E98ZfDPxB4jvftviPxBq+of8TDV7v7P9r+y2vk2cNvbxfrF/wTL/4OEP8Agrp+0H/wUD/Y/wDgj8XP2sP+Es+GXxR+Pvw58FeOfDf/AApP9nvRP7b8Na94hs7HVdO/tbw98KdK1vTvtVrLJF9r0vUrK9h3b4LiJwGH8llfpp/wRk/5Ss/8E/8A/s6b4Rf+pXp9AH+z5X+bf/weh/8AJ9X7MP8A2azD/wCrT8f1/pIV/m3/APB6H/yfV+zD/wBmsw/+rT8f0Afxv1+uP/BB3/lLz+wf/wBlv0v/ANNGr1+R1frj/wAEHf8AlLz+wf8A9lv0v/00avQB/sf0UV8o/tq/tnfAv9gj9nnxx+0l+0H4nj8PeCPB9p5dlYwbZ/EHjLxPdxyjQvBfhLTdyyap4i166iMFrApS2tIEutU1O4stJsL69twDx/8A4KZf8FIvgX/wTE/Zq8SfHz4xajb3+tyxXej/AAo+GNtfLbeJPip49azln03w1pIEN1LZ6dGyrdeIvEMtpNZaDpayXMyz3ctjY3n+bf40/wCDoz/gtB4k8X+KPEHh39qPSfAOga3r+r6rongjQvgb8ANT0XwjpV/fz3Vh4b0rUvFPwv17xLf6fotrLFp1pea9rWq6vcwW6TahqF3dPLO/wN/wU7/4KW/HX/gqF+0nr3x3+L93Jo/h2zNxovwn+FWn6leXnhX4XeCllBtdI0qO4KR3WtaisUN94q8Q/ZbW41/Vt0/2ez0+307TbH85qAP3s/4icv8Agt1/0eh/5r/+zF/85mv2h/4Iw/tz/wDBw1/wVb+PVppkP7Y2s+Df2Y/h/q1hcfHP4xJ+zv8Aswww2Vj8l1/wg3gu4uvglLaap8QPEFtiO1hEV1beHbGf+3tYiaFbGx1P+cf/AIJLf8Epfjl/wVU/aK0v4ZeArLUPDfwi8LXuman8dPjNNYtJoXw88JTTkyW1pLLsttV8ba9BBc2nhPw3FKZ726WW/vPsuiadqmoWn+uL+yN+yP8AAv8AYf8AgP4J/Z0/Z48HWvg74d+CbERRIoSfWfEWszqh1fxZ4r1Xy459b8Ta7cobrU9SuAMny7S0itdPtbOztwD6RgjeKCGKSeS5kjijje5mWFZrh0QK00q28UECySsC7rDDDEGYiOKNMKJaK/Bz/guv/wAFm/Bn/BKf4Bppvg59H8WftbfFvTb21+C/gS9aK8sfDtmsv2PUPih44so7iK5i8MaG5nj0ayKiTxT4igj0qApYWut6hpgB9S/8FI/+Cuv7Gv8AwS98Ew65+0H44k1H4g65Yy3fgb4IeBhZa38UfGQSQwLdwaPLeWlroOgLMsiz+JPEt7pWkk29zb2M1/qUaWEv8B/7cP8Awdc/8FG/2l9Q1rQPgBqGg/sefC25nmh0+w+HUMHiH4pXelurLHHr3xP8QWUk1tfBisy3ngXQfBU0JRITLOolkn/nX+OXx1+Ln7SvxU8Y/Gv45+PNe+JPxP8AHur3Gt+KPFniK6Fxe313cN8sNvDEkVlpmmWUIjs9K0fTLaz0rSdPgt9P02ztbO3hgTyWgD1r4ofHz45fG7WZfEXxl+MnxR+K+vzSvPLrXxH8e+KfGuqyTSf6yV7/AMR6pqN00j5wzmXcRwTivLPtVyDuFxOG5OfOkzk9TndnnvUFFAH018A/2z/2sv2W9ZtNd/Z5/aL+MPwhvLO5W6Fv4I8e+ItG0e8dZDKYtW8PwX39ha1aSuS09jq+nXtncZIngkBIr+uz/gmN/wAHevxL8Na74d+Ff/BS3w7ZePPBV5NZ6Yv7R/w80C30jxv4a8x0gOqeP/AWiQQ6H4r0qLcLi+vfBmnaFrVlbQzSQaD4ku5kgX+HmigD/YD/AOCw37dviv4Rf8EdPjj+3B+w38ZvD6a/a6P8FNf+Evxe8L2PhDx9oc2k+Nfjn8MvCGrXVlp/inSPEfhjUPtvhzxBrGlTw6npNxPp1xPKRFaanaRyQf59H/ETl/wW6/6PQ/8ANf8A9mL/AOczXxH8Hf8Ago38Zvhj+wd+1h/wT21O9uvFfwH/AGjYPh7rvh/Rb+7Zh8MPiN4H+Lfw7+IF14k8PGTzDHpnirQvBt5oev6LHshuNSfRtYhaCWzv01H876AP3s/4icv+C3X/AEeh/wCa/wD7MX/zma/03f8AgmX8YviL+0H/AME/P2P/AI3fFzxD/wAJZ8Tfij8Avhz418c+JP7L0bRP7b8S694fs77VdR/snw9p+laJp32q6lkl+yaXptlZQ7tkFvEgCj/E2r/Z8/4Iyf8AKKb/AIJ//wDZrPwi/wDUU0+gD9NKKKKACiiigAooooAKKKKACiiigAooooAKKKKACiiigAooooAKKKKACiiigAooooAKKKKAJU6H6/0FFCdD9f6CigCNup+p/nSUrdT9T/OkoAKKKKACiiigAooooAKKKKACiiigAooooAKKKKACiiigAooooAKKKKACiiigAooooAK/z6f+D2T/AJKf+wP/ANiP8dv/AE+fDWv9Bav8+n/g9k/5Kf8AsD/9iP8AHb/0+fDWgD+GWv00/wCCMn/KVn/gn/8A9nTfCL/1K9Pr8y6/R7/gkHr2ieFf+Cnv7C/ibxLq+m6B4d8PftJ/DHW9d1zWL2307SdH0fS/EVpe6jqep6hdyRWtlYWNpDNc3d1cSxwW8ETyyuqKSAD/AGUPix8V/h38DPht40+L3xZ8WaR4G+HHw88Pal4p8YeK9cuPs+m6NomlW73N3dTMA8s0hRPLtbO2jmvL25eG0s4J7maKJ/8AJ0/4Ln/8Fo/iF/wVU+Ocui+E7jWPB/7I3wr1rULb4O/D2S4urWbxTPE8tofin4+sEuGtLnxZrNsZBpFi0bw+EdEuTpNm8t7c61qWqfSn/Bwr/wAF2Nc/4KNfEa8/Zy/Z21zVNF/Ys+GmvFre5iF7pN/8evFumOYv+E08SWbyRyr4N0y5WRvAnh29gimZceJtbt49VuNP07QP5iKACvtT9gX9g349f8FFv2jfBv7OfwD8OXGo6vrt5bXXi/xbcW07eFvhn4Jju7eHXPHXjC/jXy7LR9Hgm3RQb/t2s6g9poukQXeq39pbS8T+x5+yD8c/25/j94F/Zx/Z88JXfirx7431KGB5hFOuh+E9ASeFNZ8Z+L9Sihmj0bwt4etZTeanqEqs7ARWVjDd6ld2Vncf66X/AASk/wCCWfwN/wCCVf7OVj8H/hlHH4m+IPiRrPXvjR8YNQsILbxF8R/GCWiQsVwZZtJ8H6Hma18JeFo7qa10m1lubyeS81vVNZ1TUAD0L/gm7/wTm+An/BMn9m/w9+z98D9Oa6nDR638SPiLqlvAnir4n+OZ7aGDU/E+uyxbhb2+IUtND0SCR7LQ9Jht7KFp5/tV7d/f1FFAHM+NfGPhv4eeDvFXj7xjqtroXhLwT4c1rxZ4n1u9YpZ6R4f8Padc6trGpXTqrstvZafaXFzMyqzCONiFY4B/xlv+Crn/AAUE8c/8FKf20vil+0Z4mudStvCE+pT+FPg34QvpxJH4H+E+g3d1F4W0WKKMCGO/vo5Z/EHiGSIFbnxDq+pzI3kGFI/9Ev8A4Oof2p9S/Zx/4JS+O/CPhzU5NM8U/tOeO/CvwFtZ7OcxX8PhjU4tU8Y+PHRVljdrDU/CvhC/8JaoxSaL7P4oFu6K9zHIn+UnQAV2Pw++Hvjn4r+NPDfw5+GnhLxB468d+MNVtdE8L+EvC2lXmta/ruq3jiO2sdN0ywinurqeRjnbHGQiK0jlY0Zhx1f6Wf8Awas/8EjvDP7O37POh/8ABQT4x+Gre/8Aj/8AtE+HjffCOLV7ZZZPhd8D9U2tpepaTDNHstvEnxSt0j1661mJ5p4vBc+g6ZYy2A1PxJb6gAfDf/BOf/gzvg1Xw5oXxJ/4KQ/E/XNE1fUre21BP2ePgzqOlxXWiLIiTLYePvidPbaxaXV7h2t9R0bwTp6wWske+z8a3nmFYv6PPAv/AAbx/wDBHPwBotvommfsS/D/AFtIYYo5tS8aeIPH3jXWLyWPzGe5n1HxP4s1OaOWeSWSSWO0+zWq5SGC3ht4IIYv2looA/ny+PP/AAbBf8EfvjbpGoW2kfs/618DfEd5DJHb+Mfgv8QvFuh3+nOwYpJbeG/E2o+K/ALmN23gXHhKUsAIy2wKo/jO/wCCtX/Bst+09/wT50LxF8cvgbrd3+0/+zHokdzqev6zpeiNp3xU+F+jw+bcTX3jvwlZSXlrq3hzTbUILzxp4ana3iWG6v8AWtA8NWKRu/8AqfVXvLO01C0ubC/tre9sb23mtbyzuoY7i2ura4jaKe3uIJVeKaCaJ2jlikVkkRmVlKkigD/BXor+mz/g5k/4JKaL/wAE9/2odJ+N/wADvDi6L+zB+0/ea3rGhaFptt5Wj/C/4p2TrfeMPANlHFvg0/w9qcN5F4n8F2Z+ywwWU2taBplmth4WWRv5k6ACv9gL/g3V/wCUM37D/wD2I/jb/wBWz4+r/H9r/YC/4N1f+UM37D//AGI/jb/1bPj6gD9UvjN8APgV+0b4YsfBP7QXwZ+Fnxx8G6Zrlt4m03wp8XPAHhX4i+HNP8R2djqOmWmv2Wi+LtK1fTbXWbXTdX1Wwt9ThtkvIbPUr+2jmWG7nST8jv8AgpR/wTX/AOCd3gX/AIJ3ft3eNvBP7CP7HvhDxl4Q/Y9/aS8TeFPFfhn9m34PaF4j8NeI9C+D3jDU9F1/QNa0zwfa6lpGs6RqVrbX+manYXNveWN5bw3NtNFNEjr+5tfBP/BVP/lGP/wUQ/7Mh/an/wDVIeN6AP8AFFooooA/1DP+Ddv9gH9hX42f8Eff2SfiZ8Y/2M/2WPit8RvEn/C8P+Eh8e/Ef4BfCzxr4y13+yf2ifizoml/2v4l8R+FtS1nUv7N0bTdP0qx+2Xk32TTrG0soPLtreGNP3V8Gf8ABOH/AIJ8fDjxX4f8d/D79hr9kTwN438J6rZ674W8YeEf2cvhD4c8T+HNa0+VZ7DV9C13SPCFnqek6nZTos1rfWN1Bc28qrJFKjAGvzi/4Njf+UIv7F//AHcB/wCtO/Gav3soAK/zb/8Ag9D/AOT6v2Yf+zWYf/Vp+P6/0kK/zb/+D0P/AJPq/Zh/7NZh/wDVp+P6AP436/XH/gg7/wApef2D/wDst+l/+mjV6/I6v1E/4Is+PPBvwv8A+Cov7HHxF+IXiTSPB/gbwT8Uh4m8V+KdfvYNN0bQdB0fw7rl9qWqalfXLpDbWtpawySyyOwAVcDJIBAP9gn9oD4+/Cf9l34OeP8A49fHDxhpvgX4X/DTw/eeI/FPiLU3bZBaWq4hs7G1jD3Wp6xql08Gm6No9hFPqGrapdWun2NvPdXEUbf5If8AwWa/4K9fFn/gq5+0Rd+KL6TVPCH7Ovw8v9V0n4DfCV7mRItK0J7qRP8AhNPFtrDcz2N38QvFNqlvNrNzC01vpNqlroGnTz21i97ffRX/AAXr/wCC3vjP/gqL8YJPhv8AC2/1fwx+xh8Ktenf4beF5oZdL1H4ka9bwtYz/FHxxaec7yXF0Hu4vB+jXIjHh7QbndNaw61qOrMf55KACv0Q/wCCZ/8AwTY+Pn/BTv8AaP8ADvwL+DOk3Vl4ft7rTtT+LXxTurCW48LfCjwI94sWo+ItYl328N3qs0C3EPhjw1Hdw33iLVUW1he2s4dQ1Gx4H9gf9g749/8ABRT9ovwf+zr8AvDV1qmsa3dQXni7xVNbSnwx8NvBUV1BFrnjjxfqA2Q2Wk6TBMDDA0q3msajJZ6LpMV1ql/aW0v+u9/wTb/4JyfAP/gmP+zhoP7P/wADtOku52kj134k/EXVYYl8U/E7x1NZ29tqXifW3jLraW223jtND0K2kNjoelwwWsRuLlry+vADuf2Ev2GPgJ/wTw/Z28I/s3/s9eHTpPhbw+h1DX9fvzFceKPH/jG8gt4tc8b+MNSjji/tDXdYe2iBCRw2Wm2EFlpGlWtlpVhZ2kP2PRRQB5r8Zfi14J+A3wm+I/xp+JGrw6F4C+FfgrxJ488W6tOyBbPQfC+lXWr6i8au8YmuHt7V47W3VxJc3LxW8QMkig/4uH/BQ39tj4kf8FBv2uPi9+1B8Sr28a48ceIruLwb4dnuWns/Avw60yea28FeC9LjDGCG20TRhAl3JbpGNS1eXUtYuFa81G5kf/Qn/wCDu39qrUPgl/wTg8PfArw7qEtlr/7VfxV0jwlq/wBnuHtbhvhx8P4l8ceKxFLF+9ZLrxBa+B9HvbcNHFdaZq19b3DPDI9vP/mA0AFelfCD4PfFD4/fEjwl8Ifgz4H8RfEb4leOdWt9E8LeEPC+nTalq+q39y2AEhiUrb2tvGHub/ULp4LDTrKKe9v7m3tIJpk81AJIABJJwAOSSegA7k1/qR/8GyP/AASQ8N/sV/sreHf2r/ip4atZ/wBqT9p3wrp/iZL2+iEt58M/g1r0dnrHg7wVpqygmw1bxDZCy8VeMZlS3u/tN3pvh65jH/CPNLdAH5z/APBPb/gzp8CWfhrQvH//AAUY+Kmva34u1C1tr+b4D/BbVLfR/DvhxpkMh0vxf8SZrW81PxHfxxypFqFr4QtNAsbC/t5VsfEmvWbx3Lf0F+EP+De//gjr4K0eDRdM/Ye+GupQQKgN54q1fx14w1ad0jWMyT6r4m8V6rfM0m3e6JOkPmMzLEucV+zVFAH87X7QP/Brf/wSG+N2k6hF4Z+Cfij4AeJ7xblofFvwb+Iniuzltp5maWFl8LeNNQ8ZeCBbwTOx8i28N2jtAxtlnjjjt/I/ik/4K2/8G437VX/BNPSdX+M3grVR+0j+y1ZT7tR+JHhrRJ9K8X/Dm3uLgR2a/E3wZHc6kbHTS0sVoni/Rb/UNCluFB1SPw7NeWNlN/rAVk69oOh+KtD1fwz4m0jTfEHh3xBpt7o2u6FrNlbalpGsaRqVtJZ6hpmp6feRzWt9YX1rNLbXVrcxSQTwSPFKjIxBAP8ABlor+gX/AIOJP+CVFp/wTP8A2xl1D4X6VPa/sy/tFW+s+Pfg+gWWS18HatZ30S+OPhcLh1UunhO81HTb/RAxkYeFte0S3lubq9s7+Qfz9UAFf7Pn/BGT/lFN/wAE/wD/ALNZ+EX/AKimn1/jB1/s+f8ABGT/AJRTf8E//wDs1n4Rf+opp9AH6aUUUUAFFFFABRRRQAUUUUAFFFFABRRRQAUUUUAFFFFABRRRQAUUUUAFFFFABRRRQAUUUUASp0P1/oKKE6H6/wBBRQBG3U/U/wA6Slbqfqf50lABRRRQAUUUUAFFFFABRRRQAUUUUAFFFFABRRRQAUUUUAFFFFABRRRQAUUUUAFFFFABX+fT/wAHsn/JT/2B/wDsR/jt/wCnz4a1/oLV/n0/8Hsn/JT/ANgf/sR/jt/6fPhrQB/DLSglSCpII6EEgj6Ec0lfXX7BHwB8NftU/tm/s1/s4eMNS1PR/DPxs+LfhD4bazq+itCmraVZ+K9Si0l9S083Ec1u13YtcrdQpPFJDI8QjlRo2YEA+RacoBZQzBFLAM5BIUE4LEKCxCjkgAk4wATX1l+3F+xt8Xv2B/2m/id+zB8atKey8WfD3WpILDWIoZE0bxp4UvR9q8L+NvDk75W60XxJpMlvfQYYz2Nw1zpWoR22qafe2sHyXQB/rl/8G+//AAT1/ZO/Y2/Yf+HHxN/Z/wDFeg/Gvxl+0j4Q8O/ED4g/tB2dikFx4ne9s0lh8FaDDcwpq3hzwr4KvWvdKPhvUhBq8fiCHV7rxBa2mqu+naf+8tf5kf8AwbGf8Fom/Yz+L1p+xR+0V4qMH7L/AMcvEyDwL4k1y8I074KfFrWGhtba5kup32ab4D8eXCW2m+IEYrp2ieIH0/xKx0+zuPE97c/6bSsrqroyujqGR1IZWVhlWVgSGVgQQQSCDkHFADqKKKAP4Kf+D2fx5fKn/BP/AOGdvNcx6bK37QHjbVoC2LS7vbcfCrRNBlCCXDXFhBceIVZpIcpHqKiKTDzKf4Ja/ui/4PZrS6T4i/sA3z2062Vx4O+P1rBdtFILaa5tNZ+Fkt1bxTlRHJNbR3lpJPEjF4kurdpFVZoy38LtAHvH7LPwhk/aC/aZ/Z6+BEMjwy/Gf42/C34VxzRyRQyRN4+8b6J4WEiTThoImQ6puWSYGJCN0g2g1/uLeEPC2heBvCfhnwX4Y0220bw34R0DR/DOgaRZqVtNL0XQ9Pt9M0zT7ZSWKwWdlbQ28QLMRHGuSTzX+Lj/AMEpfG2lfDr/AIKXfsHeMNdeGHRdJ/aw+BQ1e7uJmgg0/Tb/AOIugabe6pM6Q3DGPS7e8k1B4liLTLbGFXjLiRP9q8EMAwOQwBB9QRkH8RQAtFFFABRRRQB+CX/By1+zxo37QH/BIb9pO4utPF14k+CKeFvjr4LvBbG5k0vUfBGv2cHia5VERpVS5+Hur+MdPllR4ktxdi7nZoLeSN/8jyv9j7/gvH4/0r4a/wDBIb9vDxDrDRra6j8ENU8DQGWTy1Op/EvV9I+HmjqrbW3SNqviezEceB5j7ULKGLD/ABwaACv9gL/g3V/5QzfsP/8AYj+Nv/Vs+Pq/x/a/2Av+DdX/AJQzfsP/APYj+Nv/AFbPj6gD9rq+Cf8Agqn/AMox/wDgoh/2ZD+1P/6pDxvX3tXwT/wVT/5Rj/8ABRD/ALMh/an/APVIeN6AP8UWiiigD/XE/wCDY3/lCL+xf/3cB/6078Zq/eyvwT/4Njf+UIv7F/8A3cB/6078Zq/eygAr/Nv/AOD0P/k+r9mH/s1mH/1afj+v9JCv82//AIPQ/wDk+r9mH/s1mH/1afj+gD+N+jJHQ46j8CMEfiOD7UV9k/8ABPr9mLS/2zv2xfgZ+y7rHiG98J2nxq8UXfguLxNYQQ3U+g6le6Dq82jaq9nPtS+tbLVreyuL6wEttJe2ST2sV5ZyTJcxAHxtVzTra3vNQsbS7vodMtbq8tre51K4jnmt9Pt5pkjmvZ4bWKa5litY2aeSO3hlmdEKxRu5VT7p+1L+zP8AFn9jz4+/E79nD43eHp/DfxG+Fnia98Pa1aSJKLPUYImEuk+IdFuJYojf+HvEelS2et6FqKIsd9pd9a3Chd5UfP8AQB/sbf8ABFj/AIJ9fso/sG/sZ+ALb9mTxHpHxZPxn8OeG/iT44/aItYoWvPjJf6tpMNzp2p2LK0smj+DdLt7mS28K+FFmZdFglupdQN14gvtZ1C8/Xqv85X/AINYP+Czv/CivHel/wDBOT9pLxcYPg58Tddf/hnDxTrl5/ofw6+J+vXjSXHw7nurmTbZeFfiNqU5l0OJGS30zx1cuiwMPFd5dWf+jUCCMg5B5BHQj1oAKKKKAP8AO4/4PV/H93qP7Rv7FfwveSQ2XhH4N/EPxzBEVkES3Xj/AMZaboV06sZ2iaR4vh1aK4S2idVRDJNMrRpB/EtX9lf/AAejWF5H+23+yxqb28i2F3+zHNY210QPKmu7D4neMp7yBDnPmW8Wo2UkgIGFuYyCcnH8alAH2r/wTi+Amn/tQ/t5fsj/AAD1q3W68OfE34+fDbw/4tt2Yr5vgxvEtheeMUQhkJkPhm11URKHQtJtUOucj/bTtLWCxtbaytYo4LWzt4bW2giRY4oYLeNYoYo40ARI440VERQFVQAAABX+OP8A8EHfG2i+AP8Agrz+wfruvfZBY3vxw0vwfCb11jhGreP9I1fwLoJRmRx9qGt+ItP+xKFDPd+QisjMHX/ZAoAKKKKACiiigD+Zv/g7D/Z40r4xf8Em/GnxMayE3iX9mn4mfDj4n6Hcww773+zvEPiG1+FviSwWRVZxp76f46i1q/jysZbQLW4f/j1XH+VnX+uV/wAHMPjzSPAv/BGP9rddSkhN54xi+FXgnQbOS4Fu9/qutfGDwLLMluxjl8yWx0ay1bWGgCgzQ6bLH5kQYyp/ka0AFf7Pn/BGT/lFN/wT/wD+zWfhF/6imn1/jB1/s+f8EZP+UU3/AAT/AP8As1n4Rf8AqKafQB+mlFFFABRRRQAUUUUAFFFFABRRRQAUUUUAFFFFABRRRQAUUUUAFFFFABRRRQAUUUUAFFFFAEqdD9f6CihOh+v9BRQBG3U/U/zpKVup+p/nSUAFFFFABRRRQAUUUUAFFFFABRRRQAUUUUAFFFFABRRRQAUUUUAFFFFABRRRQAUUUUAFf59P/B7J/wAlP/YH/wCxH+O3/p8+Gtf6C1f59P8Aweyf8lP/AGB/+xH+O3/p8+GtAH8Mtfpp/wAEZP8AlKz/AME//wDs6b4Rf+pXp9fmXX6af8EZP+UrP/BP/wD7Om+EX/qV6fQB/okf8HFX/BHuy/4KTfszSfFH4SaBbt+13+z1ouq6z8OZbWGOO/8Aid4Mhjn1LX/hDez7oxcXV9Kr6r4Hku2eOw8SiWwjlsbPxHq1yP8AKOv7C90u+vNM1K0uLDUdOurixv7G7hkt7uzvLWV4Lm1uYJVWWG4t5o3imikVXjkRkYBgRX+9LX+dR/wdXf8ABHBvg5451D/gpN+zt4U8r4W/EzXYof2mPDeiWb/ZvA3xL1u5SGw+Jy21tG0Vp4e+ImoS/Y/Ety4ggsvHE1rcySXE/i8JagH8U6sysrKxVlIZWUkMrA5DKRggggEEHIPIr/TI/wCDYL/gs9F+118ItP8A2Gv2h/FIl/aU+B/hmKH4a+I9bvt+ofGT4SaHbRW1skt1dSGbUvHPgK1SKy1nez32teHlsteb7ZdWfiC7j/zNq9V+B3xs+Jf7OXxc+H/xx+D3ijUPBvxK+GXibTfFfhLxFpspjnstT02YSLHNH/q7zT72Ey2OqadcrLZ6lp1zdWN5DNbXEsbAH+63RX5d/wDBI7/gpl8NP+Co/wCyR4S+OPhWbT9H+JehRWfhL47fDiGcG98CfEmzsYH1EQW8kklzJ4V8RqTrfhHVGaWO60y4axnmGr6Vq1pafqJQB/Gx/wAHnHwIvPGX7GP7NXx/07T/ALbJ8FPjlqvhDWbiKDfNpPhr4weFna41GabZ+409/Enw+8LaXMBKvm32paavlyY3xf5u1f7ZX/BSz9kbTv26v2GP2kf2XLwWyal8Tfh1qUHg68u1DW+l/EPw9Lb+KPh7qkxLxssFj4y0XRZ7vZLE0lmtxCXCSNn/ABWPGHhLxF4C8WeJvA/i/SL3QPFfg7X9X8L+JdD1KBrbUNH17Qb+40vVtMvrd/ngu7G+tZ7a4ib5o5YmU8igDL0rVL/RNU03WdLuprLU9Jv7TU9PvLaRobi0vrG4jurW5glQh45oJ4o5I5EIZHUMCCBX+0n/AMErv24fCv8AwUM/YZ+BX7SmhahYz+JNe8KWPh34r6NaSQCXwt8XPC9tBpXj3RLqzhbfYwyavE+s6IlxFbyXnhrVtF1NIUt76HP+K7X7k/8ABED/AILO/ED/AIJM/HDUG1rT9X+IH7LnxVutOtvjP8M9PmjOrWE1ofIsfiL4AS8ubawh8Z6FbPLBNp93cWum+KtJZ9I1G5s7mHR9Z0cA/wBeeivmH9lH9sv9mj9tz4XaR8X/ANmT4t+E/ij4P1S2tZbtdE1GH/hIPDF7dQmb+w/GfhmZo9d8J6/Aqv52ka7Y2V3sUTxRy20kU0n09QAUUEgAknAHJJ6Aepr8QP8AgrP/AMF0v2T/APgmD4E17RrnxJonxc/ajvNMdfA/wA8La1a3Oq2uoXUTfYNa+JV9Zm7XwP4XgYrcv/aEf9taxEvk6Jpt0pnurQA/Dr/g8d/b10TQPhN8IP8Agnv4L1qC48X+PvEGnfGr4y21lcRSy6N4H8Mfb7PwD4d1WJWfyn8U+J5rnxKsDrFdwReDdNuDi11OIzf56de5ftKftG/Fz9rb45fEb9oj46eKrvxl8UPih4guPEHiXWro7I1ZkjttP0nS7Rf3Om6FoOmQWejaFpNqqWml6TY2djbRpDAijw2gAr/YC/4N1f8AlDN+w/8A9iP42/8AVs+Pq/x/a/2Av+DdX/lDN+w//wBiP42/9Wz4+oA/a6vgn/gqn/yjH/4KIf8AZkP7U/8A6pDxvX3tXwT/AMFU/wDlGP8A8FEP+zIf2p//AFSHjegD/FFooooA/wBcT/g2N/5Qi/sX/wDdwH/rTvxmr97K/BP/AINjf+UIv7F//dwH/rTvxmr97KACv82//g9D/wCT6v2Yf+zWYf8A1afj+v8ASQr/ADb/APg9D/5Pq/Zh/wCzWYf/AFafj+gD+N+v1x/4IO/8pef2D/8Ast+l/wDpo1evyOr9cf8Agg7/AMpef2D/APst+l/+mjV6AP7oP+DmX/gjcv7dnwGb9qz4C+F1uf2rf2evDl7Pf6TpFmJNV+M3wksBNqWqeEDDbwtdan4s8JE3mueCI4y896lxrnh2O3u7rVdKNj/l4Ojxu8ciskiMyOjgq6OpKsrKQCrKwIYEAgggjNf71pAYFWAZWBDKQCCCMEEHggjgg8EV/mb/APB0V/wRx/4ZH+M037cn7PvhU237OPx78Syj4k+H9FtFXTPhH8ZdWa4vbl4rS2jVdM8GfENo7nVNKKobDSPEy6ro2+xttQ8N2EgB/I9bXNxZ3FveWk8ttdWs0VzbXMEjRT29xA6ywzwyoVeOWKRVeORGDI6hlIIBr/Uv/wCDbT/gszD/AMFBvgIn7OHx28SRy/td/s/+HbK21DUdRuF+2/Gb4Y2TRaZo/wAQYGlbzbrxPooay0Tx8hMslzfSad4lEp/t65tNN/yyq+hP2Vv2nfi5+xv8ffhr+0f8DvEc/hn4jfDDxFaa7pFyjSGx1O1RjDq3h3XLWOSIaj4e8RaZJdaPrenSOEu9PvJ4wyOUkQA/3LKK+AP+CaP/AAUH+Ef/AAUt/ZT8CftI/Cy5gsr7UrdND+JngR7uO41f4bfEjTbeD/hIvCmqKu2RoEllj1DQtQeKFdY0C907UkiiNw8EP3/QB/DV/wAHq3wLu9T+Ff7Ff7SVjZt9j8H+OfiP8G/Et8iswaTx9omj+MPCMMpwRGsH/Cv/ABeYzlQz3bKdx2Y/z5K/2bv+Cyf7E4/b9/4J1/tE/s/aXZQXfj+bwt/wnnwkklR2kg+J/wAP5R4l8MWlu6EmA+I2s7vwhdXHlzeTp/iG8kEMjBVr/Gc1CwvdKv73TNStZ7HUNOu7ixvrK6ikt7m0vLSZ4Lm2uIJVSWGeCaN4pYpEV43VldQwIoA6P4f+OPEfwy8d+C/iP4O1GfR/FvgHxX4f8Z+GNWtWKXOmeIPDOrWmtaPf27ggrNaahZW88bAgh4wQR1r/AGx/2Dv2ufAP7dP7JXwQ/ah+HV7az6R8UPBOmanrGmQS+ZN4W8Z2kQ07xr4P1BSzvHf+GPE9rqekT7mZbhbWO8t5JrW5gnk/xCq/oa/4IM/8FxvFf/BKv4m6p8PPihba746/Y++K2r2t5488KaXILrW/hz4o2Q2SfEzwPY3MsdvcXLWMUVl4r0BZrT/hINOtbGeO4XUdIso5wD/WWorwT9nH9qH9n/8Aa4+GWifGD9nL4q+EPiz8P9ehR7bW/CuqwXj2VyY1km0rXdNLJqfh/XLPeEv9E1qzsdTspMx3NrG2M+90AFFBIAJJAAGSTwAB1JPYCv59P+CxP/Bf/wDZj/4Jq+B/EvgHwF4j8N/G39sDUtPv9O8LfCfw1q1rq+mfD3V5IJIoPEXxi1HTbiWPw3Y6XM0V3H4SeaLxX4gJt4Le00/TLi412wAPwP8A+DyL9vnRde1j4J/8E7/AmtW99deDNSt/jv8AHRLG5WQ6Xr17o1/o3wu8JX/kSZivI9A1rxD4s1PTLxDm01nwdqUa5aNx/CVXpXxi+L/xG+PvxS8efGf4ueKtT8a/En4leJtU8W+MfE+ryiW91XWtXuXubmXaipBa2sO5bawsLSKCx06xht7Gxt4LS3hhTzWgAr/Z8/4Iyf8AKKb/AIJ//wDZrPwi/wDUU0+v8YOv9nz/AIIyf8opv+Cf/wD2az8Iv/UU0+gD9NKKKKACiiigAooooAKKKKACiiigAooooAKKKKACiiigAooooAKKKKACiiigAooooAKKKKAJU6H6/wBBRQnQ/X+gooAjbqfqf50lK3U/U/zpKACiiigAooooAKKKKACiiigAooooAKKKKACiiigAooooAKKKKACiiigAooooAKKKKACv8+n/AIPZP+Sn/sD/APYj/Hb/ANPnw1r/AEFq/wA+n/g9k/5Kf+wP/wBiP8dv/T58NaAP4Za/TT/gjJ/ylZ/4J/8A/Z03wi/9SvT6/Muv00/4Iyf8pWf+Cf8A/wBnTfCL/wBSvT6AP9nyuB+Knwv8B/Gz4b+N/hJ8UPDWmeMPh78RfDOr+EPGHhnWLdLnT9Y0HXLOWxv7OeNh8paGZmhmjKTW06x3EEkc0Ubr31FAH+Nz/wAFlf8Agl548/4JZfteeI/hJfw6nrHwY8bG+8afs+/EG5hd7fxR4CuL1k/sW/vkijtD4w8FTyR6J4oskEU27+ztbS1g0zXtMaX8la/2ZP8Agr1/wTL+Hn/BUj9kTxZ8D9fXTNE+KPh9bnxh8CPiLdWoe48FfEaxspksorq5ije8/wCEV8URE6F4rsYhKkthcRanFay6ppGlyQ/48fxg+EfxE+AnxR8efBn4s+F9R8GfEj4a+J9W8IeMfDOqxql5pWt6LdyWl3CXjaSC5tpGjE9lfWks9lqFnLBe2VxPazwzOAfob/wSA/4Kf/En/glj+1p4a+M3h59S134TeKHsvCXx8+GlvcbbXxt8Pri6zNd2dvLIlqni/wAJSTSa74R1B3geO+in0m4uU0fWdWguP9g34L/GP4c/tB/Cj4f/ABs+EfifT/GPw2+J3hbSPGHg/wAR6bIWt9R0bWbSO7tjJG4Wezvbfe1rqOnXccN9pt/Bc2F9BBd280Kf4Ttf2Bf8GvP/AAWjb9lT4oaf+wP+0f4rMH7Ofxm8TE/CHxXrt4Tp/wAHPizrkqRpo891cPjTPAfxGvmit7sbv7O0DxhNa608VlZ654n1RAD/AErq/wA8v/g6z/4I36t4G8e6t/wUw/Z18Iz3ngDx7dWkf7UfhrQLB5R4N8cyKtlZ/FsWdnF5dt4c8ZBLSy8X3Xlotn4wKa1ez3Eviq5e0/0M1ZWUMpDKwDKykFWUjIII4II5BHBHIrB8V+FPDPjrwzr/AIL8Z6BpHirwl4q0fUPD/iXw1r+n2uq6Jr2h6tay2Wp6Tq2m3sc1pfaff2k0ttdWtxFJDNDI6OhUkUAf4N1Ff2k/8Fn/APg1k+Jvwe1vxX+0X/wTe8Nar8T/AIM3TTaz4j/ZxsJLzWPih8OXfdLeN8PIp2nv/iH4UWTc1vosMk/jPSkkitoLXxDbRzXtp/GTrOi6x4c1bUdB8QaVqOh63o97dabq2j6vZXOm6ppmo2M8lre2GoWF5HDdWd5aXMUtvc21xFHNBNG8UiK6MoAPSfgz8ffjf+zp4vtvH/wF+LfxF+DvjS0Xy4vE3w38Ya94O1d7curyWdzeaFfWUt3YTlFW6sLozWd1HmK4gljZkP7LeA/+Dm3/AILOeBNIj0Rf2rovFtnbw28FnN42+Evwf8QarbJAJAxfXJfA8Os6lLcb1M8+sX+ozEwxmOSMtKZPwNooA/ZH46f8HAX/AAV5/aE0u+0Hxr+2j8RNA0G/iltptK+FOm+Efg6DZzqyTWcmq/DLw94W1+7t5UkkjlW/1e6eWNzFI7RBUX8fdU1TU9b1G91fWdRvtW1bUrqe+1HU9Su577UL+9upXnubu8vLmSW4ubm4mkeWeeaR5ZZHZ3ZmYk0K9S+DPwR+Ln7Q/wAQ/Dvwn+B/w78W/FH4i+Kr2Kw0Pwl4M0W91vVruWR1Rp3gs4pBaWFqrGfUNTvGt9P060SW7vrm3toZZUAPObHTtQ1OaS302xu9QnhtL7UJYbK2mupYrHTLOfUNSvZI4Ed0tbCwtri9vbhgIra0gmuJnSKN3FOv739E/wCCDPh//gmX/wAEU/28fj58fItI8Wfto/ET9m/VNP1NrSW31Tw98D/C2o6xoVxc+B/Cd9GJINR8TX/lQp4z8W2rtBKYv+Ef8PyHR4r7UvEP8EFABX+wF/wbq/8AKGb9h/8A7Efxt/6tnx9X+P7X+wF/wbq/8oZv2H/+xH8bf+rZ8fUAftdXwT/wVT/5Rj/8FEP+zIf2p/8A1SHjevvavgn/AIKp/wDKMf8A4KIf9mQ/tT/+qQ8b0Af4otFFFAH+uJ/wbG/8oRf2L/8Au4D/ANad+M1fvZX4J/8ABsb/AMoRf2L/APu4D/1p34zV+9lABX+bf/weh/8AJ9X7MP8A2azD/wCrT8f1/pIV/m3/APB6H/yfV+zD/wBmsw/+rT8f0Afxv1+uP/BB3/lLz+wf/wBlv0v/ANNGr1+R1frj/wAEHf8AlLz+wf8A9lv0v/00avQB/sf145+0H8BPhf8AtQfBb4j/AAB+M/hmz8XfDL4p+GNQ8KeK9DvFH72yvowYb2ynA82w1fSbxLbVdF1S2aO80vVbOzv7SWK5t4pF9jooA/xaf+Cpf/BOj4pf8Exv2tvHP7OvxAiutT8MiWTxP8HviAbcxaf8Rvhfqd3cLoGvwEKI4tVs/Jm0TxRpyk/2b4i03UIIXubA2V7d/nLX+wl/wXC/4JT+FP8Agqd+yNrHgvTLPS9O/aL+FcOr+Mv2d/Gd4EtzbeKGs0OpeBdWv9pkh8KfECGytNK1Qt5kOn6lb6Lr5guJNHW3m/yFvHPgjxb8NPGfiv4eePfD+qeFPG3gfxDq/hTxb4Z1u0msNX0DxFoN9Ppmr6RqVlcIk1re2F9bT21xDKiukkbAigD9gv8Aghz/AMFZvF3/AASu/au03xPrFxqWs/s1/Fe40nwn+0H4JtmknZdBF2V074heH7MEo3izwJJdXN/aQhQda0ibV9AeS3fUbe/sf9djwF488H/FHwT4T+I/w+8RaX4t8DeOfD+k+KvCXifRLuK+0nXvD+uWUOoaVqmn3cLNHPa3lnPFNE6n7rYIDAgf4Plf26f8Gq3/AAWd/wCFX+KtJ/4Jp/tKeLvL+HfjrV5f+GWvFmu3m238H+PNZu3uL34R3V5dSCK30HxxfzzX3g5C0YtPGVxc6PEty3iizSxAP9Dyv81z/g6W/wCCOWu/s6/GzxB/wUG+AvhW7vPgD8cvELaj8atK0TTzJa/CX4v6zKDf+IL2O1QvZ+EfibqLyap/aVwptNP8bXeo6bcXVuut+H7J/wDSjrifiR8N/Anxg8B+Lfhf8T/Cmi+OPh9470LUfDPi7wl4isotR0bXtD1W3e1v9Pv7SZWSSKaGRgGG2SJwssLxyojqAf4QtFf18f8ABZT/AINd/jh+zL4h8W/Hz9gfw5r/AMcv2cr251DXtS+EejxXWtfFz4OWssrXEunabpga41P4j+DbEOV07UdLW78V6dYqIdc02+jsrjxFefyJX9hfaVe3Wm6nZXWnahYzy2t7Y31vLaXlpcwSNFPb3NtOkc0E8MqNHLFKivG6srKGBFAHtHwH/ab/AGhv2XvFX/Cb/s7fGr4mfBbxSyxx3Or/AA48Y654Un1C3iLslnq0ek3ltb6vYZkk32Gpw3dnIJHDwMHYH9ivBv8Awc8/8FnvB+kRaM37VGn+KYLZUjtbvxb8HPg3quqxRICNkuqx+BrS/wBQZydz3GqT310TgCcIAo/AKigD9efj9/wXl/4K1/tJ6ZfaD8Rf20/ihpnh+/8AtEVxonwvj8OfBqzksbl2Z9Lup/hTofg/UtT0/wAtjbPDq99ftc22YruS4DyF/wAjbm6ub24mu7y4nu7q5kea4ubmWSe4nmkYtJLNNKzSSyOxLO7szMxJJJNQV7n+zt+zT8dv2sfij4e+DP7O/wAMfFfxW+I3ia5SDTvD3hXTJr14Id6LcaprF7hdP0LQ7BHE+p65rF1ZaVptsr3F7dwwozgA8Wt7G9u4b64tbO6uYNMtkvdSmt4JZorCzkvLXT47u9kjRktbZ7++srJJ5ikbXd3bW4YyzxI1Wv7t/wBpD/giB4P/AOCVH/Bvj+3D46+I0+h+Of2wPixo37Odr8RfGenQmfSvAHhpv2nvgffj4V+B7yf97NpcGqQR33iXXo4bKTxRqlrYM9utho+lon8JFABX+z5/wRk/5RTf8E//APs1n4Rf+opp9f4wdf7Pn/BGT/lFN/wT/wD+zWfhF/6imn0AfppRRRQAUUUUAFFFFABRRRQAUUUUAFFFFABRRRQAUUUUAFFFFABRRRQAUUUUAFFFFABRRRQBKnQ/X+gooTofr/QUUARt1P1P86Slbqfqf50lABRRRQAUUUUAFFFFABRRRQAUUUUAFFFFABRRRQAUUUUAFFFFABRRRQAUUUUAFFFFABXw3+19/wAE2f2Jv29NR8E6t+1p8CNB+MeofDmz1rT/AAXc6zrni/R20Oz8QzafcaxDAvhjxDokc63s2lWDu12lw6G3URNGGcN9yUUAfij/AMQ6v/BGb/ox/wAD/wDhbfFn/wCb6vQ/hL/wQs/4JTfAv4meB/jD8Kv2QvCHhD4kfDfxJpfi/wAFeJ7Pxb8S7u60LxHot0l5pmpwWup+Nb3T55bS5jSVIry0uLdyoEkTrlT+tdFABRRRQAV+aX7TX/BHr/gm3+2J8VNQ+Nv7Rv7K/gn4j/FPV9L0rR9X8Y3GreMtA1LVrLQ7f7FpX9qJ4V8S6HZ6jdWViIrCLULy2mv/ALBbWdk9y1tZ2sUP6W0UAfij/wAQ6v8AwRm/6Mf8D/8AhbfFn/5vqcn/AAbsf8EaI3V0/Yh8Eo6Mro6eN/i0ro6kFWVh4/BVlIBVgQQQCDmv2sooAwfC3hvSfBvhnw94R0GO7h0Pwvoml+HtHi1DVNT1u+j0vRrGDTrCO91nW7zUNY1a6S1t4luNR1W/vdRvZQ9ze3VxcSSSvvUUUAFfm5+2f/wSN/4J7ft9JPe/tJfs3+DPEfjKSHyoPid4ZS78CfE63KJItsZfGvhC40jWNYt7RpHkt9M8QzaxpCyMWfT5MkH9I6KAP4t/jP8A8GW/7KHiS9u7v4Efta/G74VQXDSyQab8QPCnhD4uWVi8isUitpNJm+FuoPaQyldkd3e3N00C+XJevKTcV8nL/wAGSfio635D/wDBQ7QR4d3N/wATRf2a79tY2i3LIf7EPxrSz3G62wsv9vYWAm4DO4Fu39/NFAH8a3wH/wCDMf8AYz8G39hqXx//AGl/jh8bDZC2km0XwfpHhf4P+HdVuIyPtMepRN/wsHxEum3A3bbfS/E2l38BKkao4Vg/9M37I37AP7Hf7CnhVvCP7K3wC8BfCW1ubW3s9Y17R9M+3+N/E0VqS0H/AAlfj3WZNR8YeJTDI0ksC6zrV5FbPLJ9mjhVytfYdFAHl3xq+C/wy/aI+FnjX4K/GTwraeN/hj8RNHk0Dxl4UvrrUbK01vSJpYp5LOe60m8sNRgRpYIn32l5bygoAJACQfyi/wCIdX/gjN/0Y/4H/wDC2+LP/wA31ftdRQB+KP8AxDq/8EZv+jH/AAP/AOFt8Wf/AJvq/VD4DfAb4Tfsx/Cbwd8DPgZ4Os/AHwq8AWd5p/hDwhp95ql/Z6NZ3+qX2s3cMN3rN9qWpzCbU9Svbpmur2d1edkRljVEX16igArifiV8OvBnxf8Ah347+E/xG0ODxP8AD74meDvEvgHxx4bup7u2ttf8I+L9HvNA8R6NcXNhcWl9BDqekahd2Us1ndW11GkzPBPFKFde2ooA/FH/AIh1f+CM3/Rj/gf/AMLb4s//ADfUf8Q6v/BGb/ox/wAD/wDhbfFn/wCb6v2uooA8U/Z2/Z1+DP7J/wAHvCPwD/Z98D2Pw4+EfgT+3P8AhFPBum3urajZaP8A8JJ4i1bxZrfk3muahqmqTfbvEGu6rqUn2m+n2SXjxw+XAkcSe10UUAFfAH7W/wDwS3/YM/br8Z+HPiF+1b+z14e+L/jHwl4bHhDw9reseIPGukT6b4cXUr7WBpkcPhnxLotpJENR1K9ufNnt5bjdOy+b5aoi/f8ARQB+KP8AxDq/8EZv+jH/AAP/AOFt8Wf/AJvq9R+C3/BD3/gln+zv8U/BXxq+Df7JPhHwR8Tvh3rEev8Ag3xXY+K/iTe3eiavDFLBHewWureM7/Tp3WKeVQl3Z3ER3kmMkAj9XaKACiiigAr8uv2gv+CLX/BMP9qb4r+Jvjh8df2SfAnjj4p+M3spfFXi06x428PXeu3On2NvptteajaeF/E+i6bcX4srS2gmv3svtl0IUa5mmcbq/UWigD8Uf+IdX/gjN/0Y/wCB/wDwtviz/wDN9Vuw/wCDeT/gjnpd9Z6lpv7FXg+w1HT7qC9sL6z8efF23u7O8tZUntrq2uIviAksFxbzIksM0bK8ciK6MGANftHRQBUsLKDTbGy061Nw1tYWtvZ25u7u71C6MFrEkMRub6/mub29nKIvm3V5cT3VxJulnmkldna3RRQAEAggjIPBB6Eehr8uf20f+CMv/BOP9ve4v9d/aB/Zu8J3PxCvkO74r+BHvPh38SjcBDFFd6l4l8JTaa/iiS2jJS3t/GNt4hsIhjFnlE2/qNRQB/FF8YP+DK79mfX7+5uPgX+2R8ZfhnYzbng0/wCI/gLwh8W/skjzBzHHdaDqXwllktY4t0MMcwe5HySTXczK2/5lt/8AgyS8TtrE0F1/wUQ0OLQV8z7PqMH7NN9Pq0uAPK83R5Pjbb2kG9siTZrU/lgBl8wnaP796KAP48PgD/wZp/sOeBb6z1T4/fH745fHiazkikfQ9Bg8O/CLwlqQR90kOp2ljH4u8VGCVQExpnjLS50yxE5JXb/TX+y1+xN+yj+xT4PbwL+y18Cfh98GtBuFgGqSeFdGjXX/ABBJaoYre58U+LL973xR4ovIYyY47zxBrGpXKIdiyheK+pKKAPFP2if2dfgz+1h8HvF3wD/aC8D2PxH+Efjv+w/+Er8G6le6tp1lrH/CN+ItJ8WaJ515oeoaXqkP2HxBoWlalH9mvoN8lmkc3mQPJE/5ef8AEOr/AMEZv+jH/A//AIW3xZ/+b6v2uooA/FH/AIh1f+CM3/Rj/gf/AMLb4s//ADfV+tfwl+FPw/8AgZ8NPA/we+FXhy28IfDf4b+G9L8IeCvDFncX13a6F4d0W1Sz0zTILnU7q91CeK0to0iSW8u7idwuZJXbJr0OigAooooAKKKKACiiigAooooAKKKKACiiigAooooAKKKKACiiigAooooAKKKKACiiigAooooAlTofr/QUUJ0P1/oKKAI26n6n+dJSt1P1P86SgAooooAKKKKACiiigAooooAKKKKACiiigAooooAKKKKACiiigAooooAKKKKACiiigAooooAKKKKACiiigAooooAKKKKACiiigAooooAKKKKACiiigAooooAKKKKACiiigAooooAKKKKACiiigAooooAKKKKACiiigAooooAKKKKACiiigAooooAKKKKACiiigAooooAKKKKACiiigAooooAKKKKACiiigAooooAKKKKACiiigAooooAKKKKACiiigAooooAKKKKAJU6H6/0FFCdD9f6CigCNup+p/nSVKUySc9Tnp/8AXpPL9/0/+vQBHRUnl+/6f/Xo8v3/AE/+vQBHRUnl+/6f/Xo8v3/T/wCvQBHRUnl+/wCn/wBejy/f9P8A69AEdFSeX7/p/wDXo8v3/T/69AEdFSeX7/p/9ejy/f8AT/69AEdFSeX7/p/9ejy/f9P/AK9AEdFSeX7/AKf/AF6PL9/0/wDr0AR0VJ5fv+n/ANejy/f9P/r0AR0VJ5fv+n/16PL9/wBP/r0AR0VJ5fv+n/16PL9/0/8Ar0AR0VJ5fv8Ap/8AXo8v3/T/AOvQBHRUnl+/6f8A16PL9/0/+vQBHRUnl+/6f/Xo8v3/AE/+vQBHRUnl+/6f/Xo8v3/T/wCvQBHRUnl+/wCn/wBejy/f9P8A69AEdFSeX7/p/wDXo8v3/T/69AEdFSeX7/p/9ejy/f8AT/69AEdFSeX7/p/9ejy/f9P/AK9AEdFSeX7/AKf/AF6PL9/0/wDr0AR0VJ5fv+n/ANejy/f9P/r0AR0VJ5fv+n/16PL9/wBP/r0AR0VJ5fv+n/16PL9/0/8Ar0AR0VJ5fv8Ap/8AXo8v3/T/AOvQBHRUnl+/6f8A16PL9/0/+vQBHRUnl+/6f/Xo8v3/AE/+vQBHRUnl+/6f/Xo8v3/T/wCvQBHRUnl+/wCn/wBejy/f9P8A69AEdFSeX7/p/wDXo8v3/T/69AEdFSeX7/p/9ejy/f8AT/69AEdFSeX7/p/9ejy/f9P/AK9AEdFSeX7/AKf/AF6PL9/0/wDr0AR0VJ5fv+n/ANejy/f9P/r0AR0VJ5fv+n/16PL9/wBP/r0AR0VJ5fv+n/16PL9/0/8Ar0AR0VJ5fv8Ap/8AXo8v3/T/AOvQBHRUnl+/6f8A16PL9/0/+vQBHRUnl+/6f/Xo8v3/AE/+vQBHRUnl+/6f/Xo8v3/T/wCvQBHRUnl+/wCn/wBejy/f9P8A69AEdFSeX7/p/wDXo8v3/T/69AEdFSeX7/p/9ejy/f8AT/69AEdFSeX7/p/9ejy/f9P/AK9AEdFSeX7/AKf/AF6PL9/0/wDr0AR0VJ5fv+n/ANejy/f9P/r0AR0VJ5fv+n/16PL9/wBP/r0AR0VJ5fv+n/16PL9/0/8Ar0AR0VJ5fv8Ap/8AXo8v3/T/AOvQBHRUnl+/6f8A16PL9/0/+vQBHRUnl+/6f/Xo8v3/AE/+vQBHRUnl+/6f/Xo8v3/T/wCvQAqdD9f6CinKNoxnPOaKAP/Z;" vertex="1" parent="1">
          <mxGeometry x="470" y="399.14" width="180" height="111.73" as="geometry" />
        </mxCell>
        <mxCell id="Jegls9Esf1QxolKxggTZ-24" value="" style="curved=1;endArrow=classic;html=1;entryX=0.75;entryY=0;entryDx=0;entryDy=0;exitX=0.5;exitY=1;exitDx=0;exitDy=0;" edge="1" parent="1" source="Jegls9Esf1QxolKxggTZ-15" target="Jegls9Esf1QxolKxggTZ-16">
          <mxGeometry width="50" height="50" relative="1" as="geometry">
            <mxPoint x="220" y="370" as="sourcePoint" />
            <mxPoint x="270" y="320" as="targetPoint" />
            <Array as="points">
              <mxPoint x="490" y="310" />
              <mxPoint x="350" y="330" />
              <mxPoint x="230" y="340" />
            </Array>
          </mxGeometry>
        </mxCell>
        <mxCell id="Jegls9Esf1QxolKxggTZ-25" value="" style="curved=1;endArrow=none;html=1;entryX=1;entryY=0.25;entryDx=0;entryDy=0;exitX=0.696;exitY=1.066;exitDx=0;exitDy=0;exitPerimeter=0;startArrow=classicThin;startFill=1;endFill=0;" edge="1" parent="1" source="Jegls9Esf1QxolKxggTZ-15" target="Jegls9Esf1QxolKxggTZ-16">
          <mxGeometry width="50" height="50" relative="1" as="geometry">
            <mxPoint x="495" y="209.9999999999999" as="sourcePoint" />
            <mxPoint x="226.37446545202943" y="424.7109013823663" as="targetPoint" />
            <Array as="points">
              <mxPoint x="500" y="320" />
              <mxPoint x="430" y="340" />
              <mxPoint x="360" y="350" />
              <mxPoint x="310" y="360" />
              <mxPoint x="260" y="370" />
            </Array>
          </mxGeometry>
        </mxCell>
        <mxCell id="Jegls9Esf1QxolKxggTZ-26" value="Бинарник" style="text;html=1;align=center;verticalAlign=middle;resizable=0;points=[];autosize=1;rotation=-5;" vertex="1" parent="1">
          <mxGeometry x="275" y="310" width="70" height="20" as="geometry" />
        </mxCell>
        <mxCell id="Jegls9Esf1QxolKxggTZ-27" value="ContentId" style="text;html=1;align=center;verticalAlign=middle;resizable=0;points=[];autosize=1;rotation=-10;" vertex="1" parent="1">
          <mxGeometry x="344" y="350" width="70" height="20" as="geometry" />
        </mxCell>
        <mxCell id="Jegls9Esf1QxolKxggTZ-28" value="" style="shape=image;verticalLabelPosition=bottom;labelBackgroundColor=#ffffff;verticalAlign=top;aspect=fixed;imageAspect=0;image=data:image/png,iVBORw0KGgoAAAANSUhEUgAAA+gAAAPkCAIAAAC1A4PIAAAAGXRFWHRTb2Z0d2FyZQBBZG9iZSBJbWFnZVJlYWR5ccllPAAAAyhpVFh0WE1MOmNvbS5hZG9iZS54bXAAAAAAADw/eHBhY2tldCBiZWdpbj0i77u/IiBpZD0iVzVNME1wQ2VoaUh6cmVTek5UY3prYzlkIj8+IDx4OnhtcG1ldGEgeG1sbnM6eD0iYWRvYmU6bnM6bWV0YS8iIHg6eG1wdGs9IkFkb2JlIFhNUCBDb3JlIDUuNS1jMDIxIDc5LjE1NTc3MiwgMjAxNC8wMS8xMy0xOTo0NDowMCAgICAgICAgIj4gPHJkZjpSREYgeG1sbnM6cmRmPSJodHRwOi8vd3d3LnczLm9yZy8xOTk5LzAyLzIyLXJkZi1zeW50YXgtbnMjIj4gPHJkZjpEZXNjcmlwdGlvbiByZGY6YWJvdXQ9IiIgeG1sbnM6eG1wPSJodHRwOi8vbnMuYWRvYmUuY29tL3hhcC8xLjAvIiB4bWxuczp4bXBNTT0iaHR0cDovL25zLmFkb2JlLmNvbS94YXAvMS4wL21tLyIgeG1sbnM6c3RSZWY9Imh0dHA6Ly9ucy5hZG9iZS5jb20veGFwLzEuMC9zVHlwZS9SZXNvdXJjZVJlZiMiIHhtcDpDcmVhdG9yVG9vbD0iQWRvYmUgUGhvdG9zaG9wIENDIDIwMTQgKE1hY2ludG9zaCkiIHhtcE1NOkluc3RhbmNlSUQ9InhtcC5paWQ6QjcwQTI4MUU0OUQzMTFFNUE1M0ZDNzQ5MzhFMTdEMUIiIHhtcE1NOkRvY3VtZW50SUQ9InhtcC5kaWQ6QjcwQTI4MUY0OUQzMTFFNUE1M0ZDNzQ5MzhFMTdEMUIiPiA8eG1wTU06RGVyaXZlZEZyb20gc3RSZWY6aW5zdGFuY2VJRD0ieG1wLmlpZDpCNzBBMjgxQzQ5RDMxMUU1QTUzRkM3NDkzOEUxN0QxQiIgc3RSZWY6ZG9jdW1lbnRJRD0ieG1wLmRpZDpCNzBBMjgxRDQ5RDMxMUU1QTUzRkM3NDkzOEUxN0QxQiIvPiA8L3JkZjpEZXNjcmlwdGlvbj4gPC9yZGY6UkRGPiA8L3g6eG1wbWV0YT4gPD94cGFja2V0IGVuZD0iciI/PvGLfVIAAOkRSURBVHja7N0HmCRlnfjxequqc5rpyXFnZvMuLBmWnIOAIKJiOvWvp3cqeJ5yepgTcmaPOz0883modwZERUBBQYLEJbM5zOxOnumZzt1VXfX+q2c9RdwweTp8P/jwLMuG7t+2Nd8q3npLXPY/lygAAAAASpvKCAAAAADCHQAAAADhDgAAABDuAAAAAAh3AAAAAIQ7AAAAQLgDAAAAINwBAAAAEO4AAAAA4Q4AAACAcAcAAAAIdwAAAACEOwAAAADCHQAAACDcAQAAABDuAAAAAAh3AAAAgHAHAAAAQLgDAAAAINwBAAAAwh0AAAAA4Q4AAAAQ7gAAAAAIdwAAAACEOwAAAEC4AwAAACDcAQAAABDuAAAAAOEOAAAAgHAHAAAACHcAAAAAhDsAAAAAwh0AAAAg3AEAAAAQ7gAAAAAIdwAAAIBwBwAAAEC4AwAAACDcAQAAAMIdAAAAAOEOAAAAEO4AAAAACHcAAAAAhDsAAABAuAMAAAAg3AEAAAAQ7gAAAADhDgAAAIBwBwAAAAh3AAAAAIQ7AAAAAMIdAAAAINwBAAAAEO4AAAAACHcAAACAcAcAAABAuAMAAAAg3AEAAADCHQAAAADhDgAAABDuAAAAAAh3AAAAAIQ7AAAAQLgDAAAAINwBAAAAEO4AAAAA4Q4AAACAcAcAAAAIdwAAAACEOwAAAADCHQAAACDcAQAAABDuAAAAAAh3AAAAgHAHAAAAQLgDAAAAINwBAAAAwh0AAAAA4Q4AAAAQ7gAAAAAIdwAAAACEOwAAAEC4AwAAACDcAQAAABDuAAAAAOEOAAAAgHAHAAAACHcAAAAAhDsAAAAAwh0AAAAg3AEAAAAQ7gAAAAAIdwAAAIBwBwAAAEC4AwAAACDcAQAAAMIdAAAAAOEOAAAAEO4AAAAACHcAwEKwpc0QAIBwBwCULuH8pSjZQsaS1v5vAwAIdwBAyZHOX4pycsspXs3DdXcAINwBACUqY6Z9bt/fH3V1i69twphgIABAuAMASo4QYiwztrZhXVtd6/raI5NGwvkexgIAhDsAoLTY0tZU7fzu851vn9J0apOvOVvIMhYAINwBACVEKGIsM3pk44ZTWk9TCsr62iM2Np0ymhvhojsAEO4AgNIq95SRumj5xc43M0ZWSnl++wU+zV+wC8wGAAh3AECJRLsYz4yvrltzxeorisd0VYzmRk9q3Oj8bzg7LAQHeQAg3AEAJVHuYjI38dKVl7k1z9Q/iYI0XZr+ko5LhKJYXHQHAMIdAFAC0S7GMiNr6tddtf41fz6sC3U0M35m61knNm4cKV50Z6U7ABDuAIAlJaWczMVfe8TrPFOX2/d/j8Ow827ddfmyK2zFtmyLQQEA4Q4AWLrDt1D7k/0b20++YvXL//Sdpl2wpe38q7HM+FmtZ5/ceMpQdlBlpTsAEO4AgKWSt/LO39969Nte+J26phUzXRb/rUvTX9FzlapohmUwLgAg3AEAS0ATWl+892WrrzipbeMLv7+4on1qTbuT7yOZ0TNazji37bzBzAAX3QGAcAcALPqBuxjlI8siXe88/poX/zv552+atmlL5dUrXhd2hzOF9B+LHgBAuAMAFodT5PHc5DuPv7rWW/tX3S5f2PfD2aENDUdetuyKocwQ28sAAOEOAFg8mqrtntx9+eorLl5x6V//2xfVudPx2XzuNSte1xXqHs+P0+4AQLgDABal2oU2mBxcUbvi/adcd8AfoKu6KtQ/XXcXiojlYy3B5r9Z+caEEbelzQwBgHAHACwsIUTaTOet/D+f+sGQOzT9nzWeiV3RfeXpzWcOpPtVoTFJACDcAQALSErZG+/9u2PffnLbyTPIfUXkrJwq1Leu+Tu/7k+ZSe5SBQDCHQCwUDRV2zWx8yXLX/J3x/79jA/0Qh3MDG5o3PC6FW8Yzg4xTAAg3AEAC1Ttel+8b2XdquvP/pdZ/yKJXOoNq950bP3xA5kBjQUzAEC4AwDmudqFNpYZ8erez5zzOb/Lf+gfLIR6wK1jhCISRtzn8l5zxD/oqsaCGQAg3AEA83qMFmrCSCTyyU+ffcPK6Ko5ngAMpoeOazruTaveMpgZfOGO7wAAwh0AMHtCqLlCbiDZf92pHzyj86y5/4JOrMeziTetfsupzafvS+9jwQwAEO4AgLlXuyjY5q7JnVcf/66r1r16BnF+iF9TEUkz6RL6tRveX+OuieXHVcFXAQAg3AEAs652RdjS3hnb8aYNb37H8VfPKPcdUh403zWhDWQGVkSXv+vIf5w0Jg3LYLE7ABDuAIBZVrtU5LbxrS9f+4rrTv3gzH7ulMP+mNH02OXdl7+q56q96V5FEO4AQLgDAGZV7VvHt16x+srrz7phgX4LwzLSRvbdR157dN1x+1J9LHYHAMIdADDjat82vvVlq6+44ZzPLOChX6gT+Zhf9330uI9H3DWjuVGVdgcAwh0AMK1qF8V17VvHt1yx5uX/cs5nF/q304TWnx5YXrv8A8d8OFPIpM0UN6oCAOEOADjcsViohmVsGd/8+iPf8Omz53StffpL1p3fdDg1cm7nue9cf/VQdtC0TW5UBQDCHQBwUJrQ0mZ618Sudx5/zYdO+8jcqt2hHmJXmRexbGsiM/nmNX97edfL+1K9/FkAQCnTGQEALGW1q9pENjaSGfnI6R977RGvm/svOP1q3x/6mULGY3o+eMxHhjODj44+0h3qsaTFnwsAlCCuuAPAktFVfTA5mDRSN17wlXmp9tl8GRBqLB9zqfqnT/xsd7hnX3ovm8wAAOEOAPgjoQinj3dN7Aq4A9+97L/P7T5vnn/5mXBeyWBmsN5X99mTvhhxRYayg7Q7ABDuAIDiApXiZu2xLesb1v3wih+tb1g/v7+4osiZ/qziJjOpgRU1y/9l4xdURRvLjdLuAEC4A0B1H3aFmi/kt45vuXTFZd+9/OZ6f/28nxXM+icOpAaPazr2UyfckLeMCWOCdgcAwh0AqpSTwvF8vC/e+48nvfcz536upMp4/16QQ8nhszrP+uhxn3Be56QxSbsDQOlgVxkAWKwDrqoPpgZzhewXzv/yRctfUoKv0Gl3W7FHkqMXd19s2PlPbfq48z1hd9iWNn98AEC4A0BV0IS2e3J3xBO56eKvb2jcsJC/lZzLT3ZKvWAXRtNjL1txhSXtT236mPOdEXeEPSIBgHAHgAonpv7aFtu2tn7dVy76amOgaWF/O6HO+VcQpmWOpcavXHGllPIzT37KORmIuGtodwAg3AGgYqlCLdiF7ePbL+i58AvnfcmluRb8PEEIKefhFzGs/Fh6/BWrXqGr+ic2fdSWstZTS7sDAOEOAJVZ7Vkzuye++w0b3vSBUz+0WL+tnO2+Mi9qd9WwjNHU2MuWv0wT2ic3fdSp9npvPe0OAEv2ZYURAMBCcGI3kU/sTfS97+TrFrHa59P+NTMjqdGXLn/pDSd+rmCbw9lh9pkBAMIdACqHrupj2dHx7Pjnzvvim49+y2L+1nNfJ/Oidi/IwlBy+NzOc798yr+7VXd/up92BwDCHQAqpNoHkv35Qv6mi79+8YpLFvuwrqpyXuO9uEektAeTQye2nPgfp/9no69xT2qPWnzOk+DPGgAIdwAo42rvS/R5dM+3XvrdjW0bF/8FiAXIaafRpSL7EwNratd87Yxvrq85Yldil63YtDsAEO4AUJY0VdszubveV/9fl928vuGISnprTqOrQt2X6m/xtdx0+tcvaL9od2JX3s6rgq8jALBYX2VWv3IVUwCAean2nbEdXTXd37nsv1qCrUv1MnK5nGEYqrogPe1ketyMB12hizsvNm3z/qH7VKH5dJ9UJB8AACDcAaAcDqZC2zGxfX3DEd+49Nu13ugSvpIFDff97Z4upBRFnNlxZo0reu/g7wqyENADtDsALDT+EycAzLnaVW37xPYjG4/65qXfiXgiS/tixMKvXXHOUpJmciwde/XqV3/i+OuzVnYsN8ZWMwBAuANAaVe70HbEth/VeNQ3Lv2W3+Vf8tcjFuV+UVWohp0fTo5c1HXR50/6olQk7Q4AhDsAlHS1T11r3/Cfl3zTp/tK4SXJxVqxIhRhSWsoOXx6xxnXn3BD3s7H8jHaHQAIdwAovWpXi+vaNzQe9fVLSuJa++IrbvGu2EOJ4TPaz/zEcZ/KFNJxI84+MwBAuANAaVX7zomdTrV/o8SqXSzu1ur72304NXph90XvP/qDE0YsU8jQ7gBAuANASdBVfffErpW1K2+6+Os+l6+kXpsQQi7u/i5Ta2YKo6mxK1dc+Y511wxmBgzL4NlMAEC4A8DSV/ueyT0d4c7/vOQbQXeQgexvdyfWJzKTf7vurVf1vGZvuo/dIQGAcAeAJa72/uS+qC/6lZfcFPXVMZA/fzkRaqaQSRmZfz7mg6c3n9mX6uVGVQAg3AFgaWiqNpIedtr9xgv/vSPcwUD+ut0n8xNSyk+ccP3y8IqBdD/tDgCEOwAsRZXmJjNm5vPnfWlt/boSfqVCLN3ycqfUh7JDdd7oJ46/3q15YvlxblQFAMIdABa12p1kH0mPfOzMT2xsO7mkX6q6xHeFOu0+kBpcV7/ufUdflzCTOSvHjaoAQLgDwGJwurNgF/oSff940nteuvJyBjKdkY2kRi/tvvRvVr6hP7WP21QBgHAHgEXK0B0TO153xOvfcvRbGcY0T3VM20zmUlevf/epLafvS/ex2B0ACHcAWFiaqu+a2HlW51kfOu0jZfGCZWlc31aFGjfiTq9/4OgP13sbxnKjLHYHAMIdABau2rW98b6e2uWfOffz5fKal/LW1BdNT2iDmYGOcPt7N7wvXciw2B0ACHcAWJjjo1DHM+Me3eNUe9gTLpuXrYrSaXfnlQynRy5YdsFrlr+uP72PbgcAwh0A5r84c4VcLBv78OkfXR1dzUBmOcap+3pTufQ7119zbP1x7OwOAIQ7AMw3qfTG97zt2L+7sOcihjGnLzNCnTQmfS7veza8z6N6E0aidP6DAAAQ7gBQ3oo3pE7uPLf7vGtO+IfyO+Movc0Xizu7pwc3NBz51rV/N5obkZL9IQGAcAeA+ajMoeRAZ3jZJ868vhxff8lezp7ITL5+5RvPaDlrb4rdIQGAcAeAuVavSJkpwzY/csbHar21ZXlYV0vxwC4UkSmkFUX+wxHviXqiE/kJFswAAOEOALMnpdyX2Pv3x73jxNaTyvYtlOrXm+LukIMr6pa/bd3bJ4yYLW0+bwBAuAPAbGiqtmdy93ndF/wtT0hdGEKI8fTEK3uuOrvl3H2pvSyYAQDCHQBmfjQU6kh6pDnY8qHTPlzmb6V0b/0UisgVslLKt6+/OuqJThqTPJIJAAh3AJhZUBqWkcwnrj35fY2BpvJ+L1NKeMGMOpgZXBVd+abVbxnPjUmFHWYAgHAHgJnUZG98z6vWvfr87gvK/iTkjzd9ylJ+hROZyauWv/bkplP7eSQTABDuADBNxV3GU/1r6te+d+M/MY3FCPepHWZcqvb3697h070pM8WCGQAg3AHg8BGZLWRNu3Dtxvd7dS8DWaSvPcUdZoaObjz6quWvHcoOsjUkABDuAHC4cBeiL977uiNev7FtY4W9rxJ/hVKRqVzm9SvfuL72yOHskCr4egQAhDsAHOwIKNTB1OD6xiOvPv5dlZTsUzenlvpNn0IRk8ZEjTf8ljVvNSzDtA0+kABAuAPAgeWtvGkZ1xz/LrfmrqRwL5eXqgltJD16Xvt5F3ZcvC/dz0V3ACDcAeDA1dgX77tizZWnd57BNJaKaZsFy3rTqjc3eOsTRoK7VAGAcAeAvyCEGMuOddV0vfP4a5jGUn4REupwdnhldMVVy187lhtlIABAuAPAX7ClPZGb+Nuj31brra2wtybL7YlGzklUIpu8avlrjqo7ZiQ7zIIZACDcAeCPNKHtjfedveycl62+ogIP66oor90VhSKSZiLkCb5h1RsN2zBtk48oABDuAFDMxLSZCriDbz/uHZX5BstkV5m/+FIktNH02Hlt55/bdv4Ad6kCAOEOAFONqO5L9r9y7avW1q+ryDc4lexSKbe7PA3bsKXyNyvfFHZH0maau1QBgHAHUNWEEKOZ0ZXRlW85+q1Mo9ROqIayg0c0rL+i68qh7BDPUgUAwh1AVZNSTuYm/+bINwbdwYp+m+X6yrP53CuXX9UT6onlY1x0BwDCHUC1Hu+EOpAc2Ni+8co1r6jkt+m8T1VMrZYpM06pO73eGmp51YrXxI1JPrEAQLgDqFKmZUrFftOG/1fpb1QoZXut2jnpmMzGL+982TH1xw2zNSQAEO4AqlBxC8jk3vO6Lzi143SmUcrSZjrg8b+65zWGbRTsAgMBAMIdQHXJFDJhd+hNR/0/RlHqX5aEOpYZP7/9wjNazhzMDHLRHQAIdwDV1YL9yf5LVrx0Td1aplH68lZeFeKqnte4NZfzbQYCAIQ7gGqRMlKN/sbXHvH6aniz+x/AVO4nWkPZ4Y3NGy9ov2gwM8BFdwAg3AFUx2FOqIOpwctWXd4Z6ayed12+O0LuZ9mWZctXdF9V467NFDJ8jAGAcAdQ+RL5RHu4/dXrX8soyut0ayQ7fET9+os7LxnODnHRHQAIdwCV33/D6eGLV1zaFGhiGuVFKtIwzZd3v6LZ15I0kzyPCQAIdwCVrHi5PdT2qrWvYhRlxyn1sfzY8trlly67bDQ7Wu4L9wGAcAeAgx/gipfbhy5Z+dLmYEt1vXFVLccnpx5QNp+/fNkVncHOuDHJRXcAhDsAVKakkewId7yCy+1lyyn1WH68I9J+WdcVsVyMbgdAuANAJR7dhDqUGrxw+Utaquxye6W1uxDpfObSzpf2hJdP5rnoDoBwB4CKkzbTzcGWK1ZfWYXvXcrKeS9OqTu93hJqvrjzpRP5GCvdARDuAFBZh7bi5fahs5edsyyyrArffoXFrTp10f3izktWhFdO5ie46A6AcAeAypEr5CKeyBVrrqzOt19xl6WLF91bQy0Xd14a46I7AMIdACrnuDa1mcypHaetq19XreFeUatl9p+KpHMZJ9yXR1ZMcNEdAOEOAJWhYBd0Vb9s1eWMonLCXRGTxtRK945LJ/JsLwOAcAeACig8IUbSI8c1H39K+6lVOwQplcpbTuL8yab2X3QPr2B7GQCEOwBUQLQqOSt70YqLq/vspdKWyihTF93jRnGl+yXLXjppTNDtAAh3AChvE7mJ1dE1F/RcWN3hXjlPTv3L9yUy+ewFbRd1BbsTRoJPOwDCHQDK9ogm1FgudnbXuT7dxzQqMNynVrp3RNov7LgolhtXBV/CABDuAFCesmam0d/4kuUvYRQVLGfkL+y4uD3YnjKTTAMA4Q4A5ad4W2pm5OT2U7pquplGxf4pKyKWj/VEus9pPX8kO8pFdwCEOwCUH1vaqtDO6z6fUVT8E4qMQuGijosbfY2ZQpo/bgCEOwCUmVh2fH3D+jOXncUoKvvZokIR47mxdXVrz2o9ZyQ7wkV3AIQ7AJTVsUyoiXzizM6z2N67GkhF2pa8qP0lEXckb+UYCADCHQDKRraQbQw0nd11LqOoBs7p2Whu9Nj6405uOm2Yi+4ACHcAKKeMS4+c0HpiN7el/h8pK/wNWrYlhHJh+0Vu1V2wC/yJAyDcAaAcIlWRtiLPXnYOo/jTuUzF35/qvMPR3PjJTace33DCaG6EJVIACHcAKAOJfHxF7YpT2k9lFH88sqtVcWw3rLzH5Tq//QLTNqUi+XMHQLgDQEkTQsSysY1tG4PuINP4P1VRsapQJ3Px05rPXF97ZCwf46I7AMIdAEqaZRf8rsAZy85mFFUobaaj/ppz285LmgmmAYBwB4CSFstOrGtYd0LLCYziT2TVLBtRhZrOZ85qPacr1EO7AyDcAaB0CSGSRmJj28mM4kVjqZ43Gzfiy8KdZzSfMZ4bZ19IAIQ7AJQo0zJrvLXclvriI7taXau9CwXrnNbz6rx1OR7GBIBwB4DSNJGLra1fu77hCEZRtYQixvPjR9UdfVLjyaPZkar6rw0ACHcAKJNiEyJtpLncjuLDmFTlnNZzdVW3bZuBACDcAaC0GAUj6qs7ue0URvEissr2NHdO4cZzEyc1nXxkdMN4fox9IQEQ7gBQWiZyE2vq166qW80o/jpkq+0t5wu5kCd4ZsvZmUKGDwAAwh0ASqlNFZE20ye2nsgoDnBkV0W1tfvUuqnMac1nLAt2Jc0knwEAhDsAlArTNmu9NSe1bWQUf63alsrsFzfiXeFlpzSfNp4f5xZVAIQ7AJSKydzkqrrV6+rXMwr8iW0rZ7ScGXaFTctkGgAIdwBYekIRSSN5bPPxjOIgZBVedHc+FWO50WPqjj22/rixHLeoAiDcAaAEWNIKuAMntJ7AKA6csEKtzqUiBbvgcblPaz69IE2pSD4JAAh3AFhiyXyip6bnyMYNjOIg4V61b1wk86mNTaf0hJdziyoAwh0AljrOFDGZjzvV7tE8TAMvPqkzk+2htpMbT53Ix7hFFQDhDgBLSSpSE+qxzccxChyQbcnTWs4IuyPcogqAcAeApZQtZJtDrRsaj2IU+GtCEeO58Q3Ro46uO4anqAIg3AFgKcVz8TV1a5qDzYzioPFa3UtETNv0utynNJ1mWNyiCoBwB4ClSlJF5ArZIxqOZBSHDneHlLJq334qn97YuLEr1JUyU3weABDuALAECrIQdIeOYp0MDilpJpeFl53QcFLxFlVWywAg3AFg8aWNdGe4c039WkaBQ5BTf53cdIpP91nSYiAACHcAWGyJfHx1/Rq/y88oDpWtVb+uu3iLan7i6Ppj1tasm8hP8JEAQLgDwGKzpMUC98Mf2VXBFuZ5K1fjjWxsOiVdSLFaBgDhDgCLyrTNWm+UB6YeFtWuTF10NwqFExtPavA25u08AwFAuAPA4knmk1013avrVjGKQ2OpzH6T+Yk1kXVHRo+K5ca56A6AcAeAxZMyUqvrVisUGKanIAtul35S00bnG2zoDoBwB4DFI4Sypo79ZKaDSJ36wCgibWSOqz++I9CZKaQZCADCHQAWg2mbNd7atWwEOZ0j+9TdqczBkTSSPeGeY+qPjeUnWC0DgHAHgMWQNtLt4fbltcsZxTSx0t1hK7ZzCnN8w4m60JxvMxAAhDsALLikkVwTXaOrLkYxTVxzV6ZWy8TzyaPrjukO9yTNJAMBQLgDwIKzpb26bg1zwExlCum2YOvRdcfGjUlWywAg3AFgYVm2FXIHl0dXMgrMlJz664SGE72az5KslgFAuAPAQsoWss3Blp6aHkYxHWKKZJH7/mkoYtKIr689oie0PGkmGAgAwh0AFlDKSPbULA97woximuHOEF584hdoOqru6IQRZ7UMAMIdABZQrpBbwToZzF5xtcyx9cd5da8lLcYBgHAHgIVpLindmoeNIDEHU6tlokf0hFawtwwAwh0AFophG1FfbQ/hjjkorpbxNx1Vz2oZAIQ7ACyYjJFuC3V0RboYxfSxzP1F9u8tc2zdcV7dx2oZAIQ7ACxMuBcyHeEO5jCjaifcXzyT4mqZxNradd2h7pSZYiAACHcAmH8F22KBO+YuW8i0+luOiG5ImKyWAUC4A8B8k1J6dE9P7QpGgbl+lpy/hHJU9GiX6rIVnsQEgHAHgHllWEatt5alMpg7oYikkVpXu74j0Jkx0wwEAOEOAPMpW8i0BFraQ+2MYmaRypNTDyRtpjuCHWtr18XZWwYA4Q4A815ayyLLNFVjFDMNd4bw12zF1lT1yOgGZf/KGQAg3AFgvli21RbmcvssUKUHOp9RRNbMr689ssnfnLNyDAQA4Q4A89WeUlP1nhq2lMG8SZrJrlDXysiqhBFnGgAIdwCYHwW7EPaEueKO+fxQSdPv9q2vPSJvGyxzB0C4A8D8MAr5Ol9dS7CFUcwUa9wPOhlFWJZ0wj3iCpvSZCAACHcAmAdpM9MWao94IoxiFuHOpjIHkzDiy8MrloW6eIQqAMIdAOaHaRtNwSbmMAtU+yHkrFyjr2FNZG3KTDINAIQ7AMxHuFtmV6SLOWCez2qmHqG6LnqELlxsCgmAcAeAubKl7dG9zSxwx3wTisiY2VWRVU3+pryVZyAACHcAmBPLtkLuUGe4k1HM5uCuCrZyP4SUmeoIdvaElrMpJADCHQDmKm/lo75ovb+BUcwKu8ocSkEWAi7/mtq1bAoJgHAHgLnKFrKNgSa2lMHCnNYUd91ZHVkT1AOWtBgIAMIdAGbPsIzmAFvKYKEkjWRPeHlroC1TyDANAIQ7AMwp3FtDbcwBCyRrZZt9zd2hHjaFBEC4A8DsSSndmqsx0MgoZocnpx7W1LZF7tWRNQWWygAg3AFg9uGu2G7N0xJsZRSE+8KxbLkisjLkCrHMHQDhDgCzZFpm2BOu99Uzitmf++BwUmayK9TdxjJ3AIQ7AMxa3jKi3mhTsJlRYOHkrFyjt2lZsCttppgGAMIdAGbDtI0ab61P9zEKLBxb2m5dXx5ewTJ3AIQ7AMxS1sw1c7l9DoTg8D69drcVJ9wD7OYOgHAHgFnmlLTqfHXMYQ7hzgymJV1IdQaXNfqaclaOaQAg3AFg5scmoTYFuOKOBZctZJv9zcuCy1jmDoBwB4AZk4rUVK0h0MAosNAsafldvq5Qt2EbTAMA4Q4AM1OwCwFXIOqNMgoszpnislCXW/VI9tAEQLgDwEzDPegONfh5bOrs8QCm6ctZ+WXBrqin1rC46A6AcAeAGYZ7yB0Ke8KMgnBfBJmpZe5N/paslWUaAAh3AJiBfCEf9dX5XX5GMWuSRR/TZtj5qKeuM9iZ5fmpAAh3AJhZSFn5Wm8Nc8BineRIl6Z1BjptaTMNAIQ7AMyALWWNt5Y5YBHjXWkPdno1H+0OgHAHgBlFlF3vr2cOczq4q6xxn4FMIdcWaIt6o2wKCYBwB4CZhLuU7AU5Z4T7DOSsbKOvqcnXlC1wfyoAwh0ApseWtlvzhD0RRoFFY9pmxF3T4m/NWzmmAYBwB4Bphrvlc/miPq64Y5FPF/X2QLslLaYBgHAHgOkmlEfzRNhVZq7YD3LGA2v1t7lVN/enAiDcAWBaCnbB7woEXAFGMRdCqDyDaUYMy2z2t4TcIS66AyDcAWC6/RTxhJ1+YhRzC3dmMDM5K1fvbYh66vJWnmkAINwB4PBM2wy6g27NzSiwqGeMtlHrqXXanftTARDuADAtlrT8rJPBoivYhaAr1Oxr5oo7AMIdAKbFtq1a7kydM8m9qTOdmCI1VTT5m5kcAMIdAKbFklaITdznfnAv3psqJP0+w3hv9DW6NRdzA0C4A8A0wt22uDN17thSZhZM26r3Nvj1ABvLACDcAeAwpCJVVQu4WeOOJZC3cnXe+oi7xrANpgGAcAeAQ4a7lC7VFXaHGQUWn2GbEVck4o6YhDsAwh0ADhPuihPuOktl5uMUiBnMmFXcWCZYV9zKnXAHQLgDwGFyU2rFpTJBRjHXg/vUzanMYWbhLi2/7o96oqZtMg0AhDsAHCbcXarbp/sYxRxR7bP5+CnSOd+JeutUpgeAcAeAQyvYhYArEOSK+3ycAjGE2an1RFXBF0cAhDsAHJIlLY/u8eleRoGlOeFxwt1d41bdtrSZBgDCHQAOypaWW/M4/2MUWBKmZYbdEb8eKMgC0wBAuAPAQVnSLl5xd7HGfa4Eiz1mF+6yGO4+3cczmAAQ7gBwKLa03apbKNwaOPdw5/7U2SjeZaEHAnrQ+QbTAEC4A8Ahwt3icjuWkOV8AnVfyBUqsCMkAMIdAA4Z7tKtupgDljLcNZ/f5eeKOwDCHQAOHe5cccfSfgJtt+YO6AHWuAMg3AHgMNh/fF6IKezmPuOPnyJVRQu6eJIAAMIdAA7Jsq2AO8Ac5iXdFe7xnVW5q0L16wHOeAAQ7gBw6GqSqtCYw/zMUiE+Z/cJVAJ6gOkBINwB4NCE5ImVWOLPoOLVvJJwB0C4A8Ahk0mxFcIdS8yjeXSh0+4ACHcAOChL2j6dXWXm4xRoCnOYBSmLV9x1VefWXgCEOwAcoplsF/u4E+5LypbSpbo1oXHFHQDhDgBACZ89KlJXdVWohDsAwh0ADkoIYfPgGywpW9rFpTKCpTIACHcAODhNaGkzwxzmbio66c7ZTo/ZASDcAeCwwSR4bNB84Mmpsx9d8XNok+4ACHcAOHxyMoP5aneGMLuzR1VROYEEQLgDwOFykxHMV4ByyXhWbGn5dJ+uurg5FQDhDgAHpQktY6aZA5b066Kat/IFWeCiOwDCHQAOThT39GAMWMrPoBAFuyD5HAIg3AHgkIck1bAM5jBfAcoQZqF4h7RQWbQFgHAHgEMekoSaK+SZA+G+1F8aBetkABDuAHDYcM8xByzxh9DKFqTJmQ8Awh0ADkoTxfsCmQOW9OuiMGzTkjYX3QEQ7gBw8EOSqhmWQbvPE3YznA0hhGkblm0R7gAIdwA4+CFJqIaVZ7XMfCUoW7nPKtyVnJVjqQwAwh0ADkUTmlPtWTPLKObh+K6qXHSfnWwhyxV3AIQ7AByKruppM50yU4xiPlDtM1aMdalkChkutwMg3AHgULSppTJZM8MosFQsKdOFFJfbARDuAHBIxYdWWkkjySTmjgXus/oEFp/dyycQAOEOAIetJmHaZiKfYBTzcRLENeNZfFHUDCufNJOq0JgGAMIdAA5+SBKqaRmT+UlGMQ/DVAn3GSveZVFIJ8yES3UxDQCEOwAcRjLPQgUsZbjHjUm36mYaAAh3ADhMOcVzXHHH0nCproQRT5kp53PINAAQ7gBwKJrQx7NjzAFLwqN6xvPjhDsAwh0ADq94xZ2bU7FUXxSFMpYby1lZjZtTARDuAHBobs09mZ/MsJX7nAnBEX42RjLDlm0xBwCEOwAcPtzjucl4Ps4o5hzuzGCGXxGFatiFkdwIO2kCINwB4PA0VcuY6YlcjFHMEQ9gmild6EkjOZod8WhepgGAcAeAw8dT2kwPp4YYBRZZcZmWERvPj3k0D9MAQLgDwGEIIQzLHM9yxR2Lzav5RrIjsXzMwybuAAh3AJgOTaiDqQHmMNfjO09OnSGXqg1nh9NmWmMvSACEOwBMhxDqGFu5z8cgGcFMBzaUGTRsQzA6AIQ7AEyHT/eyxh2L/eVQqKZlOeGusY0mAMIdAKbJo3tHM6OTuUlGgUVT3FLGTAxlB9lSBgDhDgDT5dbcE7kJlrnPmWRHyBmcLmresdzYSHbUS7gDINwBYJp0tbid9nB6mFHMhRAqzxGaPqfXh7NDE/kYe0ECINwBYNrFqYiCXehL9DGKuYW7wv2pMzhd1NSBdH+6kFJZ4w6AcAeAGRlMslRm7lgrM91zRWdU/el+W9psKQOAcAeAGfC7/L3xPcwBi0MTWspM92f2uTUevQSAcAeAmSguOE4PT+YmGMWscWfq9Hk0TywfG0wP+DQf0wBAuAPATMJd945lxvqT/Yxi9sd3VQjuTp3u5803lB0ay42xFyQAwh0AZkZTtZSR3DW5i1HMGtU+fW5N35famzDjLtXFNAAQ7gAwk+hUREFaffFeRoHFIJW+VG/BLjAJAIQ7AMyYT/ftnNjJHLDQNKGlCxkn3LncDoBwB4DZ8Lv8+xJ7k0aSUcwON6dOk1fzjmZHB9IDfj3ANAAQ7gAwYz7dO5IZ2ZfYxyhmhyXu0z1F1AMDmf7R3LCXO1MBEO4AMAu66orn4tsntjGKWR7fp7aVkVx4P+wnTVN7k3sSZlJXdaYBgHAHgFkRyvZxwn2WKPbpD6o3tUdKm1EAINwBYJb8um8X96diIblU92R+sje5x6fz6CUAhDsAzFbAHdyb2DuSHmYUWLCTQ/9AZmBfeh93pgIg3AFg9ryadyg9tHV8K6PAgoW7tze1Zzw/5lE9TAMA4Q4Asz1CCdWw8pvHnmcUs5meyrYy0yCU3YldeSvPg2YBEO4AMHtSkR7du2V8M6PAQtCEljGzuxI73VxuB0C4A8Achd3hXRO7xjKjjALzzqf7h7JDfanegIsF7gAIdwCYG6/uHUoPbo9tZxSYd0FXYE9i91B20KexpQwAwh0A5niQEmrWzD47+iyjwLwTQtme2JYpZDShMQ0AhDsAzJXP5X9m5GnmMPMqFdxweQhOrGfN3I74dpfqlgpPqwJAuAPAnIU94R0T2weSA4yCcJ/PE0LdN5gd3JPaHXQFmQYAwh0A5oFX9w6nh58d5aI75pPT63sSu4YyQyxwB0C4A8B8HadU27aeHHqCUWC+SEUKoWyNb00X0ixwB0C4A8C8NVbYE3l29NmCbTKNGcxNsm77oHShp83stsktHha4AyDcAWAehdyh3ZO7n+cRqjPBAvdDCLiC+1J9u5K7Qu4w0wBAuAPAvNFVPWEkNg1tYhQzCndVFVx3/2tSkQGXb3ti+3B2yKt5GQgAwh0A5rO0fLr3ScJ9pnMj2g94SuP8JZXNE8+btln8NgAQ7gAwj2o8NZvHNvfGexkF5sitecbzsa2TWwJ6gGkAINwBYJ55dO9IZmTT0OOMAnMUdoV2J3b1FndwDzENAIQ7AMw/TaiPDjzCHDAXUpEuXd888XwsH3OpLgYCgHAHgPlX640+NfzUUGqIUUwHT049yOmfZpjmcxPP6kJnGgAIdwBYEH6XfzDVv2noMUZBuM9aQA/2pfq2xreE3RGmAYBwB4CFKdHiBiDi4f6HGcW0sa3MiwcSdPu3TG4ezAz4dB/jAEC4A8ACRaiM+qJPDm8az44zDczy7E8qT8eeMm1T5SsgAMIdABZOwBXojfc+1P8HRnH48xzJw5dezKf7BjNDz088G3aFJf85AgDhDgALRyhCE9qDex9gFIef1RTa/YUi7siWyc17UnvYCBIA4Q4AC0sqst5fv2no8f5kP9OYTruzzP2FHx5nHk+NP5kx087pHwMBQLgDwMLy6f7B1MADe+9jFJgRj+aN5SaeiT0dcAVZJwOAcAeARSqw+wh3zFCNu2br5Oadie1hd5hpACDcAWDBSUXW+eueHn5qy9hmpoHpf2w0TWwa2xQ3Ei7BA1MBEO4AsCjcmjuWi93T+ztGgWnyqJ6JbPzJ8U1BV4B1MgAIdwBYJFLKGk/N/XvvM22TaRwCT079k1pP7ebJ57ZNbou4a5gGAMIdABaxw3y1W8Y339/HSnfCfRpneopUNfHE2BMJM64LnYEAINwBYBEPXkK1bOt3vb9lFIdJViiKV/PGshObxh4LukKskwFAuAPA4gaplI2Bpof2/aEv0cc0cMhzF1nrqX029sy2+JYa1skAINwBYPH5Xf7B9OBdu37NKHBoQiiPjj6S5rlLAAh3AFgStrQjnsi9ffew+OFgJINxTvD0wFB6eNPYY2F3hI8KAMIdAJZGna/u2dFnf7vnbkZx4EO8Kqq83Z1Sr/GEnxx/YmdiB89dAkC4A8CSKe6aIuWvd97BKA46n+q+xiycL3NSeWjkD6ZtqnzJA0C4A8BS+eMtqv0PbR3fwjTw18Lu8M7ErifGHot66lgnA4BwB4Cl5NW9E7nYbdt/ySjw4vM6RQbcvkdHH96X3ufXAwwEAOEOAEvJlnaDv+F3vb918p1p4IVcqitn5B8cesClunkSFQDCHQCWXsgT2RPfw0V3vJBUZNRT98zE08/EnqpjnQwAwh0ASqPRZMQTuWPn7ba0GcZfDqaq376miQeG7p80Jl2aiw8DAMIdAEogTxVZ76t/dvSZX+24jWm80NSuMlUqqAcHUoMPjTxY466VbGgPgHAHgJJJVMWjeW7bwWqZvzzEq1Ua7lLaYW/o4ZGHtse3s307AMIdAEoq1GRToPnRgYfv7b2HabxgLFX6xnXVZZiF+wZ/rwlNKNyYCoBwB4CSOpypqpPvt277GaOo9tMVRdZ5658af+LxsUfrvfXclgqAcAeAEss1KVuCLQ/su/+RgUeYRjUTitA0ce/QPQkj7lbdDAQA4Q4AJcelufOF/E+3/JhRVLOwK9yX2PvA0H08LRUA4Q4AJcqWdmuo9b6+e58ZeZppKMVdZarxMxDw+u8bundPcnfIFeIzAIBwB4AS5dE8aTP9w+d+wCiKFWtX3fVmn+5LZJO/67/br/v5AAAg3AGghFO1eNG97Xe9v+WiuzK17r/a3m/UW/uH4Qefjj1dx22pAAh3AChxHs2T4aL7lGpbKqOpmmXbdw/8RkpbFXyBA0C4A0Bp23/R/e49dz0+9DjTqB5SkQ3exk1jjz00/IcGXyNPSwVAuANAGfBonlwh98Pnvs8oqodQhKoqd+69M2kmnA8AAwFAuANAGbCl3R5qv2fP7x7q/0NVz6F4c2pVLJcpPnTJU7dlYsvvB+9p9DU6HwD+XwCAcAeA8uDSXE69/fcz36vmIUgpq2eZu9vl+vW+O0ayw349wOcfAOEOAGXDqfa2cNsD++7/ze5fV+0QhKiWy+017treeO9d/b+p89ZzuR0A4Q4AZUYTmltz3/xs9V50l9WRsFJKv8f763139ib3hN1hPvkACHcAKDO2tFsCLY8PPvaTLT+q1nCvircZcUcGkoN37Ls96omymQwAwh0AypNQajy1Nz/zvbSZZhiVenoW9AZ+s+/OHfFtEU8ND10CQLgDQFmSUtb767fGtn336e9U5du3K3uZu5PpYXd4JDV6e99tNe4aoh0A4Q4A5d3uLcGWH2/+3954b7W98YpfNuK8w5A3eOe+27dMbq71RLncDoBwB4Bybrupi7JjmdFvPvn1agt3paJDdv+f7Gh67Je9Pw+7I3zUARDuAFD2LGl1hDtv33FbVT2PSVb6Jff9l9vv6PvV1viWKJfbARDuAFAZ3Jrb+fs3qumiu9O1tl2xW7kX92731Awmh37W+9Mady2fcACEOwBUiOLzmELtD+37w/88/8PqCfcK3sfdeW8Bj/+2vl/siG+v9dRyuR0A4Q4AFUQodb667z797fHsOMMo72pXZNRT1xffe+uen9V569i7HQDhDgCVVXtSOuG+N9530+NfrYb3a9t2BQetz+O5Zc9P+lJ7Im72bgdAuANAxSnepRrpvGXrTx/uf6gaTlScv1XeGnfnfTV4G7fGtv2i99ZGXxOX2wEQ7gBQmTyaRxWiGi66V+oVd1WoLl370c4fjufGgq4gl9sBEO4AUKE5O3WX6iODj3zryW9UerhX4D7uzh9fs7/pkaFHbt97W7O/xa7cu28BgHAHgOJai+ZA83ef+fbOiR0V/TYrMGo9msc5H/nhzpvzVt6refkwAyDcAaCiw12REU8knovf+OiXK/htTl1xr6x3JO16f92v993++8F7W/ytXG4HQLgDQOWzpLUs0nX37rt/suXHFXt+Ulld65xuBV2hRC55847vuVW3rup8jAEQ7gBQFYQQ9f76rz3+1aHUYGWenFh2ce/6yjkPkRFf6Ce7f/T0+FONviYutwMg3AGgWjghGPVFB9ND//rolyr1DVbMVpBS2o2+xl0Tu3+48/t13no+vQAIdwCoLpZtdUW6frn9l7/c/vPKe3e2XTlX3DVVd+n693Z8dzgzVMMTlwAQ7gBQhXRVr/XW3vjov1bYghnbls7/KuOKuy2tpkDj7/t//6veX7YF2i1p8bkFQLgDQNWZ2qik3qn2zz/02Up6X1Lazv8q4LGpUpEhVzhtZL655evOu3Frbj60AAh3AKhSxQUzNd137Lz9x5t/VDknJMXHplbCehLnXYR9oR/u+MET4483+3jiEgDCHQCqmya0Bn/jvz92457J3YR7Cb0Labf4W7bFtt28478avI18UAEQ7gBQ7ZxArPXVxnPxTz9wfWW8I8ty0r28l8pIRXo1ryrE157/j8n8RMQd4Z5UAIQ7AKC4YGZZZNl9e3//tU3/UQmnInbZLymRUtYForfsueXugbvauScVAAh3AHihznDnN574z0cHHin/cC/vzLWl3eBr7E8MfGPLf0bcEY3npAIA4Q4AfyIVGXAFnEa84cHr02a6rN/L1GNTy/gPwq263Zp+0+av9Kf31nnquCcVAAh3APjL3pVWa6h12/jWG8p8sbttW+W7wF1KuyFYf1vvL3/Z+/P2QAeLZACAcAeAA7W7bXXX9Nyy9af/+/wPy/hdWOV6Z+rUIpmmweTQfzz/laAr5FJdfCYBgHAHgAPTVb0p0PTlR764ZXxzWbbvlHJ85VKRHs3j1vSvPHfjvvTeBm8Di2QAgHAHgIOHr7RrvDWmVfjovR8yLaPsXn/57gUppawP1P1s989u6/tFB4tkAIBwB4DDt69tdUQ6nh159pP3fbz8TjxsqxzD3cn0Zn/L7sk9X33u38LuiM4iGQAg3AFgevlr99Qu/8mWH3//2f8uswK2rLJ7bOrUlj5B51Tji09/biw3xk4yAEC4A8AMUlJX9ZZQy5cf+dKmocfL6JUXCuW3wkQootYf+c62b907eE9HkEUyAEC4A8BM2NIOuyOaUD90zwcmcrFyedmWVWbV62R6S7D5scHHvrH5a02+Jifi+ewBAOEOADNuytZQ277E3g/97gNlFO5ltMDdOTuq9zZMZuOffeoGW5EhV0gqkg8eABDuADBjBbvQU7v8d72//eJDnyfc55fT6F7N69XdX3j6s1snt7T4W1gkAwCEOwDMKTC7arq/9dQ3f7rlJ6V+mlEolNdjU+sC0R9s/8Evem/tCHbakmvtAEC4A8Ccur34YKDGQMO/PHj9k8NPlPJLtZ1st2RZdHtxGVKg5amRp7/y3I1Rb93UQ1IJdwAg3AFgjkFcfCpTrSa0f/7t+8YyoyX7OguFgixupChKf56NvsaJ3OSnNn2sIAs17hr2fwQAwh0A5odlF29UHU4NvfeufyzZjdILBav015s40wvoAbfq+vQTn9we39bqb2VpOwAQ7gAwr1lsF7preh4bePS6372/VMO9UOLrZKQiNVWr8Ue+tvmmO/fd3hlaRrUDAOEOAPPPlvby6Ipbt97yb4/eWIovr+TvTJVSNgUb7+q76+ubb2r2taiCr0QAQLgDwEJ0pyKd1uyq6f7apq/esvWnJfXaTNM0DENVS/fYbkmrLdi6Pbbjhic+6dcDAVdQspMMABDuALBQ7S6lV/c2BZo/ed/H/rDvwdJ5YblcNpfLaZpWstXe6GuK5xMffuy6pJms99bbLJIBAMIdABaULe2IJ+J3Bd5397XbY9tK5FWlUulMJlua4V6cmDviVvWPPf7hzRPPtwXaWdoOAIQ7ACwGpzubAk15K/+uO68ezYyUwkvKZrOGkS/BtSdTG+F7Q97gF57+/N39v1kW6mLzRwAg3AFg8RTsQke4Yyg9dM0d78wVckv+egzDME3TsgoldX9qcRsZRa0PRn+w7Qff2/bt9kC7ylcfACDcAWDx27070v3c2HPv/vU1S9zHUubzedu2nXYvrftTpdIUarqn754vPf25el+jR/NKnpAKAIQ7ACw+S1oralf8vu/377/72iV8GU61G4Yxle+50gl3ZzitoRbnxOZjj3/YSfawK8wiGQAg3AFgyTi5vDK68ufbbv3U/Z9YqteQzWb3X2t3Cr5E9lh0qr090NafHHj/w9fmrGyDt4EbUgGAcAeAJQ13RQpFrIiu/O9nv/evj3x5SV5DOp22bVvTtP2X3pf8orvT6M3+5riReO9D7x7KDLb626h2ACDcAaAk2l1TteU1y296/CvfevIbi/8CcrmcEMLpddM08/kl3s3dafTiNu22/f6Hr906ubkj2Em1AwDhDgAl0+5SujX3spquz/3hMz947uZF/t0zmcz+WHdeRjabXcLVMra0a9w1Xs3zoceue3D4/mVBNn8EAMIdAEqMU6g+3dcR6fz0A9f/ZMuPF+33dUr9T89Mdf7ufNswjCW56O5MIOQKBT2BTz7+8Tv6ftUV6uZTAQCEOwCUaLsHXcHmQNNH7v3gL7f/YnF+00wmUygU9q9r379aJpvNLP4yd+e9B1yBsC/0pae+8KPd/9MZWqYqKps/AgDhDgAlypJW0B1uDjR/+J4P3LnrjsUJd9v+83IUIUQ6XfyexXwSk5z6rw013shNz/zHt7d+qy3Q7lJdVDsAEO4AUNJsaUU8NTXe2vfd9d7f7Pr1Qv926XT6hdfXdV3P5bIOTdMX6/3abs0bDdR+Z8u3v/r8v7X6W7yal6XtAEC4A0AZsKRV662N+uuuvfsff73rzoX7jQqFQiaTcWL9hd8ppUynU4tW7U6m1wei399y843PfKnZ1+LT/VQ7AMwvnREAwMK2u6dWkco/3f1e5x8v6LlwIX4Xp9oNw3hRuDv/mE6nw+Gc2+22rAXcinF/tdc51b71+5976l/qvQ0BV4BqB4B5xxV3AFj4dvfWRr3R99393gVa7+4EeqFQeNFyducfLauQSqVUdQH3lnEC3aN5/q/ab6j31gddQaodAAh3ACjndvfVvec37/7plp/M+6/v1PkBb0LVND2VSi7cw5imqt1bH6j7/tab/6/aQ1Q7ABDuAFDe7V7jqWkJtnzk3g/97+b/mc96tu10Ov2idTJ/PMSraqFgJpPJhbjo/ud17X9cIUO1A8DC0la/chVTAIBFIBXp030e3XPrtltC7tDRTcfMyy+bSqUGBwedcD/gRXfnO03T8Pl8zg+Yx2ep7n/OVF0w+oM/r5Ch2gGAcAeACmp3j+YJuIK3bf+Fk9Qntp40918zFouNj4+7XK4D/lvnd5l6MJMIBoOWNT9h7QS6X/dHfbXf3fydLz3z+TqqHQAIdwCoyHZ3a+6QO3znrjuSRvL0zjPm+AsODw8fbKnMfqqq5vM5j8fvdrtf+JCmWVd70BWs8Ue+9txN//rsFxu9TdyNCgCLgzXuALDYis8q0t0royv/6+nvXPfb983plzr4Avc/mdpexo7HJ6e+OacHqVrSirgjEW/4y0996avP/Xurv42dHwGAcAeASial1FRtVd3qn2372d//6m2GZczu10mlUplM5rCbxkzt6Z5Mp1OHTvzDVnvUEw26Ajdsuv5bW77eGmj16T6qHQAIdwCo/HYXilhTt+bBvfe/4dbXjmfHZxfulmUd9jr61A8QExMx5wer6myO/E61N3obPZrng49e9/3t/90R6PRqXqodAAh3AKiOdlek074roiu3xra+7pardk3snOmvkEgkphniuq7ncrnJyclZXHR3qr3F3+r8/b1/+Idf9N7aFep2qS6qHQAIdwCoLk4Q99Qsj+UmXn/rax4ZeGj6P9E0zUwmM/0Qd35kPD6ZzWZn1O7Oy2sPtMWNyasfePtvB37bHerRhOaccvAHBwCEOwBUnYJd6Ah3aEJ/621/e+vWW6b5s5LJZC43g6eiqqpm23YsVlyTM527VPf/B4H2UFt/euDt971t09hjPaEeoQiqHQCWBNtBAkBJKG6z6A7qqn7Llp/a0jqpbeNhf8rIyEg8Hj/YDu4HPuhrWj6fcwp+alt369DV7jR6a7hlc2zLux58x95U77JQF8kOAEuIK+4AUCosaYXcoe7a7q8+/pVr73qPaZuH/vHJZHL6l9tf0O76xEQsm83ouutgz1ItbnojtJZQ80ODD7/z/reNZkc7g8tY1A4AhDsA4I+KW7xr7tV1q+/Y+avX3fLqgdTAwX5kZsos7jRVVdXp8rGxMdu2D9j9zmvwaJ6mUOPte25/z4PXGJbRFmhzTir40wEAwh0A8Gf7r4Kvqlu9c3Lnq3/yiof7D3y7ajKZNAxjdns7OrmfzWbHx8eccH/RYvf9D0atC0S/v+XmDz96nVvzNPqaqHYAINwBAAdm2VZXpLim/G23vfl7z/zXAcN9Lo9BdblciUQ8kUi8cIm8E+g1npqIN/xvT9/42Sc/XeupjXqiVDsAlAhuTgWAEjV1u2rIo3t/sf3W/uS+MzrP1NQ/rmyxLGvv3r1SytldcVf+b1eZTCbj8/k8Ho/zC9qK3eBt8GieTzz+8e9t/06bv83vCrCuHQBKB1fcAaB0WdLyuXyr6lb/YvvPr/rpK3bEtu///lQqNaONIA9I13Un/UdGhguFgtBEs6/FafdrH3r3T3b977Jgl3PCQLUDAOEOAJgup62FIpx270/2v/KnV96/+z5lap2MZVlzWSqz/1d22t0w8kPDQy3+5kQhcc39b7+7/66ucLcu9INtOAMAINwBAAdl2VZ7uN3n9n7ong/s2rUrYARUfR4O4FKRbpenVtY+v3fzex665rGxR7tDPaqisl87ABDuAIDZt3uzr8V0Gf/00Ht2je3qCHbM/bZRoYhGT+NjqUfe/cTV2ya2doV6nGSn2gGAcAcAzK3dpdXoadpn7f1036dG8iP17vq5LEN3fm6Tp/mJxKbP7flMVsk2+Zoli9oBgHAHAMwLp7ZbvW29md1f6bvRkrZf88/uArnzs8J6eDQ/8s19X3cJfY7nAAAAwh0AcIB2b/O2P5l84rbRX0RddbP+dUJ6+Fdjv+zL9da7G6h2ACDcAQDzTyjCSfa7xu/ck90d1sOz+BWcn7Urs+OByfvrXVxrBwDCHQCwMKQiQ1poKD90/+R9QS0009Uyzo93ftbD8YdHjBG/FmCeAEC4AwAWiq3YIT28Kf7YcH7Ip/pm9HM9qidmjj+dfDKgBdhDBgAIdwDAwgrpob5c7+b0c2E9MqP+Dmnh7ZltvbnesBZmjABAuAMAFvoIrlqK9Xz6eanYQpnBU1Rdqr49vS1rZTShMUYAINwBAAvr/7P3HnByXXWeb91ct3JVV1XnqFYn5SzbkmUbZ7BxBHvADNnDwg5vZ+btvjePt8MCyzDDMOSBAQYYJzDONg44yLaSlXPnljqnyjncuP9bJQsHSe5KHf9f16fdXap76twTf/9z/+d/VJ1qpExnEgMewaMn9TO8iibosBQ5kzzDkXr0k0EQBEHhjiAIgswGBtIwlZ4aSQ4bZ7zHlKf4qfTkRHrCSBmwABEEQVC4IwiCILMyiBNkUkkMp4ZpgpnhJXqSn0yPh8UgQ7JYgAiCICjcEQRBkFmC0lGjqZGUkiJnNqQTOt1YakxQxZzc4hEEQRAU7giCIEhB8JRhMj0RFP3sDFbQSYJMKelpYRrkPhYdgiAICncEQRBk9uBILigGvKKXm8H+VJpgIlLYJ3j1FIdFhyAIgsIdQRAEmT0ogorJcY/g4Waw4g6fCUnBkBRiCHRwRxAEQeGOIAiCzCKEjpBUySt4dTPwWWcJNigGY1KMmfFmVgRBEASFO4IgCFIcKB3pF3yiKnzgflOSIEG4C/BJAnemIgiCoHBHEARBZheaZIJSICEnaIK+9CcJHRmSgpIqYUgZBEEQFO4IgiDIbMMRbEgMRaUoKPhLqnZCUsWwFEbVjiAIgsIdQRAEmQMogo7L8ZgcvfSKO0mQaSUdlSLMBy3MIwiCICjcEQRBkFIIdyqlJMOaImcuOeKTgiLEpBh8HgsNQRAEhTuCIAgyJ8JdW0qnL6nI4WNJJQkvClfcEQRBULgjCIIgc4KqqlE5qurUS3yGJmhQ7SklhSvuCIIgKNwRBEGQORLuOiUqRUG+X+IzoNfTcgqFO4IgCAp3BEEQZA6Fuy4hxxSdcomIMSRBgmoXFZHEwR9BEASFO4IgCDInUASVkJOCIoA6v9hnCB2ZVJKyKmNxIQiCoHBHEARB5gY6s/FUUIVLrKaTOiKtpGWdjHHcEQRBULgjCIIgc4MWMUZOiJdecScI+ICiyvALlhiCIAgKdwRBEGRORnMqraQFVSR0l3KVSatpWcUVdwRBEBTuCIIgyFyN5gQhqiJod+riK+7wGUmRFVXB4kIQBEHhjiAIgswNhI6UVOnSm1NlVRFVgSBw5EcQBEHhjiAIgszVaE6QoioKSprUURdR9oSqKiDu0UsGQRAEhTuCIAgyZ4AulxQRtPslVtzRsx1BEASFO4IgCDLno7nmKgOvS4SDlFUlpaRwZyqCIAgKdwRBEGQuUXSqqIqX/IiqqCouvCMIgqBwRxAEQeYMgtCpOkVQBOLSn9IiuKtYXAiCICjcEQRBkLkhI8ZxKR1BEASFO4IgCDK/IXSEosopJaXDU1ERBEFQuCMIgiDzGVWnw8OVEARBULgjCIIg8x0iE80dywFBEASFO4IgCDKvwRV3BEEQFO4IgiDIAkDBMO0IgiAo3BEEQZB5ztt6Xb3kB1RVW5JHZY8gCILCHUEQBJkj1HOSnbjEB0C70wSNcdwRBEFQuCMIgiDze8QnKI7UqyjcEQRBULgjCIIg8xpVVXW4exVBEASFO4IgCDJ3nHNhv6QuJwiCxGEfQRAEhTuCIAgyh2gu7ATJEtzFXNjhA6ROc5VR0FUGQRAEhTuCIAgypwM6yZIsqnIEQRAU7giCIMg8R730AUyqTuFIjiIo3J+KIAiCwh1BEASZO9n+56CQF/0AqHYS47gjCIKgcEcQBEHmULeTOtJMm+GnelE3d4UlWRJX3BEEQRYmNBYBgiDIotHukiJaaAupI6JyNCEnFJ1CvGN9XVVVhmC0wDIqHp+KIAiCwh1BEASZCwhtud3ynPe5nnhPu6l9uaGlSl8NMj0mxeKagpdBwau6jHAnSFxxRxAEQeGOIAiCzBksycbl6BvBnbuCb1Rwlc2G5hZDW6uxrVpfzZH6hBQH7c6QDIZyRxAEQeGOIAiCzCWKqoBAr2ArVZ0ak2O7grt2B3eXs+5GflmbsR0U/Erzqhp9LU3QsipTBIUlhiAIgsIdQRAEmTOybjA8yfMsD78kldSB8P794X1OxrnCtLKcqzBSxqSSxIJCEARB4Y4gCILMI/SkHhQ8qPm0kt4V3EURVBlTxhAMurkjCIKgcEcQBEHmF1mNzpGci3XB7yjZEQRBFii4RQlBEGQJQWAYSARBEBTuCIIgCIIgCIKgcEcQBEEQBEEQFO4IgiAIgiAIgqBwRxAEQRAEQRAEhTuCIAiCIAiCoHBHEARBEARBEASFO4IgCIIgCIIgKNwRBEEQBEEQBIU7giAIgiAIgiAo3BEEQRAEQRAEQeGOIAiCIAiCICjcEQRBEARBEARB4Y4gCIIgCIIgKNwRBEEQBEEQBEHhjiAIgiAIgiAICncEQRAEQRAEQeGOIAiCIAiCIAgKdwRBEARBEARBULgjCIIgCIIgCAp3BEEQBEEQBEFQuCMIgiAIgiAICncEQRAEQRAEQVC4IwiCIAiCIAiCwh1BEARBEARBULgjCIIgCIIgCILCHUEQBEEQBEEQFO4IgiAIgiAIgsIdQRAEQRAEQRAU7giCIAiCIAiCoHBHEARBEARBEBTuCIIgCIIgCIKgcEcQBEEQBEEQFO4IgiAIgiAIgqBwRxAEQRAEQRAEhTuCIAiCIAiCoHBHEARBEARBEASFO4IgCIIgCIIgKNwRBEEQBEEQBIU7giAIgiAIgiAo3BEEQRAEQRBkiUNjESAIgiDIUkPN/PcuiMx/c5WZzP8KhyCIJVeDc1dxCAp3BEEQBEFKrPlUVZAFWSe/X/CRxIUfxcMn81OHoC7VD5LkkB+1KLJdzeSTPJdPMpthTcsTRObnxe5uwSGpkiiLf661t+/1He9kKq3Ygn4mtZkTZCanWXOL0KqORCMEhTuCIAiCIH9WyYpOqbJUW1iLospZHUZk9JMv4fUlfaCl3rNunVVV+X2dpsMurvRkRdYzeifvNDJG+NICRSFLspOxSX/Sn1Xq2Ty/UwhqBgKhe8+bCw5ZlRmSqbfU0yQDtykq4mRkPCElCIIi3l3wRefStZlfiu9pnOffQQWPwh1BEARBlrpqlxTJzJm+sPYLW6q2JqWkDDL+bfmUktNpOf1OwUQSlKSIwVTAG5sWZIEic5ANoMIlVeYpvt7WwDP8hbxztHcogtJTXE4pXwySIOGO4BYYko0L0fHIWFyMexM+sEaGwkPT8cmxyJggCSzN0iQN2pejuKzA1y0cHxuoPrjBHXVXfWnjlw20QVEVWZWSYlJS5OwtUCQlyOJYZCSSCkH1FfGroXk4+LJ6awNFkprCLswAIAgykg6PhYfBeJuMT0WF2GB4YDQ8Mh6dhJZmYA1QQSzJZBvG+WpCULgjCIIgyJIApE9MjNl5+z0rPrG+ciNJUkbW9M4PmC9yYa2lVufWRH+u4lbRvc+Ho8SYzt+R0d1kXwb/B+0OujacDoOmD6WCIOKnY1NT8emx6Gi/vw90sJ7WsyTLZFav1SKvJxe7BgkiJaVAmt+47EYn7zz/vpWzveeTdVBlWcuoeCjnPKaKRqWporWsFTIJzVKQxFA6FBOicSHuSXh6fT3j0bGB0EAgFTAwBo4E047CLozCHUEQBEGWCiBS4ef6ig23tnyUyn0tNo816fngUW5kjPByGpzvfFOQBe0xQtw7EZs4OnWk03u6198rq7KNs/EMTxHzVCOCBWLX269uuGZtxfqZGmvFo2S1SZgYs47ROXjH+bfkZhksronY+EhkeM/I7v3j+4PxoJ7RW1gLQzEFrvcvaKjWu1twLEMQBEGQxQ1JkFEhSpPUZ9Z8ts5av8RLgyIpE2tyG8uX2ZvbnR0drhWr3asbLA0RMTIVm46LUfgMQzLzajMrGE7+pL/B1vjVTX9j5kyLvrlyNOc0uKCCljtaV7lXN9oaZFWZik2FUyGWYmmK0emWonzHFXcEQRAEWfykpZSZNa+v2LjatQZL452U8WXwWleurWGPR8eGQ8PHpo4enjzU6esEfW/X20EmzoclXkmWOIptc7Y5jWVLqoJqLDXw2l575V3p0AnPiZ1DO98a2zsVniw3VvA0L6vy0rI5ccUdQRAEQRY3hI4IpkN11rpPr/50laWWJHCf34WxcJZaa92a8rVN9mYHb9fp1MnIpDfhZUiapbm53R+ZlJIO3nFn2131S/KBCUEQeppvsDZ0OFeUG8tBr49FR8PpsIk1Lal9qyjcEQRBEGSRo6hKWkpvrdl6V/vdiyaWeemgSbrSVLm5assVtdvrrLUOfVkwFRyPjVMkxZLsXOUqKkRBtn5x/ReLEoFn4WJije3Ojqsbrq611vf7+6dikyzFao7vS8NzBoU7giAIgixyBEXgKO6q+qtWuldjacwcnuZbylovq76cZ/hQOuRPeAOpAMhEzXlm1mViQkxUmCtvbbkN60WX2YHQbF9eZ6nr8XVPxMZ1hA7qaClsWkXhjiAIgiCLH5qkFVUZCg31+vumopOexHQg5U8IcVGRQPSAEp3j/L1bcinZQ1DnhwsERVJtzvYrarfVWxpSYtKf9MfFOEuz5OxGzaEIEspoMjrZ6+v1JX1T8YlgMhgT4yk5SRE0CSy9Zym1ltpNVZv0NN/t6wLDxsAYFv26O3Hrox/G4QxBEARBFvNkn1HAoGzgJauyqIgW1uI0lNVYaqvM1U6Dq93ZUWuq0TO8iTPNgjeIKIsxIZaQE5SOiIvJidhkXIiC5Dqv1AVFsjDGOjNkyaBo0UMUjtaDdZE5rUkPSnquROrZ4ODTfU/8sf/ZpJSyslY9rZ81pQi3LClSKB2Cn7Ii0SRTZ6mrNFc59I5GWxPPGpbbl5cb3ARBGliDiSlV2BlBFlJyCozAi5hVKkfpGa2mZq+CoHn8877vPNnzpIk1WTnr4t6uisIdQRAEQZYKf1aZmXNMNbS1bhV0GEPSdr6s3lK/3NG80r3GZXRXGMsZkinit8uKfCY00O3rOjF9fCQ8OhWbFBQB9Oi5s0vfm9Vzuc3kU3EZyi2cmad5u95h09vsvANsD1CuRtbIM7yRMcGfs3ZGz86h114680Kn97QgCaCYZ/PJwHtr8O1K1NSrqig6BUqmwlixyrWypax1hWtVGV+0EDTPDzzf6++JpSO+pB+Mh/fH9c96qpQby82smdYC8pRVmyqtvM1hKANzy6a3Q/WVqFhSUurx7j/89uRvoC6MjHERr7ujcEcQBEGQJangM/+B2jsn/jK/KDoVxCi82Whv+vyaL15ecwVNFU0Nn5w++b/3fmMkPMwzRpqgSPLcoiyRPdL+fSrwnfLr7T8zGT2XYVVSRTvnqLFUtzs7ljta28s66m2zFHElLsZ+cOBfXx18VZc542lOzvWEasqWjKJTzhdRtk7TUhq07K0tH/382vsrTOWFf9ehiYPf3PMNT2zKxJrIS96skq2fTKVJqgzWhNtY3mRftqFiQ4drVbuzjS7Z5tpv7/nmU71PuU1uhli0e1VRuCMIgiAIck7OgwTM6j9Q0iAAa6y1/2XDf1lTvq7wtCOpyK9P/Oqpvid5mmdJNlcP9vM6LKsJzy3Gq1o+KULznCEIEoyBSnNlnbVhnXt9o73RZXTxFF86SZ2S0ruG33ik88Gp+DSI0flz3uo5ewwMG1msMFX+zda/W1O+tsA0f3ToBw+feshpcH7AbRK68ztEs6ahtltBqx4SLoS/y43lHc6OzdVb28rajayxuI90JmITvz3xm9eHXuNpPbFIPf5xcyqCIAiCIOdUF+hg0FhZD/K0nOoL9E3FppY7loNiKzDtncOvvXr25Ug6YmAM2vo6kXvWsq8M2Uxm3WxApIqKCLlNiAlP3HM2eGbP6O6Xzjw/EBhgaKbOWkuUZhcpiPVljuYm27Iub2cwFQTBOifr7hcsq6xQVnTSmeCZmBC7vumGQhIcjgxB3Y1Hx0ysmbg0uj//eq6OSFIlVFmVBe0hQNKfDECj2j26643hndASWhzFVKFm1lxjrdk7ujuUCnM0h8IdQRAEQZCloeEJgqU4Pa0Pp0K+pH9V+RojYygkwePTxzq9p1NSqrgRbLICERQzQzJaPG+SgT8zSlEBMX108shbY2+NRcZ5mnfwjlJsaS03VWyu3BxM+cei49n8zCORR9Ja8RCEw1BWaarK20dlMHDm6PRRb8LL5XUKVdaQgG/PBlwHKQ+2FlhZA4H+XaO7OIprtDYVa5uAXW+HxI9PH6UpZlEezITCHUEQBEGQCwMyKy7GvUnvCueKOmtdIUm9NvRqp6+TyKjJktoboBFBvoNMFBUhnA6PRce6fZ0HJ/d3+TrdhnKX0V30LzVz5nbnCk/cOxIZFiSBpubRAUlQIIoqp8TU2vJ1hnxNr/Ho2PHp4564hyv4+NjzIh5+hlKh4dAQpDwUHmyyN1s4S1Fu2WlwQcpnggMEsQhDZKJwRxAEQRDkUlJLVdVKU2WHcyVdgCvI3rE9oKUguVnzJ9FiR9K8ntGD0oyJscnYVH+gbyA4UGGssOntxf0uI2PscHZ4E57h8FDWeJg/wl1UREWRr264xsSa80tkKjZ5wnNiKj5VuHB/Z8ZYijUwfEpOj0RGz4QGoACtnLXwlE2syWlwvjn8Jtz4PHFeQuGOIAiCIMgsyd+4FAfJvqlqs5E15p3OwYkDZ4NnVd1sO4KD0KRJhqFYWSePRUdPTB8/6TkZSAYbbPV8Yc4/78HAGDpcK3xJ/0h4JCWlGIqZD9UH+jgtpwVVuGnZzXnL4snYxAnP8en4dBGF+/nsQUFJqjQYGnz57EtuY/kye3PhyTp4x0RsrMffzZDMvHJeKhwShyQEQRAEQS4hrRRVjqSjSSm5QG8hG4KGJVmHvszBl41Ehp/ofex7+/+lz99b3C8q48u+sO7+bbXbJEUU5PT88bEm57fe4yneoXf4Ev6fHv5x5rFMEazNTZWblXdHFEXhjiAIgiDIkkDVKdmo4QsdkO9WzibJ4qtDr/zda3/zo0M/SIiJIqbvMji/tOHLNy67mSaZuBSfL2pvfq86Z8OP1lpqxyPj//DG105OHy88zXprQ7urAxT8IjtIFYU7giAIgiCXhjh/vunCt0C0JVgDY6wwVvgTvqd7n/zxoR+NhEeK+BU2ve3z6764rnxDLB0TFXGRuWqUDlDY1ZbqU97Tf+j6Q+GpOfiyzZVboN3KCgp3BEEQBEGWDDRJpWVhJDIiyMLiuKOsfHcby/U0/7vOh+5/4Qtvje4rYvplfNlXNn1lU9WWlJQSZXE+mF4szc7/egHjsMJc8erQy8/2Pl1gUhbOcmXtlVDPkiKhcEcQBEEQZKlA6khZkYJJvyAJi+m+FFVhSKbR1uRJTP3T/u+8dOalIiYOVsF9qz/VZGsKJANzrIa1XQpKIBGY/zUCBpWRNoK189b4vmgqXGgVmMp5hl9kbu4o3BEEQRAEubScygTvozlyMR4jD6K23tLgT/i+ufvrD59+KC2li5XypspNn17zWafBGRWicyn1Mu4io5HRBVEdmsOMuebAxMH/OPHrApPKxvmhdNTi2J6Bwh1BEARBEEQTiyCvwTj5fefDT/Q+rgUjKRLbardvrt4aE2KSIs7lJgFCN0/CU84ElmJDqWC3r1OQCzKiKIJyGVwgdRfTojsKdwRBEARBljqKqoB2T4jJXx//1SOnH4ZfipXyxzvuWeVenZJSiyy8SUnrwsE7PAnPW+P7C0zKwZeBvVRESwyFO4IgCIIgyNwD8s7MmtNy+rGeR5/pfbJYDv0tjpYbm26ycva4GFuggXkokp5lLyme5idjE93ergLTqbXUQs5VdJVBEARBEARZbNpdpzr0jqSYfOjUA0/0PqYoxRF8d3d87ObmmyVFluQFGeEkKSYEWZjNuJagtqG4PMnpAtNJZ+MgLaKInCjcEQRBEAQpOQslDDzkk6O5UDr4bO/Th6YOFWtf4+bqyypN1XExvhDrbiw6Fk6FaYKezUrkKDaQCAwE+ws0ALIGGQp3BEEQBEGQmSKqoqpbAB4L2imeOsLBOwPp4Pf3/8uJYpziCax2r7q+6Xqe5udHWPfcSEopYdZPkmIpLpIOD4bOFpJIlamK1JG4ORVBEARBEGSmpMRkJBVVVHWhBJSkSIom6KHw0IOnHkgIiaKk+aHGazZWbUxKiQWnIzMZnu08sxQTSoeHQkOFJMLTeh1BoHBHEARBEASZKYqaVX4LxtVYVVWapG2cbSg0+EjnQ/6kv/A0G6xN2+uuJDTv7QXm6Z7xkJntutMKShYTYkFWky/h06kKoUMfdwRBEARBkJmKsHN6eGFlm6M5EI4Pnn7g6NSRoiS42r2mw9WRklKL7DjPUkARVFJKFmgyBdMhRacSuDkVQRAEQRBkkdsbOkI7t0hVXzn7cigVLjzBCmPl1urLFFVZTGd5lkq4k1RKSgaSgUISoUl6ARqMKNwRBEEQBEFyRNVpTvlG1nRs6uirZ/8kyEWI7L6pavPmqs2SLC2mU4FKo1BJWVUEpaAyn4pNgI2EK+4IgiAIgiBLApqgGYp5tOf3x6aPFZ5aq6NtW+32hJRQdLjoXnLLazQyCgYSCncEQRAEQZAlAUmQNEn3+3tfO/tqUbwuVrnXNlgb5YV5GNOsoagKQ9IG2pB3Ckkx2efvVVSZXERyF4U7giAIgiDIRclGdq80VR2ZOtzt7S48wXpr7Sr3ypScntW7WGhe9ZIq8bTBbXDlnYIgi76ETwtmhCvuCIIgCIIgSweGYqdik68OvRpJF7pLlSSoteXrWIpRFGV2wssQmuCjFlaBK4rM0XqL3pavahf2jO4WFZEmqMXUDlG4IwiCIAiCfDA2ve2NkZ0nPEU4S7XCVFVrqQNBPQtbVFXt3CuqjHcsMOGuqixFG5k8XWWm4lOvDL0s62SaZFC4IwiCIAiCLCEIHUGT9FBo8NhkEYT78rKW65fdRBDELMSFhK8gCbLM6FxYBZ6Sk07etdK1Kr/LxyIjxyaPKopCkbjijiAIUoS5RJYUqbiTlqzKKSkVE2KRdCQqRKPpCPwO74iKiFGTEQQpHDNrOe09NRwZKTAdPcWtrVgH4xKMWrOScVVW5AVUzmAmxcWEVW/ThHvuzySgVPeN7aVIcjGdmZqFxk6YT/NX1ZgYi4sxM2s2MWZdZudKgQ1UlIW0nBYUUQIx844QUZlThkmGYjiKY2kWzP3Zj/wK2YM+IGRyCEoLOj/k8J2dAXLFkAz81NN6iqCW+IFwMBCDUoQSg4LSfsJoeaHzliktTAFDEmS26GiKXnzjywXbEjQPaEsRISLKIrRqnuGh2ZA6Mu9mA6klxERSSkKBQ0+x6C02vY2lOJ2qQIrwZlyMx4U4VIqkSvCNRsYIP7WutPQaKrRGKHboyFAsEhgz7zvEnCZJioAfNKUjYcCBxpmtMhz2s10bGlvWCMyMhJJ6gdlBW96jSZbUERytNTMYEhfTxjjExJgGgv19vu56S12BSVlZi8vgmoxOZje/Ytm+Z7CCWbLWUgdzRB6Xnw0O7Bndw1F6mGRRuC9RzguOjD5QGu0Ntea68ei4N+GBYTrvLgdzACQIyZpYk8tUDt0YfoHJ8pw6Jwj4BebXqBD1J/3BVDAtpQ20AdoxSZIlVfDZ+wWhA98IL5h+QAxVW6rBUOFpHrpTdv1S+xihwi2EU2EQT96EF+7FwBhYij13XNnSmM6zhg1IIjBpoPocvMNIGxmKhZqC+jpfXO9qS6oYE6JpMZ0Q4zEhBgUIb0K5gfSEFAoRsvMWaO0pKQmKx8CYNldtbXG0QN/p8nUOBQe1/UO5NBitcSrnGico9ZayVjvvqDBUwO8ug9NtdBsZs5JZxwKRGkj6Q6lgMBnyJXzBVGAiNgG9SRJFHhoqyS7yVQadmhXrAvzQNmnRNt5eY6kF0wWGGvhTeXu1L9OXdSkpnZQSqcygBOUWTUcIHWhPmqMyIr6UU6CqWVoKtPz5I3OzzQyKTlQETZETlIWzVugroCig8YDBqZl/yrue5FAkLSjpSDoCF4ZSoWg6GpWjIOdhNNBGRQosIgoNoQVN9jjPk54TW6q3QnsoJClQ7RsqNr4Q+6PWIlC3v5u4GAfVvrFyYx7X9gZ6fnjwX0GZcCS3+EoGhfsH61eY9hJSIikmYfA1sqYqU5XT4Lqh6carG695sufJR04/KMqCtryXy2wAYgJmx7QsGBmjy+DWU/qWsuWtjrZ6W2O1udpA82pmsRCmSe3bxcRoZKTP3zsQHBiJjMBUCvoY5jYbZ4OZoOgOANryv2ZOJDS9TrFOvsxgMpQby1scrc325ZWWKifvZEkGpiWd5mulTffepG8wOOSJe077Tk7HpkKpcCgdgqlOT/Mg4rU1+EV3PhzcNpQAVA1UJYy3YMxY9VaYyKFCywxlrY5Wl6HCzFnKDA4X7wLRky2uLGTGHouLibHoGBhjnvj0RGx8IjYJ2j0pxsPpiCbiVRV0FZQekfnwAl41UcCaEeBmRVkysUYLa4Xu0+Zsu63ljmZHM6jDFwb++GhsKpaIzUS4Z/tjSkrBC9qVA4rX4G62N19Re+UK1worZ/nAFEbCI/vG9nZ6T3X5uwLJQFSKGlgDVN/i0+vaICNqZlJWo4NE4Cm9w1C2zL68razNprdXmio5mpNk8e1mSUJDgwbpTXpDyWAkHe4N9kxEJ0B6SrIUTAd9SZ8u09ShXxfXLIevzj42gTo1MIY57tqE1rVTYkpbo1FlyI+Ns0PXtnAWC2uus9U32ZYbGYPL6AL7HMpW0YT7uR4KXZVnDaDah8NDaSnVH+gfj437Et6oEIsLMdDx4bTWtSFNI2vMFDgq+AWJkTH1+HtOeU9dUbOtwJZfb61X3n5oj4vu7ywZ6EcNtoZ2Z3selx8cP3h08qjbWL4oixSF+4XFgaLLPgnVVqoYiqkyVRoYo9tQ3uxYtq32ymX25uwnN1dt+tOZF0YjozMU7jBMgyaWVMnEmKot1eXGCkhqa/XWRlvTpacr6NvbarfDL1EhemTy8OtDr41FxibjkyDiDayxiE1TW8WU02APQN6qzNUN1sbNVZtBstt5+yWusvPOFkdb9veUlNw3tq/H3zUQGBiPjIeFsKATYHpbNEvIWtuQJUErJa7aUgNVWW6qqLPWtZe11ZhrodxYekaLuA6drtZa906l5U/4zgTPdnpPD4UGp+JT4XQIpBJUbuYRx0JapQNjEoB2rmS281s5GzRgE2vucK5cXb5mhXOlkT3X2hmSbi1rqzRV+RK+7PapS0t2kHfwGave1maqBPWZOTl8S055g5qq04r9Xph3947sOTR5EIo6JSa1pxwkuQgGLq2UJAEK08pZa8w1YNjUWmobbY3tzhVVpipQ6h/QLA2OZbpl72yW3rhnKjZ10nvqTGDAE5+KCBEweGJC7NyjoYLX4EEogxkGOV/lXuXgywaCA+FUiNBW3YnZb7fZARDGK7fRDUrdZXRXmapXulbWWxuqzFUzNFfAegejCH7ZUX91tgxhoO4P9J32dg6GBr3xabCCPHEP/JPmW0hSuP6+4ICK6/Z2gTQsULhrI5KtQU9zmvc5Lrq/YygDM95lcG2vvTKPZxpHJg892/eUTW9frIYQCvc/NxTQGZKsqWpBFmE2yronQv8EVfGR5bduqFwPv7znKjNrhqnrA9e8s4mnMj42oFQceseW6q3XNl67unxtrvmEb7yq/mp4DQXP/vjwj49PHYvDDEqyHzgff+ACXVpJpzOrmBytX+FacVX9NVc1XGPIfSVST/PXNHwIXkkx+Xz/cy+ceX4wdFaURD2jZxZySCaYfbPOwWB9QasA7Vhnrb952Yc3VG4o451FaYFOgwteW6o1JTodn/rT2T+9MPB8JB2OiVHQwQbWxFLM/Jzjs04OouZRICqqTBAkS2qOAdAsq8010Jyub7qu3tL4fkcLeMfG2aEAM6uPiu5CKhAkHMxqmoe6ItEUXW9puLzmiuuW3VD9vv6YE6D74XVT881P9Dz26uDLoVRY87an9AvRvDy3SJzZgwu9DIQjvDZWbbq28boO54pCVsehWbqN5fACiwv+jKQje8d27xzcCQI0IcWjQpTQrC826xqXa9FpxphOjqdicTG+vnLjVzf9X/De9w78SzAZmE2HmXNdW0rrCK1rm1hTg7Xhyrort9ddVW4sL0rXBvGxoXITvLTFl1T41aFXnu5/OpAIxIV4dlEfChBn4QUETJQpOTUdK4JvuokxuQ3l07Gp9+wcW+KCzJPw3NJ8y93tH8v10i5f538c/5Uv4TPP4AEsCvcFKcUyKEpGdsCEZ2ItmWUkqszgggmv3taw2r3ayTuhO10wnJA/6QclR108tr+2BqYqgiLQml4vqzHXrK/csL1uR721vsDMN9ibvnXVt49MHvld10Mj4WFN0+Q7PWd3T8KM5TQ4N1du2V6/A5RW4b6/IIPu6vjYtrptrwy+umvkzaHwYDaW1kJsJ1lHF47iygzOWnPNxsqN2+uvtnFWRttRWpJl2nJjxSdX3nd3+8e7fd1/6HpkKDSYyvhzZ/yM58Xgrrz9X9ZwhZq1cJaMrctDQ2q2N7c520FkV5oqM3v1LlrviuYVppzrLhdCkAX4CeJmuWP5ttrtYPRWFibZ30mVueq/bvrqmvI1YCP1+vvAuoYRYGFNn9oWC1mGQgarvtzobnd27Ki7utnRzNJc0T34oYpvbLrp6vpro+nonrFdb43t88SnY0IMhkFonNAySe2xxQdrbq3Std07EmSbZwxba6748sYvg403EOiH8p8120nNxNmAn/Cl0GjrrA3QEi6v2VamL9PTbIk6mllvvaX1tltabhsIDDza+UhfoA/sHyjAojy+QGat5YBtDOISLNgmW1NBwp01Ntka/QkfWALYALKqCYaXCmPltcuuN7HmnK6NCOGHTz3Y6e20ctZFbAXRS6qnKZpDoTbJZVzKlKx/oeZDnNHwDdaGdZUb2hxtG6s3GmnTjNJULzrFZB9bZzYsCoIirnCuuKP9Yztqr5yhH8UMlTHI4gZ7/cOnH3pt8FUY+kHc5OSRkvE/FiGTPM2DOXF32911BVsU76HCVHXfqk9dVnPZ9/Z/FzSotqmL5rXl1YWwrqk9Opcl7VGMKtk4++bKTTe33LLGvWZ2vh1Kiaf16yvWwcub8Pz08I/fHH5TIkWKpEGQzaZ8zy6oazZu5qf2J0htNTMuamu92i7PKlP1pqpNq9xrlttbHAZ7junrdO9vDwTYBAq06kg6Umepu6P1ztvbbudK44x+Zd1V8Prhwe8/2fOEXtWDhbYgwoBou04VEeQvtNK2sraPLL/lhqYbWbq0m7FAnOtpDl63t94Br/Ho+JvDr78+tBMEKMhfUiHO1yWMgW8LkXNvaONsZrkk+68JKVFnrfv8mvu3110JNjC8yVKclbVoHyhl8WfXU0QoNy2Kl+AwlK0tX39n250drpWzNO8SNGSizdn2Dzu+4U14f3r4R7tHdmtumSTDUiyGoFkQcLR+Kj45VLBwNzKmBlvDseljioTxajU9JkjCVHzqM2s+c2XtjlxV+8+P/OyVsy87ja6FojFQuF9UW5+vP20npY6iaBreoGnaxJgabU0N1sYaS3WTvcnEWjIBW/QUMdNiyc5DF9Z82kqkFgpweVnr9Y3XX1Z7RbmhvBQjco259ssb/qubd/2+6/eyLBHUTN1RNEdknWLT2zZUbri+8YaV7tWlO6Sg2b78H3b8r6d7nnq29xlBEbTJad5bw1A4akacNlqbrmq4alPVlmpTtZ7Wz0lmXAb3f9vyf9/cfMvj3X84OX0C8qata85KGWZ7kPZ1JHH+HWgqDTat41Sba2stdVAymf12Bp425LRoBB0EJr+p6KSsKty7L9RUu5S28bbrGq+/reWOBntDqV2tPrHyPijnP519aTo2Nc/109tPC1Uw4TZXbb6q/pq17nVmzjz7HhfV5urb2+68tvG6ydjEcGS41983HZ+ajEwkxIRKXMAig5xzlL7KXFlvbdhcvbXR2lhpqjxf1GAP2Hj7uaC3JSv+bNhsVadA5rdWX3FV/VU1lhoja5yjru36H1f8/Z3t/b879cgp78nMKpIOtfsCEO4U5417x8JjBaZjYk3LHW1g9GaePS71oJCSLCWk+OfWfuHTqz+bm2pPh39w8Pu7h98EOxyGwcW97XuRC3dZkbPRUQRFdBvcleYqGCXXVq6rMlXXWxrsvBaVpRA1MBwajovaJq13ruVkPSZD6VAZX3Zn692fXPMpI13aOAnQ8+9Z+QmO4R869QA03w/czAHFAtMqzI4drhWfXPWp/MIt5UqFofL+9V9y8s7fdT7iTXgdvGPedi0tIoeUDqXDDbaG21tuu7HpZhtvn/NcWTkLSLQOZ8crgy8/dPrB6eiURW8B3Va6dQVozIKcjolxPcXV2xprLTUg08sN7gZ7Iwhch95ReOx5aAMpWQsR886NWefKPxVa4V7595f/f82O5bNTwk6D8y9WfgJMhV8e+/ekkGAodh4+uc5u0k1KyZSY2li16eMr7rms+vK5zRJP8/ByG8vXlK9TmlVRybjN6HS+uG8sNiEqQnZrtahKRspQZaqx6i0Ghs+YRu8tXjAItY3sBCmpUimKLtu0gqkgKHWwN25dfpvTUDbndcpT/CrX6o6rVuwafuPfjvx0Ij5h5azM4jqkffEBrVpQhOnENAxiBRpa9dZ6SgvMuqRX3DXfOVUajYzc2Xb332z525yuTYjxfz/6syd6HtdiZ9H8oi/JxSzcFUURFfGymsuvqNkGkh3GQT2t5yjeZXByxXiaDG0D5gD5fWfrgAoRZHFT5eZPr/n0ckdrqVX7+bnzzva7YDp/6OQDkAGe4S8mi7UH64pUbnZ/tOWOq+qudhdj99XMJ85bW26jSebXJ34VE2JGxjg/W05ciFs4y/a6Hbe0fLStrJWj5lEgWDDSbm+9w8W7nh/44ynPyZSc5KiSPATIShwrZ7u26YbLay6vNtcwJG1gDAbGWMSNCtAkGEI7f+qdfSgqRI208f4NX7qu6YZac80sl/COuquSYvKZvqemopP8XIcmvIDVrdNC64DhdF3Ddbe03Oo0uuZV9kiCgAaZbZNmztrgWKbJmnMtSvvXS1+eyqhqGLdLYjIRWteG7nzDspvuaLuz1dEyr+oXjJarGz9k5EzP9j0DXVvQogzjjtV5LDQzz47C6eBYZPSd8cHygKNZLMyUnKIJ+jOrP3vvyk/kdG23r/vBU789PnUcVLuZNS8F+2fRCvdM4EXh3o57P732c6XToW8fvZQ9LEknK9JUbLre1vC3W/5uS9XW0nmeXLjzk9xfrvpLE2N85PTDoVTIprer727B0DeCySA06/tWf+ru9o8VJRZKrsBUdFvr7QPB/mf6ntFT+lkuog+oT4JIiSnQDavKV//dlv/e5mzLIxEwisLJMJ3ZYGdkeaY05/tsq9u+sXrTQ6ce/M8Tv5UoycSZi/v4Irsfl2O4Ozvu+lj7x0s6XiflZFJKZOQdkZaFUDKwvmrDZ9d+YWPFxjlpBmBP3tl2F4wePz/8b2rGUponMwGUD9jk3qT3puabv7rxq64Zm9wJIX5k+sjRqaOZ6OwRXcZXhKW4ZY5lbt61zN7c7uxgKKY0ef6z18dM1iSTYsKf9BfdYQDyAMbASHBkpWvF/7/96x2uFfmsBKlKUkwJqrZVWk9y+Z3m+IFsrtoCr/88+ZsHTv5WVmQ9w6PTzLwFjEBfwj8cGS5QuMM04Ta6J2MTSyci5Lm49SohKEJUiMqqtLZ83Z2td1/bdF1O6RwYf+uf931nMDJUxpdZWIv89nFyKNwXHtoJ8wRRa62/om57KedRXTYOQFYxxYV4Ukp+RAtgdPcK96q5qU6S+WjL7RPRiad7n0pLKY7mzm/ATUlJUPPryjd8tOW2zdWbHfxcPiD+eMc9voRn18gut7F8/jjMgFUDA8k9K++9u/3jNbks9IIY6vF3D4eHw+lwMBmAcqZJWtGpeoq1ctZMlBVXhbGixdHq4B3FGpfB7AF9SehUqGt/wgcVWsSj6UG1Q9te5Vy9rebKUnfViBABUaU1UTmlKNINy276wvr7a2Z9of09XN94Q3+g/63RfQkxzjOGuW2lmc2UclSImTnLp1b9JZi+M1HtIPv6A32HJg/2+fsmYuPjkYmEduhbMruuQRF0t6/TxBod+jK3qRzk+xr3mg7nirm1pRNiIpqOkkWN1ASlBz0U7uvelffe3nonWCkzvxYkxXB4CIrRG/eE05GYGM9u1OZIxsJaQbtbOVuVuWq5Yzn08SI+ibqt9U6W0j/V88R0fNLCWRfWMQ5LB5Zip+PTZ4MD2VNW8kYLCcWYycyRuvPWxz3j05gUJIEltQOA8xgSs6cWZqPYZQ4kFiBBt7Fia83W9RUbLqu+otZSO/PUvAnvc/3P7hx8ZTrhqTJpZywsEdW+mIU7QzD11oZcYwnlhKhKQ5GhmBCD3htIBVy86/51X7q742Nze+96Wn/Pir/o8/fCZANNOTvie+NePc19vOPez639fIFHNBeFWkvdVzf/7UR0EvJZYa6cc+0ORRROhStNlX+x8pO3tnx05hcenjy0a/jNgWD/VGzKk/BAY6BIMOaYzNY6IhsUBd6B2d2ut4N2h1/anO3b665cZl9WeLYhzc+t/WKLo+37B78XSAbMrLlYEzyMqkbGCMNoqT2AtaV9WYLigvmvtaz1i2v/6qqGq+eDhwAYQl/Z+FWWZF488yLYw3MYxjR7kjFMctWWmk+t+vR1TdfP5KpQKvzI6Qd3Dr02Hh2HRmjhtJ33VtZCkjbdOW9vrXF6EsmxyHh8LMYxemif6yo23NB0w7qK9XNVBX3B/lAqoO2DLtLuTEjHn/C7jK57Oz6R0+B8ynNi18ibnb7uQNI3EZkAmxzU1dt+51B6msOSdjgaw5fxzgpTZZmhrN5Sv71ux8pihKaxcpZ7V9zbaGv44aEfeGLTfOaoWtTu8w2GYkLJAExkhaZDMi6Tm86EzZi32n25vQVmhHFiLJqOTwTHWS0MFPG+AmGpdzm5aR8QYKTJHC+l6BSXsRz6i4U1V5gq6q31TbZlFeYK+JmT3yx0yVfOvrx7dM++0T3QAV1Gd3a3/tJpeItTuMO4D00E5NRAoD97gl1JNIeqnSnojU/TFLOhcuPn134RrMb5cPtwy3d33PPvR382Hh1z8A6YuSsMFfdv+NKO+h3zQbWfz+QNy26ciE1Al57DLYDayTWyBKoRhqSvbv5vl9XMdJ8fXPLW2N7Huv/Q6+8FuWziTKCNHHrH+wVHdrNyNB0FZZ8Q4gcnDhybPnJFzRVry9e1lLUVfgtgBiSl1MOnHxgODYFhUJQxX9sdqEjBVCAtpUut4bRnQelQk63xM6s/e/2yG+bPMGLX27ZUXwbTQ1KMm1nLnMgmqAgQiMFUsN3Zcd+qT81wYa/L1/W7zocPjh2IizEYAbTI6O+e1TL3knVGh8nWCKITeoEv6Xtx4Pl+f+9HWm4BI3/2bxbudCDQF0qHDYyhcO1CZCznsehYo7XhKxv/elvdTJ8deRO+/eP7nux5vMffDT0Xqt7Emi54dHQ2DHxKSvX4uqGoOVp/fPrE9trtGys3tuV1Tvt72Fp9mSTLvzr+i75Abxlfhuvu805p6EhBEVJyqvCkyvR2WkdKOnnerrhvqtxo4yxhIRxJRWD6o7TzLt7V3WCQ8Sd8CTFx3j1O1XwfSDfvhh4t6iRVUR283aa3mxgTqG230cXnuAMwkPR3ejv3je0F4Z6UkhXmykUfQGZpCXf4CbL1p4d/3OXvWuNeu658HVfs8MYsxXy4+cNRIeI0uGFOnclTHmhhwXQwmAxMxaa0SBqEdmqa0+DUNB/vpIqnX69puGYqNvmtPf8rJkQ/vuKev1hxX32xA7QXzkeab52OTj/R+zjohrkarVJiSlalDzd/5N4Vn2h1ts7wqp1DO39x7OdDwbMgiarMVZeOnQ+3BoMLvIw6I8G7REU8PHFoz+iuckPFrS23fajp+uX25gLv4vqm662c5Wtv/L036akwVhb+xJAlWS2fU4ef6Xv6k6vuK135awENKfbKuivvbLurtax9vjXRzVWbr6i9YvfIrrScYmd9j3LG6T8NFlSHs+Ov1n95Y9WMnP6PTx/97v7v9vq6XQa30+jKRo38wFqgSAqkIcjQ4cjwz4/+7K2xtz6/7gsrXbPq8jcUGjztOaWoxTk/EjQ3aIgdtTs+t+4LK2a8Cr5nZNevT/waJDvkwMlr3i+X2OGQPVGOzmzahkEMSq/H17V3dHe1ufqOtjt31F/dVrBlvq1uG0US/7zvO4FU0MpZF3d06oWoNARFBJutKJ19nt+skTWtrVg/V98uK1KXv/NXx375RNfjeoavMlU6eMelu+cihmq9u2Wx3huIj1AqBMZZl7fLG/cEU0Ge5vV0MTdEVltqmh0t1zZeC+L7Eh+D+WMg2H/KcxLG9DeH39gzumfn0KuQsYMTB056Tvb4e+CfJqLjwVQIeq+ZMxHFUPDlxoq4GG9ztn9pw1eqZnbSJAi+cCo0FZ/s9fecCZ0Zi4yOREZGIsND4SFfwifIaegkRYzDAHUhqdKhyYOQ7CVOny0doE3D6fCGyo1/v+1roL9nWETP9T33syM/PRPsrzBVmrmcfbFgrIcR0MJaI0L4+PTxwdBZt7Gi2lzoUaA1lpqEGOsN9CakpJExFji7Z/VBOBUei475k/7MqajWwoM/XhATY15fsaHe1jhD7whVpyTEJFiknsQ0tNWYGMtu6HrHcT9Fg6FY0H+9vh5v0meg5yACSSQdgc4LVuWV9TNaMD4xffwnh340Eh4GFZ6Hew9UAdwmGKInvSc98ekraq7Ql+bEq/cTSoWf7Xvm2PQRjtYXWI+E9rxInI5Nrnav+dr2f2i0z+h8nLSUfuXsn355/Jddvk5Q4drDq7e30M289GCKKeMdUSF6aOJQr7+rwlRRk4vb7gWptdSBZTWkbaEJsvScnYAhyAIMd1Ck9daG/LYyQ6XA3DceHYP6XTRHhKallMtYvq12G1fYER+gAU55T2l+Mto4WPwqhsmOpdibmj9snTdP3XNsfunh8BCMxm3ODpgu4XZg8AdRB6XFzsu4vaVd07n10Q8v7juEngAjThz+k4U6a/0K14p1Fes6nCuWO0pusfgSnoHQmdOe033+nn5/32h0lKM4luLIjBt0tnNmd2nAz5SUUlVlmaO5w9mxvXbHxupNsyYUpuJTQ6GzY+HRocgw9I1AMgBKPSUmsxN/djMWTGOV5srsqeCtjtb1FevBMCi8t0iy9K8Hvvtk7+MgXmd5QoL2ALWwqWrzZ1Z/tsY6o8k1IcT/8+Rvf3Py10bWaOfsBS5sa146ihRJhcoMrmsar/1I8y2NtsYCb+oPXY/+5PCPOIo1MqbCV+Ygh9l46g7e3lLW2upsb3O01VvqZ6iEioh20El0dDo+PZ3wgCADEzclJaChaoEjGaPL4OYZ3syaGq2NNt7RVtZexOdLCSn+nyd+83j342BnzqanOxQ+qHZool/Z+Ne3tNw6s1LyfHPPN45OHQHtWGBwCmg8kXR4tXv1X234MoyWs3C/0LOg9cqqVHD0VUKUBcj/Gvfa+9f/1QzbalyEWv7tY92PUiRVeJhazUtHVXwJH4ikG5fdeFvLHfW2hgLTfKLniZ8d/ikJlhVjmJNF95gQqzJXfWLlfVfW7jCw+cxNSTHxnX3/eGBiP0VQc7hppLgEk4EWZ9vXtn29obDAMjuHdv708I/Tcko76q4Ex28lxISJNf7ohp+CHbjQyxxG/oFAPxjY/cH+0cjoQKCPJhir3rp0FuAX84r7uTFUR8BYDPO6iTUlxPhpz6ndo7t6/T1Wva2ML+NKczw4yJ0ub+fvun738KmH3hjeORWfJnSkXe/gWQN8IxiI2rZRkoIX/MJQDLwJWtDAGEPpEMy7Jz0nREWqMdeW9DA/VVUzX3fsyZ7Hft/5yDP9z/YH+kGlpcSUmTWDUjeyJpP2Mlsyj2hBRkxEJ45OHtk7tgfEk57hC5dHYMP4Et5DE4f1lH7WDgvMHmEDmq+lrOWvt/xNjWVGAUxADTxw6oGn+56EfNr09qIMEFCqBtYIM+L+8f2CnN5afVmB8xm0mb5A79nQWbD6ilKemo5hjbKijIZHD07sh74zEh4mCAoarU1vLXXoMijkidhEt6/r6d4nH+/+w3MDz+0d3X0mcGY8OgYiHsSWrGj1CH+OhId6/N1vDL+xa+RNMEQlRYTuZijG0yFGO+JK99bYHviiWQv7DXWXFJNw+9trt39i1X0z2WYgyOJLZ156fXgnC5VTsCrK+nedCQ4oqhZ7tKRGtaTKzw/88YGTv01KiQJFM3QoURF9SV+7s/1/XPb/1NpmNECBpnms6w8vnn1BkFLQ2otys9qzU9YMM87B8QOyqq50reKZglZky43lfYGe4dAQo9XvHDyfxBX3C5KSUzDUbKvdpkUMK4BIOrpvdDf0Yq3pELjifilAzlVbatZWrNtcubnc6Nac4qQECImYGAOzfyls4178wj07hmZfUKMwmIIYDaaDu0d27R3dA60Z/rRwlmJ1lenY1OGJg/925McPnXpwMDwI3wgKOBsTIOPFdi4nF8xe9qGPjbOBTjoyeRiEiI2zl5vKiz5Mp6Q0aPQ/nXnhp4d/8lz/00PhIZpkwIyBSQvaPQzK2Yd1xNtkZ0R4X0/rYewGUTgWGX19aOexqWMsxRW4TgydMC2nhsKDiqrOzmiu7XDX6Rqsjfet/suVM15NfLT79w+e+i1JEOZiB02HSgeJOR4bP+U5WWWudhvdeScFFeTknZ7Y9FhsrIjnRkEL1KqeNcNPT8Lz6uArrw2+Gk4Gob6geZdi92pSSh0c3/90zxOZJvrsaHQUag1UHcw6UFbaSWq01lCzdi/8qad5Q+ZfoQ1PRid2QuOcPhoTola91ZbxeSjo9gmyy9vlS3rh62bHvIQGFhOj2+t2fH79/c6ZnbdwfOrYY92PBlJ+KJniSE+wzwhqMjYJpQombh4pgKnT4+/xxD1pOQ2Ta0auUdkC1I47SIfAKjs2efQnh374wsALOu3cg4JcvLLhd2RFarQ3fW7dF9pnHKz9id7Hn+h+DCxzreiKV7/ZA3ogzbHoGJhAlaZKVwFdG5p9raXOk/SAdodRd9aWOVC4f+BsQpFkh2tlgctY0Ej2jO7OHj2Gwn2GQOdqtDVd13T9KvdqE2cSJCGqxWyNvi+4DQr3xXHbGSnsT/oPTuyHCa/GWlttri482R5f178e+O4jnY9Mx6c5Ws+CDieoPOZQkiRBIkzGJ3ePvOE0uFrKWovZgSXpyb7Hv3/gu3vH9iWlRMZ7JzcXMRhWSBIGK/Js8My+sT1QdE0FBDcEORhORw5NHszukCu1CQffEhWjdr3jL1Z9clvtdnoG36iqyompYw+eegDsPSNrKkmDJChJlXr9PaFUeFvdlUwBK6Yg/dOycHACylMp+vNozZojCY5mZVXeP35g59CrkPM6a52hqIfgjkXGf3/6kR8d+v5xzwmaovWgzMHontl8pj1hIyho1d6EByZCf8JXa6nRgtwXMBeaWHMg6R+OjCTExCw84oeshtNhPaW/u+OeDTMOVPVs39OHJg/QmZMlipUTKHwoQIVQYQjKw/7p9fV8e+83/9j/7GDo7FBoKLMnYWosOjESHu7z9+waefMXR3/xXP8zvoQva4YVLpTBVCs3Vn5ypRZ+Z4blMBweeuDkbydi45CHUuy0gRoRFKEv0Ccq0irX6kKObQLdD2M1tGpZVdjSHJiFwj0PQcyQ7MbKjaAgC0lnIja5NyPczy+WoXCfOW6je0vV1uWOVpijp2NTcSEO8+kiPnh4iQr387M7DEDhVKjb181SXK2lLu9ZeTQ8/MDJ3zx0+qGR8IiJNfE0T2XXlvLtgDCuwawpydJodKzSXAniuPBVtLgYf7bvmZ8c/uG+sb2KqkImM4YplccwkV2NgxQgn/vH9sNYvK5ifX6jOaSQkoVuXxdUxNsn0ZYKLWp4pj/f2nrb3e0fo2dmJwwEBh7ufGgsMga3XDrTAhIHrQYCcSg8BFLYrrfnnVSDrWEsMno2OFDgfqmL9R2oMioTSQNKstN36rWhVxmSqct3On8n/oQfmui/7P+n056TBtZoZIzZM85ymsw0w5IgoXfztN4b9x6cPARdabm9uRCtkJSS3d5OT8KjL0GRvgdFVWRF3lS1+d4V987w68aj4492/W46E/C7uJmBgXE6PiXK0sbKzbkWoKJTp+OeofCgXzN7hk5Mnzg4fuCtsb3wAkN9IDggKxII2WIp5rSUhkq/q+2uDzd/ZIZNcTQy8svjvzwTHMj6LpaoQrXIMxQ9HZ8GI6HWXFPI4Xcug3MyOjEaHSFmXfuicL+YIIZOurV6a0NhT55RuBdFvl/T8KE2Z5t2rl86DPKdJMlFuW91aW3FvaBaoikGpr1fHP3ZSGQkv0SOTx37x33ffvD0QzA/wcxRrIZC6kiYNWGY/tHBH/T6ewpM7Wzo7Lf3fuv7B74Hs5SkSHDjmh4qTCUTmv8MnZKTz/Q99Wz/U3mnU2eua7Q3Sapc6oCs2vN6HbnGvea21ttmflWn7zSYOiktIGBpLXiY3WVVfn1459O9T6kF+NCDettWt73KXJWW06Xz9suaMYSOBCPhP0/++rGe3xe4WxcMpG/u/vovj/17KBXUUgbzoDA9R2nn1yqgln519BdP9z0N4jt/wWR0g96CjjMLawpRIVpnqfvI8lus+pkucg+GB8FEKcXTADCcQqnQyenjnvhUrtc6Dc5V7tUW1gKi4dxBidrhi5nzFzNhLuFuCx+FdG+fyCgqQr2tfkfjNSw90356aOLgqekTiqKU+lkfS7JpKfXK2T/9afClQtIxsear6q+xc460LOgQBHkfmyq3/M/tX//Eyk8ZWCN0uoSUmM/n0aJwz3t2pziaE1X56OSRPC5/ceD5f37rH88Ez8AsVdxYk9m8wSTkS/ge735Mi/ueL/vH9n9rzzeOTBzJuAgbQYAWyabXAvEZWRPPGJ7pffqJ7sfyS8XGW5dlnjOWVLiDFQ4CotnRcnvbnTM/iGosMnJk8hDIF+081NJveQHtxZHswfEDLw68KEj5z81r3Ws3Vm2eSQzvAupeSzmzS9WelFJ7Rnaf9JzIu2oOTRz4tyM/Oek9CZ3IxJkZaKI5BuO7WHlaOAukD7blrpE3CxHuLc5WE2uCJlTSBgBZhRd818wd5CLpcJe3MyEmS2FYQhWYGbMv6Ts2dTTX2oAuU22u4jOnKcHvkD2O4mCw1dwIKU57llKkCQgyGRdjLY62v1z1mWrTTCOrRoTIwYkDCTFRFOPhA+Eo1syaXjv76gsDfxSU/Lv2mvK1H2q8liYoqcRNEUHeg6QFrY/HhFhMiF76lRBjYJ9nrPQUWOxgV8uKPJsnJd3edvv3r/vh5bXboN9pg6puUUWbobEtao/+daSoioOhs9DCcpr8okLsiZ7Hu309lSU7wUs73EdVj0wcPhMaWOHM5zDtI5OHHzz5207PaQdvh/my6OoTcmhgDKORsd91PtJctnyNe20eiTh5V2Z5VS1dLYPkgg68yr1yU9XmGV4lyuKp6ZMnPCdm89kuNCRv0vNo1++qzNVrK9bml4jT4NpWs/3oxJHpRPHdJ96vz0RJHA4PDwT615Xnc0LHQHDgwVMPdHo7s8fZFHmMI2hZJw8Fh149+/KGyk3OvBwVTIyx1lKrp/mkGH/73PuSkJSTDt6xteoyqMEZXuJJePr9vUkpYdPbSpEl6N1T8cnDk4cvr7nCnmPoDAdf9v5zW4vetRNSAiy9HXU7tlZfNsOrZFUG1T4YGiyRZ8IFcwoWS1SI/sfx/zCyph11V+WXilVv3VF/1ctnXwqnQzQ5257uSIkgifm+JJwQ4y+eeeGP/X9MZMJ5XWxChM6eCbxmqzBVGBhjUkzCLy6Dy8JZ7Xr7MntzgeF3Zk6jrfG/X/Y/nut7+vedj4aFsIk1UbpFcvYwCvc/L9qAas81xt/xqaO+hM8Ogpgs4bm7LK0dY/lUz5PWNbYac02ul8O8HhEiZtZcCtWeKTk1G/sskPTvG93b7Ggx5h6Bvox3NNqbJqMTMKGWYosYFCAIuDZ36/aZHRqfZTI2ecp3ehZ2zb5reteOcTGMRseeH3iu3dmWt5/6KtfqdmfH6NlRPa0v9c6BbNDVvG2bHl/32dBZEMSlCM8K2cscemXoC/bBIH5H2135eXlWm2uMjCGaDpe09tNSqsm2LKf96JFUJJqO0qVsoiCLvQnfaHQ8V+FuZIxgN5Z0uQvqNyWlGqwNmmqfcTOfik0dGHsrLsSZWdzlCd2EZ3hvwnNwfP/l1Vfk/dX1lvpNVZvfGHkjK5Jw9l4EpMXkbC5I58FrQ6/+sf+5s8Gz2XiLl55TIukIdDGYymFCPxcCm9AWZaD9aydvGF3lxsrljuXL7MvKeGfpFsWMjOmeFZ80s7ZfHP+5JIuzaKWjcJ9N8Z4LiqL2+XvB+uRKI4jPkw05smtk15bqLXkIdxAc5aaKsehYScsOCiEtp18f2gm29V3tH8v1cru+rNHa5IlNg/lEUUWWIDDEwNRu09s2VG5uyeUQ8pOeE68PvkZnwg7OZkPMPnzYP/7Wcc+xLVWX5ZeIntFvrt7S6T0ZFeKKJl5LOGAR56Ka5jP+htOhHn93UkwWMX7lBaQnyabE1M7B15rtzdvrduSRApimHKUXS+nmrpmIBFVrrYWJbeZXgaSOilGqZE0UBjee4n1Jz2nvyZXulWQuRiDM2WbWpD0lL5mbKbQcGHOuafhQTmE9BoNnTnlPg0UBemI2uzYUgoE2vHjmxbUVG65rvC7vrr2tbvvesT2ytluJXmT+u0uTidiEqAjZkXTe5tCb0DbSzOSsA+1kSVXS9trqiHQ6DSMAvKPqlIzbjKjXzrDXjtbR03qXwb2mfO3Gyo2r3KtLlPObmm8uN5Z/d/8/TUQn7Lxd82JY4Ovu6OP+HvmRA5JOjgiRbODVkiu5zHJal687jwbn4O1mzlzgxsGZzO4gvKJCtNffl87dOdust7iNbihJtQQnn8G9Q/banR1X1Fye04WTsYmYGMtOt7NrQaomxgTGxksDLw6Hh/JOp83Z1u5akXGbludnl1O1Y/CCMSFGZQKMlrBvEwSIyMn45LHp4/mlADUCXUlroiUb9GEwgV6w3N7Ckjk47IHBDFVc0ibKUEwwGewP9MeFeE4XsiRj4SxMyYwKLXSmEK6z1u2ovzqnAugL9MG9zLJqP1cmNCvK4sHx/SAj8k6kylQFcockKHVpHBW56IEmodPNawvMQGtnRM4w8pt28EtmW0v2nA3Q+iBCLJzVaXBVmKrMnAU+EE6HRyOjJ6aPPd//7M+P/Ozbe7/1ZM/jcSlRfJlLkBurNn1m9efAVAA7fxF4y6BwL0RzKFnvmll4+JIJQK4cnjg4HMpZxoFFWzYrATGgi4Jhfcpz4sjUoVyvtbDmRnsjDApysechKLqklIQZ+rLqy5vszTO/MJgKTUTHtbNO5mI4zcZAfGvsrdeHXs87kXJD+YbyjTBuztuDoMGi8CV83oQXckiWeDiCeoQO2+PrGo+N5yPcWWO5sYKj9KWTSiDcK43Vq1w5rDyBUTodn0pJ6ZIuH9AkDcbVeGQ0kaNwzwaNpUvmjqI9SeOs22quzOkYuFAq1OXrigsxopCQvQW0Qztvf/HM868Mvpx3Io22ppuW3QzCSFLmqU2O5IReOzeNVJfGzcKwAE3XyBgdeoeZtUSEyEnP8T90/f4nh378lRe/9L0D3wumAkX/0huab/zGld+qMFUGkoGF/pAKhXtB468WBH22WgBFkMFkYDo+neuFHMXpaX4WFmayEb69Se9g6GzuyoAy0YbM07Qij12gbEAR1lhq62y5nWw3EZnwJDzZI2/nwixUQXCn5fRJzwmQtvmaUiyYQxXmCq1g56UDJeRKUNJa/Bx1NpabDIwBRNuAvz+vDkhnzo5llZKVJFjXZs4MrxwukaWEmJBUsdSb20DiZkI6pnMrNJJ2Gtw8bchECFKLnqVwKlxlrt5cvTWnC+NiPJD0z6G3K4yTcTEBNmQ6x/J8j3aHBilibJl5MIgVPiYEUgFJlZaa15PmQZfZ0+XgyxqsjRzNnfKceK7v6X/c878f734UBH1x9cmm6s0fWX6LSqiQ8oKO747CfcFAU4ykyKemT8bSsVx7hygLcokfpr89T1Mwu09Ep2QlVzuBAOvCyJh0uiJP8Nq2VJLeULlhlWtVTgPKeHx0PDo2m7bZ+zqntuje6+/p9nXlncjysrYWRxtUyvyMh5WxfjNn38xKGTMk4014T3pOBlOhnKuDJMu0kK98iR5fwPQP9Z0Jv2DJRbyS2rGypV+rYykmKSU9CW8eF547frzYWZQy5ze1l7XX5rjzZzI2ERWiDDVnIVmgrqtN1QcnDrx05sW8EwGt0+ZcQRPM4giUsYBVVObEtwJb8nTcK2UcGpfsjgVoxizF1lrqTIzplaFX/nHft7/2+v/72tArxf2Wj3fcc3vLHSzFJcTEwi1qFO4Lhmwjm0pMBtL+XC81a7tAOLn0js4gNBmSjgihodBgzpYJyZ6Lf1LUaUiUxTK+LNfzqGFmTQiJhJCcw2U5GMgMtCEpJU54jseEaJ6mFEG6jeVwF/M8ZMEsdSKCkBXZn/InpXgel9t4W+keXsk6haM4G2djSW5+jj9y5iSEnK5SVDl7Ankpdt2lpFS9tX5txbqcUhbk9Eh4GKTS3C65gdkQSod7fN15nwvGUewyWxPP8qV4moHMXHMbGOPMg7debLpJySlVwe0K2q5WiqQarA3lxoq9Y3v/+a1/0s49kNJF/IpPrfl0h7MjkAwsXBMJhfsCMuu1yurx9Y6GR3O91qK38iVbKXx3e4JMEgEtctxQrkrRyJrKDGUkSMziTUJyxrN/bcXajVUbc7oQevVYZEw7L3lOOzcMYVCMx6eP5X22EVBjqa4yVVEEpeA+toxgCiT8/rg/j2uNtIEhGaU0Ignaqok1O03lMz/4Mzvly+psnGxCEhRI3kAyt3KTFDkhaZ48umIvJUJqMSHWYGtYX7EhpwuDqeBweFiQhbkV7tAZHXpHX6D3rbF9eSfS7GjW03pVp6JZPlfIiswzYNDbC0lEUASwb6EjY3DP872DJdlaS21STH5n37e/vvt/ng2dKVbiLt51R+udLoMrlAot0AJH4b6gaoskAqlAOJ2z41cmGNNsjOzZbhBJR31xf676Wxv+OFtmG27xhLu2dZgE891tKM/pwogQ8Sd92tQ+1/0alGIgERiP5B+Aws27YQQEI0RWcR+b1kRFWczPtzgtpaRMgLNSZAyaPU0yBpqnchGUFEEwFE2QZKmXXGmSTomp6YQnIedwhDP0IJiAyRLEmM96xzr4slyPnYqLcW/CK8kiOdfTH2jus8EzXd7Teadg1VtdvFOnwxX3uRxPFEWW5IJ2GojaTpU4FuZ7Ojjg5J0cpX/pzEu/O/VwPGcn4YuyrW77KvfqhJhYoBYvCvcFNkpoEb6Jed3UYKpOyAlv0ptrl9AivyqSdk3xdJGoiBzFlpsqc70wmg7HhEgmNvkcK3eW4pJS4uj/Ye894OSornTxrlzVOU5PDpoZjXJACCFyMiCwsQ3GgDH2Ory1116/tb37/Hb3ed+Gv3ffRv/fz+857TpHjA2YDCZJQoAAxVHWBE1OnVN15XqnqoVWttHQXR2me7if5icG6Lp964ZzvnPuuefM7Z/LzllrIexo7vX1G7UwUAKKN2vo5izFJ7gYj51yVOngAjMTVSlGyvNS+DRBNTmaWJLRqp/vFWw/mqCJUrQGjJWgimoVUlrllXybq21NYG2p1UMzYgZscr0OEmbDluTl/EhiJCNavITnZX1rQ+tZgkWHaUsF0FkO2hmyB8tpZC43WzBE0Xj+DlRddVCOsCO8e2r3X+z889Oxk5Vq+fbVt28Kb0yWftkJEXeEkjmHqsnZytmd1dFGuKqqaSlTD04gTdO8jNfHllxjOZlPJsV0PUhSAicEWRyOD81YSmJoM48y2lytJE4i7V4wLLNyZqH07Ew2o75vwMN4NbMsQP28kZv2Vi+Ap0xIqpQWUrKqVKPlABfsLSXBawGiKgqKUA85JWAVOSh7JB8ZTgxb3Nok1+JsoUnGjJVBTvcl0MiwnFiCAe5uXUnpWoyPGHEydeAnqkMYJWKMXJnY6zN7f3bsp5Va5ttat28Ib0qKyUYcc0TcG09WSJpU39vMvKKKLX1RXhCFNMH0eFc0OZosCAvdTMNSD3uaIile4edzFj3uwFE4ylGqY3IZw0yOacU/rWqqqiv1VibFzbhogq5Pq0xQ8mmjqmvlUzPJquRm3EFHsPQHZa1ubgEyJBvlo+UQ93ZXO0PQKMZ9aSSJcaGcLrPkc1bKwAJQVKWhExRWl1Tounlx33d47vBXX//XpJCoSLPrmzaEHWEw4xFxR6g6CBvRADutHtztukYSRMgR8jKeUp9Niek3bfE6cLpjhKzJ05lpwVKAh5Eol2LtlN2GYmGXI1iK40h7DciocRG2xLyieUUw3NtVUDSSJrtop5Mq2dOZEGK8zBsFzupgaxu5ZfKJqfSkZjWaKOhoognG8DKgnV1zANv2Mt5mZ3M5jeRkfiI1seRpjhpA0JFsTsk9eOJXb8y8UZEGNzVtWhVYnZJSiLgjVF17yvXtcQclrepqVsosuSELxJ3CqbAzTBF0qc9mpExWyBpnl1hdEHdNU+eyc3OWAjzg8ZA91OwIg2JA0TIFS8agbXVn6xa2T8kLrske6nC3V3tygbXDQgLdSZZymLbAz0uKWPFNZKZk8YY4Kzn4cIyon2Bio2gdjieFZNRqqcgA52eMUBm0rZeCuOtGJqgAV1aAe07OjaXOIOJehITUWYIFEfTQqQdj+Vj5DXpY7wrvClVTG86fhRZKgxEOTdcXcguyWsfV8jBDx4uqVCfE3cv4rMkI4/S5PvS7WdZKnUpPzWYs5pYhC0WOqkk6jbOJRokV1G22urVfShfJbsbT4mhjyOpGyxSqHbU52yi8WOKeV/jR5Cgv85Vde7A3oTNhR3Ont3sZSHUSp5JiYi47a33JIMK3RFCNm6kuHxcop5GsmJnNzqHLqUVSIIqgxpNjz43+xnIBhPPR5en2s4GGS9uANnxDrVoz84SoinUe5l7o6pKfRAPzhk1urT7iWV973djhBI5npayFupUFBOxBIDrVK8NkmJQ2XVLl+l+WwHKMTN5powRPnRE4EqZ4LjtTqsXroBzdvh6Oslf5jXQYOgIvwd2eEJIjsWFezhm5sCq9tRmS5czor0YHTdCxfGw4MWTtcZZg213tJEGiKLjaA3RxizPcH+gvpxEwbhFhLx4UblRifvjUgyPJ4fJbW+Fb0efvFSta4AkRd4S34B5IQBep2nVdA5XW6mxdBq8DrC4v88DqNEu+YhqnacKoSlulxQOUTtXUZD5Z/5fkjDzumpxX8vWW1R7GEPRHVsxZcP90ujs4kpPVKtrzMGh2ytHsLKEeQiIfH0uNmbUUKsxMYO78rL/ZEV4GWxuIe5xPjMbHrJ2j4jjOkWzhFgFSDTWGoIhN9nCPp8dyC5IqDSdOayilTNEwylxg2JnU+OtTr5XfWp+3v9+3UtQQcUeoMiNF27t4kkbiFImTy+FNgBnbNCPyXsxYeFzTNTMdSnWh2VTNVvcx9LpxDYPEyHrbR8BuFU1JCUkLV5ADXLDL003gVXS7qppGG/WhHMU/MpudTUupamzAQlJ5AlsOW9vI5q7kEkJMsRTpBKay0oBBussGDspRzuMg0sdS47puQ1q96L1vHJy6KPuJ2PFU2VnYHYzDy3kaLswdEXeE5UraDe0uqqKsycvgbYyrhyars5bF/83iVtW1+pDTqMzRg7+j+aiF0shuxr2uab2DdlYptwwoNjvtCLuaOYot8hFJlfbNvhHhI0BMq7EqMB3Dl0VMMGxtSRXTQkpRJbQLGghmJQF/q6utnEYifHQ6PWlufiQ5S/Bx0AR7aO7QTG6m/NZanG0wlY01/oi4IyxPAFUlMDzIBd2l54I0mIquGRELdbOXjdpbupaVcrzKW3icIZkmLoSyytQ5zDD3nLUsxWuDazvc7YIqVMN1BNavl/X2envtRLH+xSgfGU2MqJpS+St3umFIBOxBv6VLgcYWqLOALsyGK7pS/zeXEM6HqAhNjnCHp6OcRsZTY5qOrhdbMHdBIarHI8fLv1dqBs0TjVUJAS0XhGVM3MkmR5OHtULc/azPb/ebgfJ1sZ9BsoNqjwlRyyWafZwPGkFH6nVO3OP5yJnkiIVne/39l7ReyhC0VukMCcC8c3IuyAY2hjcRRLHXTPfN7ptKTzEEW42B0m2ak3baLV1OddBOHK8vPU0RVE7hF3ILaAs0EHiZb3O2r/SvtNzCSGLkhTPPwXKu+O3tZQ8Mw1mCPTI/OJ2ZLrOpgD3Q7GyW1UY6mUfEHWH57u2zBVCtaGgv4/Gw3vopJI6ZoT+mp9Bif4B7wdtU9UBQ1TXk0S+TuM/zC0PxIbX0/DB2ktvWui3AhdJSprK90jTjdmmHu7PdVaxz8VTs5EuTuyVVspbTqZgNoWiKNWebnbQbic9tev0YscZ5mqZKKFSmkZQLllfyYD2yJGe5kfnc3NGFwYJtjIbUgkMhko/kyhZ3IA04iqu3XAWIuCMgWOCgqqardRR4aIbs80o+K1kJlQHKHuVjWhXye5xrH8cwJ+1YHleBlwoERuRlfjR5Jm4pWmZlYGBH380wC7B6K8hJeYX3s/7L2i8P2ostNPOb0d8cnNtPk3R9Ro6a3vY6uuVvFugA4i6iLdAokDW52dnc411RTiODC4NZOWcmHkbEvUTmaqSmJY7MH54towDCm44JtSoRfYi4IyCUTnQLmhnDdSsb0k7bOdKu182BekGy8xKfEqzUZy7k/q/e5VSTuBNO2oUWXlnDaNOdtDMhJEYTI9ZauKz9yrWhdYIiaBVyIIE+y4rZEBdaHVpT5CMnYyf2TO6WVYXG6eoNFZiI1uo6MSTjoOymv71ePO6GwaYIsXwUbYFGAS/zG5o2bmreZLmF6cz0obkDHMki1m5ZJ8aFRF7NvwPfHRF3hGVrkauaOpedS1hyXvq5kJ8N1Nt5uukVsBKLYlRONZN7VOl1TJMApAnSQOUCzMX53Nyu8Z3xfNzC412ero9t/GSvrzcrZcuPjDLiAWQ+YA9e2319uLik6VF+4YnhxxZyC2CBVG/v4DY8I6Vzcs7Csx7G02QP2fQ6inI3brBoMq/k9NJ3N8xRlfL2ICwy5lkpsy60Hoxky42cSQwPx4dwFN1eBpy0I2ZJTv62bwLHGo0JI+KOsExlKxB3XY0LsbSUtvC4nbK7GXdd3jTHLI0GVtWjQPM6Abr3WhkOp+vaWHpsKjNlrYU1wTXvWnETrP+snNVsWjmUTjMTGW1u3nRN9zVFPvLY0OPPjPwGqGTVotvNJCw4EeNj8XzMwtM0QTtoF27EdNXLfYzCURhhs8K/4VlZkwt3SxB9rw0UXeEoe6vLemm/CL+wd+Y1zIz3QONpGQRGJvPJSkiURlMTaO4Rlid0Q40xBEPhVghEkPO3uVqNWGF9OdDRjJxJC8lqX05FqAiHczOeM4nRJ4Ye5S15lAG39N7yua3/tdXZClpN1mXLNltCTPT7V9677sNtrvZiPv/40OO/OPELTVcNd3s1N07h7Ei1dBPay3jb3Z1A35fHRWpJlRb4+YZIJVk/SbrKRDwfv7h16+aWLZZbODh7YNf4TjBuUSLIMqVl+beqUkIqlo831u0stGgQlvOuts68jeou+LJxIqeEZFJMGY49lL6g7gHqPCNl9s/tH0uNWWvBTjluH7jjPf23uRhXRkgbYTMlXm9QdCUhJEiM3NF7y+rg2mIeeWXypUdPP5yTMnbSXu0As8JKxi3pL46y+1kvgRHasiCRIOJyMg9DUf82OYGRZjpRrNHlqqSKK30rg1zQcgvHIsfi+QS6yl8PSIupuBBrrLlA6wZheaLAUGN8zFricxonw46wl/VnxHSjDwWwHEER8gqv25DHvRHmS9e9jDeRTzx6+hH4xXJpxjtW39np6X586NEjC4OiYmQsYQjmbXP5a7omq0boRae78551H7q+513FfNeeyd3fPfTdueysh/HUwDiEt8hJOWsFz+HZDm8nQ9I5ObsMVouqqcbRQSNsa4ZiYD0TjVwGDvaOpEgXt1y8peViy40Mzh96eeplJ+1A0rgeoGgKsPbGUo6IuCMsWxA4npGyadFanlesxdEM3D0pJBqd74KaTIiJKB8zQmWQx70h5DJB2hTb69Ovt7na71v/EYuN4OT29u0DgVUPnnhg58SLM5lp2cwUTuAEgZOEcaCEnbdIVFBgimacUHEU1+Xp/sSmT1zadlkxq2vn2PM/PfrT4fhpN+OBlmtQl5TACNiYkXzE2uM+1s+SrKqpy2CpRPNRURGwBolvb3TpA7uDV/jNzVvXlHEt9dDcwensdJDzI0FXCVNKK3NGpzPTFEE11spExB1h2cIoJK7JstXoz5AjHOSCJ4wC6XWlcEpmRUCtMmKmEDCNfDyNwg8ctCMtpR4//egK34rL26+w3JSf831883/Z0X/Li2Mv7J/dP52ZMsr9mDS9YJEWHPAMxuA4bifsYWfztd3XXd15tYN2vm3jsqY8fPJXvzr5y6yU9ZjxJzVg7YX0SnlVtHwHwEW7wvbwVGqqvia99K0NkziZmhAVsVEM8kYPTpI0qcXZsq11q8NS1V7A7vGdOyd3OWkHim6vCMpMy5OVciC7zEYaSTMi4o6wfIk7hqmakpUsxrr4OX+zs0VWZZ2sH4+7bk27p8V09aovIVRHIRk1vcdT4z8/+rMAG1gVXG25KQLD210d963/6IfXf2Q4MXwmeeZU7MR4clxURZqkZUXSNHWFv2/AP7A5vKXVXWyujHg+8d1D/757YhesLhfjMo6baxU1DhZCgo8vZOetPe6m3V2e7mPRY0aH68BZbXZALySfLakzMIPRfFTSZMOYQTZ59S2rlJB6V89Nm5ovstaCqArPjD4zFDvtZb02NF9lQ9EVdxH+hUUwmZ2cTE/SONVYL46IO8Jypj6ypkykJnmFt5NWHCTA3auY1a5kzq6zJOdjfaU+mJNyc9k5IO7Ix9NILEE3Eib47f6RxNDX3vjfn9rymY1NG8sniP2+/h5Pz7bWbYIinPW4m3Sbo1g7wdEkU0w7sJZOx07df+zn+2bfUG1qIa69lglDjBh3JRcT4rphjpa8qqG3Xd4ujrLnZR6rA6tc1mQQNe3urlLzSWfEzHB8WFDyaGvXgLUDmhzhi5o3W27k1em9h+YPcSSL5qsi0DTVW7pCPB9nEqMjiWGaYBrrxRFxR1jOxF1RlSgfzYhpa8S92RFucbamhOSSs96Ca5CjOAftKPXZhdz8RGpM1VQCFftoNK7AEExeyb8x8zr8y+e3fbE/sLJ8mgn2AFBt+LGoLHXtOwf//cnhJ9NikiQoFliIDa99nTIYh5SYyso5l6V6ve3uTpZgs1KGxJZeCcKQwqRwRMkyCkbgVOykrMqICFYbiqZIqvjJzZ+6vOMqay1MZSafGXkqkY8H7UE0nhURjxzpsFuNWSpgPDV+Jnmm29vdYNwGTT/CsiXuNlzRlVg+lrV4P9XW412xsWkjbtZyWvLXOZu7Wiv5Ls48Pz+RnoRXQNq94QCUDrh70BEaTY3+295/ef7Mc0vbn90Tu/5u9988M/p0UkjYaQfYw9Urx7s4aILOSdkYH7P2eIALrAqsonBSq5syTEa+nxIBLJBXeAzFwFXfbyJr8qrA6qs6rmII2lojD594cHD+kJt1o+mqCGsHBLkAR7DltDOVmaKtTugSAnncEZYtDPmo2+Zys/P8Qq+/30ILzc6WdeH1O8dfUDWVWtIwOKDdJE6GubAFb81MZnohN8eSXF2mqtU1XVX15ZFTu1pgCVZUxYPzB8EGOx49fveau5sc4Rr34Y3Z158Yenzv1KuxfNTH+Tyc1zwGWrJpo3E6LsTHUha9ZS3O5u3t249GjiSEhJlcfCmhaIqLcoXtzaU+OJocFRSxNlH68B2wSwVFWB6Fq0rSI8Dak/n4jSt2WM7N+puRpx85/ShMtJf16KjGdCVMKdCJa4KrQ44my40cix4bTQy7GTci7g1swGnAjtCOWl4gCRIYTyIft/i4wZVDAS44l5tb2qSQZsQz4WJcdrK0UBleyc9mZ03tU49uHugVR3IcyWKFqizIFfVWAKoEPLXZ2ZyTck8MPzaXnbmpd8fFLVsdlKPaXy2p0oG5/UcWDu+Z3DOaGKFJusXVamyEpba0aIKO8tGJ1LimaThe8lESjhH9/n6GZIFLmcnglnDlGXfo4RXAtC5xa/NDidN5OceQTA36r+gKQ9Cd7i6WZN85Ww8GVjRug9jeN3DHpW3brDUCc/Tc2HO8kgtwgSXkGIpxbmz928F60XS1Tu5AF4h7r78/4AxZbmQ0PjyeGvOzAUTcGxU4hjsoJ6pktsxAYISiKqdjp7e1LQTtVkzzdeENl7Rte/Dkr0iNXMLlodk0Amc8rNdVonvgVPTE6dgpCifrM04G+FOQDYbswdNx3HhHG4rCv6BnAbfhdsouKuKL4ztfm3ltU3jTjT03bWvbbmaoqDyG4qd3jr94Jjm6b+aNCB8Fo9HL+mBD1Yl3AzYjL/PT6emslHWzVnxmTY7mAf+q2czs0lqMuhHgTtspB4GX1omkkByOn1ZrxaXgiyiCbnG2GEUG3jGsHdhqVs5d3n7Fn136JYa0eIXxp8d+tmfyJa+ZL3VJtg/QXAInvLQXx6yfGzc7ml2UK5FP1Ic81ERZ2NJyMbyUtRYEVTg4f1BQBLDbG+4QCfFUWyEJF4GRIS5ENUJWILNUHjoZKI644wTomzOpsfH0hDXiTuF0n7+PMiurLeGLaBoQd8LP+Z2lXE6VVGkqPRHhIxhWvxXRjWJAOHXWiYs87otKKvibJVkgEMBZX5l8ZSg+dGB2/zVd164KrfaxFajnkpNzU+nJyfTEVHpq0PSyg7Tx2/0dno7CDdT6OZOEntAEHRdis7kZa8QdHt/csvn1mdcKdamW6khK0RUX7Qw7wmSJ2mciNZGXhZrpLDMBkSaqYllyTNca6FjbqJOqSk7SeUvfeyyz9ufHnt01vhMIBo1TS/XuhtGFU0EuSJXhe4Il6mJdakqth4qEqq757YGw3XrE4GOnHjk4fyDkaGrE0C9E3N9kDxhhr/65cwU0N4ZxFMsQFJqyYgBsA8fw2ez0eHJsS7PFItWrg2u3tm47sjAICp5aoosssiYblxS50gLc5/n5wcgR0D31fC0V5Oab6hzR9mLpu52yw09eyf/69K+fGn2619d7Q/cNV3Re2eXpLnbYbXpGzKTFFNh1KTGxkFuI5qPABUcTIzOZaV7Ouxl3s6MZx85mjKlDvgUjMJIY2Tu1dyCwyloL60PrBwIrj0aOGndIlii9DGxPGOdub09JxP1McvSxoV/DAmisU+KCIGoI7g6GXEpI+tjAxzd9cnv7pdYa2T+3/xv7vhHjI37Ot7TvDFSbIkkcK2vu8PpIZwL6Ii2m3913W7ur3VoLgirsnHhhOj3V6mrTG9ANioj7f6pDVVfqvpdg6eJ+LtBwaUeXcFppgs7L+am09SqJoFa3t24/GT2RlbIw8ktz1mnT3LQ7yJUWz3cqeuLw3KFaZIHEjGCeBthBywscydmddlBjr02/enj+kKprH9nw1sRd0qTR+EhSTMIcxflEQkgUqslEhahxdzk7P5+bAwZpp4z0aj7WH7KTdcvXz4HG6Ug+MpocVjSZtOR4DtpD13ZfN5Yci+djBE4siR8ROu9lvZ3ujpK+O5KLDMVOG9FlDZXjNWAPuWgXLL96J0Y4Gc/HE0LyQ2vve3f/u601khHTD554YDozFeSCS5V86bcZTlnHHXrdnJboZpyEUdfC6inZzrEXhxMjHtarN2bwAiLujUVDDYO31OuJ73BQOCmo0v65/YfmDlireAfUf1v79jfm3nhpYreiKaDga67aFVAkvf7eHm9P8U/JmvTGzOtToDbswWozEpB+NE6VmVIXoXRzyWADCdHIDP2+gduv6Lzi9z+TV/L7p/e9PL3nxfEX4uYtbeC7OG643gwXGkbA0iIxoskRPv9YpiF8okaHddtYamwsOd7n77O2ta/rvn7v1Ku7J3aDCq99tAx8Y07m/Vyw3z9Q/FNgYu0afzElpBmKaayCqX7G56AcsXysHsItFllXSSEBe+TD6+/76KY/sNbIcGLoX/f+y5nEaIALgMpYBnkvQA0Z5beXetZks07wrSvfMxCyeM6WFjO7J3Yl8okWZ0uDzgXK61wWjTbvWdd0KZvZbzQ0+KVIYQJ45Uxmejw9YbkRIEYXt27VbZqgCljNw05UTdVtWLOzNewsIWHcyeipU/FTTtpZddZubAWdJVkP41vea8mI6tG0OknPA5yPV/j53DxQoJtW7PjU5k+v8Pb+/sd2jr34lVf+9tenHwJi2uxoDjvCPs7nZbwexuui3Q7awZAMSVCNmOMfFh70fy47d2Buv+VGSJza2LyJIRjgJbVnV4a1YLN52dLqYU2kxt+YfUPW5dqyKN28XlWW9gEKS5jmVt2CwIiUkJrLzb+r+8bPbf08WLnW2vnF0fuPLhwF9t8QF+eKAUVQ9XA3vXAj5T39tzXZLSaC/NHg9wfnD/vYBtZWiLiXM3aYm/HQBF0P1XkQFtHuNAlzpMFencpY5+4bmzZub7sMFLyg5GvsdVB0xct4et+Kll0IiXxi9/jOmfQ0U4OoKuPmBU4SJL7cC4tQBA1rqR5OV0HmpKU0TO7W1q1fueYfvrT9Lxy083c+w8v8o6cf+cXxnyuqGuKaWCPnJmZ62XHsHIzD5gaeNZZgk0ISiDvQd8uNXNZ++aXt22F8ZFWucf9zcq7L07O19ZLinf1pMfXi2PMZKVPLAy7TQY6zFEeVd71qY3hTl2cFCDS9Lm8Ewl6A4QXr4t51933m4j+2VmtpKj35j6/8w8H5Ay7aCby/fsJLwDQtp4WB4OqAPSgq4hLOjlm/Vrq269oNTRusNfL69GvPjz+XU3JcidlXEXGvT3pnKzVVC4WRne4u0Jdl7geEGjhRYIZPxU7um9lnuZEOd+cH19zd7GzJiJlaHnqYLi6szd3R4eko/qnDkcHXZvcSOImq9FUQLsbpZ/0Gh1lCSaXrvJxLCykKJ6/vvv7Ll//11V3XUG+Voe9McuTpkacW+AUwNpbrMgA6Yqc4YO1HFo5YbsTPBW7uvSXABfNyrpYnqOb1x1SQC6wLrSv+qSMLgy+OvyBrci2j28/mE2S9HF1WoGazsznsDEPn1Toj7jAX8I5xIZ4QEu8deN+fXvpn1urygEX9yxMPPDPydFbO1k9JTiOZLIYb5TLKWNt20u5hPLImLRVrh7EVVRF26/tX3W45k8EDx++fSk25aFdDBy+hGPf/tGBKjV3WjRgGpebuNwxVibIAhmDSUnpw4TCwHMuJ81aH1t604sa57IygCDWz1yVVAimzPrSuxdFS9CPi7rEXRs3wSjT1FVUeOJBgkiCWJB7aZoaZAukB1dUfWHlTz01Xdl69yIfHUuNRPlI/uSCqBAftnM5MPjPy5KbmTSG7lWoswIC3tm49FT8xm52BEcaIGp1CaJrGkkyXt7t4iZSX87snXooLidpXQTJK3lRC3/X7+wJswMifXTcxJEa+dlWWNSVkb/roho9+bOMncEtG0cnYiR8O/uBU7CRoB6qeMr8ZpXlpV39gNV2e2urz9QftIVBJTM3TY2g2DWyhDlfHxzd9otPTZaEFMMm+vu//DCeGg/YA1uAZzJDH/WwpMWDtJUUZnjNk9Vr73/SGWHNWUz5X69VoghYV8dDcof2z1sNhaZy6puu6Hu8K0DqFKzI10CjwXV7Wuya0jig679vr03sPLRyqrWrXC0DipErLQFGVrJQBlQmc4H2rbv/K1f+wOGu3maEyvJJbKhujZiAxUtHU04mh07HT5bTz3pXvMzPG6rUJBjCiMqQ07Ovruq8v/qkjkcGXJnbBYqh9MhmsQvJ5dXDtCt8KSZPqJ8QUZGxKTDEE/aXtX/rEpj+0xtrTYvr/vPG1lydfAuOKqrN8zaYQwGmjXEZZ2Bje1OHuyEm5Gks/U5rlVE29rP1yUMGUpYsHD5781bNnfpNXeYZo+NK/iLifzZ8ActBb95cVjAMvnKz3fhoRzxgIQUvEsYrMj8TJjJQ5MLsvLSQtN9LkCP/hRZ/a3LwZxHQNFA+oN5qkt7VuWxcs9jD9ZOzk40NPZMR0bXO8vBkyXTsb7x0koBRNwXHcw3pvX/WBb9z8zTtX3VnMg63O1ia7kStmeV/CMaJlaHtaTO2eeDGaj1lux0m77lx91+bmLTBcNRgxzaZpuromuGZNcG2RjwzFhx8fekxUBZaqNfOAAaFJpsvd7SDKlSphR3h7++Ve1isp0tIvHv1s5DeYT39z9f+3rW27tXZenXrlyzv/YjI94aLd9RMhc/70gUZuc7XR5Z1yQAsbQhvALJG12t0GgZ3Cy7yfDd615u6719xtoQXo7e6JXXsmdgPNY3B2GagbRNzPGwu87hPi6jqsPKq+K24UUguDFiyVuGuKLKlV9HUBcYe+7Zvd98TIk5JqXWdsaNr0Bxs+7mN90Xz0nD+gSgDzwE27r+q6xsMWexz04IkHXhx/niHYmgVImDOOu2iXtRJmpqdeK7hWasr3GoSV5qRcQohvat70T9f926cv+qM2d0eROcs3hDf0+fo1XVvC+2S1AYUZlXcPzR/eOfaCrFq8cQQtrA+vf9/A+5vsTYKc1wzuXq0VCd+VElKd7u4bV9zk/L1bxRfCY0OPvDz5MkXQta8VBavIkOqMsyL1nu4YuPPGnptTUkpQ8kump3QV1E1OzgqK8IHVd/7d1V/Z0rzFmlJ+4cxz//zqP+6f3V8oUFqPStm4uYF7GE/5JOfq7mvB1MxImZr1HHZKTs7t6N3x2Ys/5+WshLnuntj5v17++6nMlJNyNmL6LETcF92AGkqzWEnNVDJJVTILfAQ2avUYJ0MwvMK/Nv3qaGK0nHY2NV/08U2f7PH2VFV+yarsZbzX97xrdbDYhLW7Jl4EywQINOjXmvkVDKVuHAR5i6cg5yPkbAqbScRrWHoavqkBiLtxD1Xie7zdf3LJF0Bp9fv7SjrTcFDO96++fV3TOuATy/sCPSx1WHuJfPzp4SfPJEbKaerilq239r07YA/ycr561h3YujCVl7RuWx1cU+QjeyZ375nYDfNPE0uQqETTVNpw2bbTZAWIKUkQ96z90LWd10qqrCxF1TYjq7JRT0jf1r79n6//1/vWf9RaO0D6v33gW9868E1ezvk4HxhU9enNVTSZI9lef1/5dsWGpo039d5M41Q5zq/iBSBo2D5f75e2//f3r7rDQgsg+l6f2fvzoz/jZZ4juXN1oBsd6HLqOaaJBUo15nSbmfpXq5mrUDNCZTACxy0s35plSzBuf2uqULrvXFZVqeAarFo3QWzBlB1ZOPLk8OOrgqvKeEfb+wdu97O+r+z5ynxuLuxorrg4gH7ySv6W3ls+sOoDWHGWzOvTr/148EdRPuK3B5Yi3FzHLA0CaBQ7aTdqCdWkzzBTDEG7aBdRuu8QNhFYU1pN+gnfBapxha/3C5d8YXVorYUWQEutDqz59KbPUPh3gPaB6vIY6WuZ831O/ykTfuufjRcTT+AgF/ETsRO/Pv3Q57yft3x3HAbn3vX3hRxN//LqP8XzMR/nx20VVvawziN85PqeGz645oNFPrJ/9o2fHPnxbHY2aA9WvD/FjAnIIgaYn6+nUm0Czf3KNf/45MgTX9//tWg+GuACBV9+9e5j6ObZHmyrjJQGOnh157X3rLt3U3iT5XuWh+YP/PjIj0Hq4pjNy/iweiWFoI4JjGh1tXkZb0UafE//bftmXn906NFWRytJkBWfpjcpe1pVlUvatv3Jti92uq3cRoW5/vaBbz42/KgoC8Zpw3Jh7Yi4n10omJGR3c2UGNoB6g/EOo0ztTmJNsv82gJs0F36JVpQYyzJGJ5RW9XDgcBI8NLeVmdLqSLYx3paXK0T6XGQrljVrl4VUkMeXji0a3znZR2Xl+OBuLrr2oSQ+OnRn85mZyqevyUjpnt8K9636vYmR7iYz89n5x848YvR5IiLcWN6TVMPFY7RfWzAazVdTy3936ASWIoDHUaUfmbKkqyX9VIEZZwLVfnINStlu709d665yxprP4ce/4rPXvy5qzqvBvJ3Jjk6lBiWFIk084TixsE5UfArgxlTKERa+O8Nl4gGphUYmERKhxeMgJnrum9gSOuJL67rvl5QhQdP/HIsecbNeio7GrF8dF3Tuo9v/kRzcYUbx5JjPz3yk9HkqI/11b4CDijHnJQFgwHGJMiFKtgySRDv7n+3n/PvNg4TdsWEmJN2MjhTDe6umoExvJyncPq67hu3tGxZHVzV5+u31pqsya9Mvfz9Q9+FqbFTdo7izIv59UgKYTDziuFs3ta6rYLNfmbLZ0GGPDb0GBAnB+Wo4GID0ZpXBF7KdXo67l577xUdVwQtpYqK8tEHT/7q6ZGnc2LWy/pqb+4i4l5l2qFpsPHWBte4Sj/oHwgO0CST5wUH7ay2v7DQ/trg2i53d6nPtjhaQejPZueqfdsddp2qKWDcb265uNS8B8ZT4YueP/Ocg7aBLKhS4AQIMjvlmM/Nf/PAN0C1X2r1NlIB7xu4fVvbpX+9669em3691dUCDZa/DBRNyUiZNaG1n97y2ZX+lcU8EuEX/v3Qt3eOvxjg/EBfahhzYohaURVB4/Z4Vli2XnysV9FkmBvGxlRVvELjoMJddKjD3WnhcRftuqLjyhfOPD+Tm3HT7qoOLPCMIBfo8/WV31SLswV+ru+5Ic7H5/l5WC0L2TlF02JCNJqPEsCgcOxMciwhxGmcFhQBdkdWzsJOITESJEYhJQVr8GCjCg/YukDxYXeT9VclAORGJLfw3UPf8XPBbW3WmQq82m397724eevf7P6fb8y8BrTVQTnLX5mw9pJicl3Ths9f8oUVnqLqqQH/+MHg91+eehksxtoX/4JZTotpWO13Dtz5hxv/kKUrfN8dFhIwM/g52v/ek9ETuyd27pt9Q1IlWGPANeF94RcLtsqbOb8lkCqCnM/JfNjRtL5pw2UdV6wOrOnxreDKyLh1Mnryh4Pfg35Cs6BVCxukLik7Dro4mlsgcfrG3luu7r62go2HnS1/efmXNzVf9MTwY/tn9uEYAQYMzBdoHwsUGT4vKSKMZ07OuRj3+qb171/5/q2tl1jwUZ61jfno/9z5l/vnDngYj58L1K1ZhYi7Rc4B2zsjZ7yc79a+9/hLpx0hrqnN2XYmOSqrMoiYqi4OoEcgiTaENzY5Sq70uy60vtXZfmDuYK+vt3o+G5DC0MmMlA07oJdWCpttCG/aHN58NHLUZpZ7qF4/KZxcyC08Nfzk+qaNjvKyr7Q4W//bZX9+/7Gf7xp/MZ6JBe0hy6IcFmReyYNq39q89fPbvtBXHGtP5OPf3v+tneMveFiPvWoGz4WsIFj5vMSvD63bEF5nuZ0OdwfsvkguohJqVX2KMMIZKd3n72+3RNwBvb4+INNHIoOqBgaAi6zaTXFzN0mgySpIwkKOEPyccwSkxHRaShFmIdX5rEHWgakDbUoJybwi4DieFTMxIQZaWVHlqcwUfMygAnwUVinw+1guJmkSrHYKI+EzhYroNEGZY4IvyfVfAidIgprJzjxy+qHVgVVu1lNOa62u1j+/7C8fOf3I06NPzOVmAlwZWxvDeCm3kItsb7/sC9u+uDIwUMxTC/z8Dw5//+DcfjfrZkm2lgQRlndWziXysbCz+e4193xw9V0VZ+2/raHWGj9N64YTw9OZ6en05FR6KspHYPkJhpucIs11hRVOyGGxGUvOWLfm/Q0jes20IHVZU1RNg8VJE3SLq8XHtbY62tqcrf3BAdi23d4V5RiaWSkLVtxjQ4+9PLUHeGqTvemcQ62uKI2sSjACaSlD4XSnp+vW3lt39N1S8czrBE7e2vfuNcE1uyd2jSfHZ7LT87m52eyskYCIoHGbYdgTZnSKOWVGMkozWMVYWoqZlEbVNaMUl6bqutbibFnbtK7d2TYQXD0QWNVbhsNi18TuXx6/f3Bh0M/5jQshyzFJMXbbL259h1J2TQHKDus7wAU/e/HnbumzOA4nIif+6dW/Pxk75aScDtqBVbpAUiEZXE7K5aTsPevu/dNL/5u1dsaSY985+O3nxp6FZezlvAVPRgXHE3ZgPB+HTbitfdsXL/2zHs8Ka02BbvvJkR/8/PjP4a19jA+GtEoxCWBjQLcvadv2qc1/BBq6/AZBfj0/+tyeqZeAeYPIsBP2okOFDcdlTswu5Ob7AivvXH33jt4dRaaRWcjOfevgt3596mH4RjftrlniP2BywN6A6oGdsK5p/Rcu+dON4U2WWwNN88r0K9879N19M6/7OL+HdpMEKOmKHW6C7Ib1yct8TIiu9K38i8u/vLX1EsutwRI9PH/g2bFnX5veC2yMJViO4hiSrexCTRuxUj13r/3QjT03LbnA1GxaKp8E0aHaFNjmoioIipwVU6IiRIVoQkym8ukIPw/MZjw1HsvHwACgSSMhLPzUOM8G7CVREWFxbmza9MVtf9rl7S6/zf2z+58eeer5sWfBpPFxPo6yFxk8g5l/YFhifHSFr/fGFTe+f+COIoPfgLZ+c/83nhp+wsm4gCZWiX8UghN4JSerQHlVTVdFTVQ0zcd4NzVvGvAPXNFxFTCqGufikDV1PjsTF2IpIT2TmeblXDQfjQlxSZFYkuHl/EJuIa/w5umZC8bTyBhmBuwBmXbSzqAjFOD8Ia4JLLewI1w+Z1VUZdfETtCeu8d3woh5OZ9x+39JGaFx1KmJeTkP3cCN3yXQmKDUQBy1u9tX+lfCyl8TXLvCu6Ld3VHtzoCgns3OxPgYEHeQD2khBcwqko9kpYxB33ESOjaXmc3JOQLH3YwXpgnIuoN2hhxNfs4XtAebHc2wQZyUq5xujMSHHj79MGhDWBttrg58+VarfMcQd8wIiYFtL2mGMcrLWZbkWpytYOJf3nHldd3Xl7O3X5na8+ipR3ZN7OIVnsJAU3Fg54GtyRCsheQexrGRKsmqDH/DcgcDgyLoLk/XDT03vnfle4sU+m+JlJj84eEfHI8eP5MaTQkp4F40wbAUy5r9tHB1w+ikKTtAM4Ey63B3XNlx9Q09168JrStnrsBwf3b02VOxU8eiRyaS42CXMyRN4zRHGodxFVQhJpnLvaf/vV/Y9qcVaTYjpB8+/dDB+YOnY6dA38DEgcaF4TVqzr8Fi8cUzZjinMQDA+50dwLVuLrrmpt6by7y68aTY98f/N6eyZdg3lyMq1rBRdBPXTFqTqlGzRTYRIIquBlPh7sTtObq0Oqru669KHxR+V8EqvGZkaemMlOjiTNZMQ0zAmyYIkggSYa/DSNNHUAU01vYO/CjGc4nBcglhuFOxtnt6e719V3ZcdW13deV39uJ1Pgr0y+DxT6dnpzLzs1kZ0AVUTgNnTSLGHCk2XPLmgP6T+LUFR1XfHbLHwN1q2fhKmtSQkgYPnspO5WemsvNLvDzGSk7m5mBfwWp6KAcHsZTs6CCwkFQhF+Arf0/rvirimxtWP8PnPjF4PzB4cQITD1MNEhO0Bqwu98yXqhQ4xaWcVbKtXs61oc2XNN17Y6+W4r8uqHE0E+P/PiNmddh03HVLMgA+yUpJn2sF+gUUF6OZDyML2APwnxd0noJ7Jc6SZ+XkVIRPiYpIvNWxJ3CSVATsPXCjiZXRWPY4Cum01PPnXnuVyd/mRQS5hBx2FIzQtNTZiywZmcYKAf8HuACRkJe2gGGChCbtaG1zc6WpcpNqWsadGk+B0IgDZNCmsQdOH1OyhUqXTY5mlRNA50FfJ2oRBpu2G6H5w//331fO7Iw6GN9MBTLu3jFcibuhd1llg/kjbMznG52NntZX5urrckRand39vn6BvwDTCUKTMKWfmPmjanM5EJufiEXjeYjgpqfy8ylxbSdtoPeWny3A7GQjRivbM7IQYZB9wL2QIALwk+QC7a6WlcHV/cXFzjx9vRdSB1aOBjLx6bTxomkebw1B7IbBJ+DsrvNbBuLUUDMJipiUkiCRQE7JGQPtXs6W52tIOLXhAz7vmKbX9ePRgaPR49F+RiIaWAGoC+j+Whe5kEeeTkfDGn5VBXeBXjedd3XfWzjJ0DeVYjHKG/Mvj4SPz2RmhxJjMzzsCQWoKu0cXRIgJo3Q/oMB4mP84ed4S53d49nxfrw+u3tlxVvcuyZ3PPL4784MLvfx3nZSgzFIjJR0VU/6wPdABwC/m51tgXtQeDBbe52D+Op7NfBLB+JHI3n40C8UkIiJaaBwiaEeFbM6CYnW4RJnGPtHMGFnc12inPTnqAj5Od8TfZwn7+/guvzrF7XVNjy46lx2PuwOIHBA5+I5CKgtGABl3mlBKQHKLYvX/lXa0PrG0v2mk5cHgzLyfTkaGLkVPzU0cgRXuK9rIchalQABdZtXs5f1Lzlj7Z8ptffVymxdGD2wKnYqZHkyGRqPJKPAB0BI4HECTAsYXFqxtkOWIyak3bB7u739Xd6ui5queiytsuL7/a+mde/c+g/jkaO+ll/9eLaC2EVoAiu7Lzy3nUf8dAeB20HxkMR9PLIdV22qZY/Hjm+e2L3nsmXIvw8TTB2yo7VgRMXZgcsZFhjn9j8yas6r4ZfBEUM28Me1vMOnCbQ4HunX31m9JnXZvbyci7EhXAcX/Y1vJe7x123MRTjMziHkYyly9PVaoRSrQc2XC3nkypPpCfGkmPAwkG4g1IHohzlF0RVKqSvuRBJhf/jZtxtrg6w6Tvcbe2ujg53Z4eny241r1kRylWdSU8PJYahn7OZ6QXgG1LWCHfR1UUEN4gJjuJgGL0MmEDtbe62Tc0XtVaI8l7Q2BCTE6mJY9Gjk6kJYDPACcDqyMrZ8qN9YEYkTUpL6Zt7dnxp+5+Dmqxot1NHF44MJYbGUxOyKoC0FRVjGcDwGvkTCKbJAWyyb21oXWeJIddPDD/+w8Pfj+WjQNmr6sgsVBZcFVxzw4obOozF6Q47mmpTkxW+Gqy1udwciONIbiGejw0uHDmycARI0oXuRII9A2O7OXzRpvBmWJmw5WGnW7gTUs5ChUkfT47vn913eP7gbG6OJmjLaVgFRdBBPW/6L3etvadxZTBw2TPJ0SeGHwUjcyI9CWZVbbzvBWI6nZne0XvLX1/1t5WtZwlS6FTs5GhyFMwSMA8ychq2NkhUwril52BJNmAPglTc1ra9y1Pa1n5m5Ol/P/DNpJgCMUtgVUwCZuYy1wB/deXfbG/fbkM4TzMuZBeeGnnyyZHHp9MzLMU6aAdhI+ok7qLgjmx3tX99x7cqmNGlEZEWU8+M/uZb+78eF+JhR5irpgMLEfcaQdFkEqc/vP4jN6/Y4WKcS9WNpJB8cvjxX534JdDNtwzIAe0Coh9M53vX3ddXMc+QBXFgA7bxtde/OpmeAhPiLT9SKFpxfc/1f3LJF6qqVN4W/7b3Xx85/TCYZBVpTdVUEIUbmjfdtfqu4t3eFnhYXsmrmsIQrMtq8MOhhUNPDD326tQroiKCaq9qlquCCQfWxac2f2prRbOJWcNvRp/51oFvyqqEGZ537C33Wre3+6+u/GvLid4qhYyU/uHhH/z61EMMyZZzgRXMgF5f3x9s+NiVnVc1ukAGOxNYKUzibHYGJpAl2Bp8qWYzriquCqz64Jq7r+yo1hiCxQgy3NySjJN2WUuEf2Rh8DcjT+82M+7D1q522Q0YFpiCD6+/7+beW5dQP9YPQJDO5WZH4sM7x3cOzh+K8FHjhgZBYfVU1gA6AyS129vz6Ys+s7V1a30Waq0Bp5pIjQ8uHHrs9KPzuQUjoc1SVCVbQiznrDLmbRX8ouYtSyuVvKx3Y9PGh04+COzwLbOoF1IobgitX0LWbkoEW693hZvxSOpbVxUtOMhYkulwdywtawf4WZ9qVL/SKyJVCZyw0/bXpl6ZSI79jyu+vKVlazX6XLirZ90Q1ZX9s/v/4+C3BucPB7hgwe1dVWmlmWGjQXuw4lnqrcFBOfycfyE3/5YVCQpD4aSdDmrpWQhuwxiCxhePOisCHMnNZWcfH3qs27eiw9Xe0AIZFu1da+/p9ff94tj9e6dfUSkVJrTasQewTjiC3Tu1N8JHSIy8pPVSCwXs3hbAnyiGspVxB/Jo5Mi/7v3nU7GTPs5fmxMtMMthdS25fqwHKJocFxJD8aFfHr//0PxBVdNgCpyMsw6rGZhX4MQQF7ysag6meoakSvF8/LGhR39+7Ce8nHfRLhfjWk6VlRBxN2YSB82JE0u/2jTJdn6Rwt8lxDqGYQzFLXk/gY4vkoyvwJKNDLvE0h/P5eSckQ6scr4QIyOBIwzN/t3uv93ecfmH1t3b7mrDMaIeVnI0HxuODz12+pFDCwfhlZudLTVyAhkBXBiN0zTB1cM4FNKHL7KPwMyA3tZDV4EVqSZlL3OeaIKWVfng3IGHTvzyYxs/cYGjsIYBTN+21ks73J0PHLv/lamXE0LcuPyDEdXLHVlIRdfiakmL6b/Z/T+3tmz92KZPdHtXEPURxp2VsqPJkYdOPHhwfr+sKSCCarO1VTOqZ0PzJm+FDi0bkQImhURSSk2lJl6feW3P5MuiKjI47WY8WB1XDhYUIWgPXd5x5TtnpkCwi0p+Jjs3mhzdM7Hr4PxBMLQcpNNJu7AGrPGMiHuDWPOqEsvFTP2BXUi14DhB1IGBMZubTUvpxU/f4C2q4bIqCXmFT4gJotIptEEKMCSTV/KPnH54JDF8z9p7ru26DltqBQ96/Rv7vr5v5nXCZKVmnsR3qLSKC/F4Pm5ULb3ACGBnY2jqYHwqR0QpghJV4fmx5znS/qG19zgbnLsDWp2tf3LJF520+0dHvq/ZdCflrLbf3UhMhJE6pj975tmhxPC96z78npW3Lfk6mc3MfH3/116delUxXLycUdmqVvUdC6V/BwIDAXvgnSZGZFWaz80fixyDPXU0ciQtJlmSA+lKmpkD6lm6Fgp9NDmatre9U+4kwHY4Hj366vTeF8een0hNgII+W/oNx96xehAR91qAV3JRIVZwq19oN2qapmjKkndV1VX9bCWLC0t8TZNUaWn7CaI2I2YqnvqgcKRgVOzD6Zns9P//2lf3TLx0S9+7+wMrjfO4Gh6bmsVT0ydixx879dhoYiSn5By0s5CRZkm0RZ1sJVERBEU4y9Av4JsBRlIPx6YZKVvIvERX4nI5zD40BfZklI/cve7ubs+KRs/7ARP4gdUfyMnZ3RM7s1KWJasb717wm9AEHXKEMmL6Owe/fWBu/zXd120IbXAz7upV0XoL1qjJOZkfjQ8/Ofz48djxlJAC1ogDTPFSs6ULGwXD8GonFVh62qfroiqCOBWUfFpKnYqdBnEKP9OZaUVXZFXGbZiH8eI2cwbqHppNw4wOe4KOwLKcLcWodyvCrIFlNRQbOrxwcCw1FuEXNCO/pAxaGJQgSnm0/Il7XcQ9YXheFRaJxi7kB8wKmSXvqZF0T8peyJNt9FPXweKP5KNL3c9kPB8nqxbHQhKkKeuFXRO79kzuWde07pa+W6/qvKayiSkuhHg+tnti1wMnHigILJsZHF/turyLciysTkKGzNSuOY7g3lJ2Qz8VDbS0WA+JBXijAm5CMbLcVCCuDDf/APnYOfHiydiJP9jw8et6rm904exlvR9Z/weKaZAQOAHWcg1WOHB01abmFeGlid3wMxAYuLl3x/Ur3uUgaxH+F+djr83sfejUg9OZKUERjQhJglmS+4W6eQ2DpTjbMoWoSrOZmRgfPRI9ejJilC7JKTnjMpmuGLl0dA2WnFGQFSdrdspRAatPlR20o8vbTeHMMpuvvJSfzExMpMePRI4cnj88nZ6C2TEzEStmHQ/SuEbyjryJ+44j7jDfmqaOJs90ebpsb5YmLhTgPfsBo6i4GMvHMmJGN48OS7aAdY3EyBZni512AC0/l+AMO3dob7PNZKaG4qe1C7df+HBUiAIvMa4l6Wf9Luf//RZvh+Garif42Fxu7nfSRWs2nTCSgTR5Gd/bOiDhqw1SgBkhPUfmj8JoXOhqVOE4W9XVrJRRNRUE37kaB4SNyCv8Qn4hI2apst1X0H9cxwL2oN/ut51XUxr6WTAeTsVOzWSN8kbV89OAZe+gHIUqKjB93z00+/jpx1YGBi5rv2xT+KJq+KBBzQwuDMLPqdiJjJRJiSl4X5Y6W49zSVSLuca0BX5hNjvV6mouaQBNboC9HXvQiz+bhjYjfAS78AFAYcfB0KXFdJurrRQSo5mji72dBwAv/sBjIjUeyUXwCh2SvHkWZIcdB9Px3cP/cXD+4M19t6wNrmloEe3jvDv6bjkWOQrDRdK1iAEzykxiOIg4kGCwtSdSEz858uNnz/xmwL96e/v29U0baaLy5GAhN380cuTg3EEQXFk5mxQSqqZxJFdLT//vb22bWWkybG/KK3kYit8ZfFi3gpx3UK4ubxeI+lKN4UJrVZpQzaa9KZ3Uhcx8Vs4JqrCQW4CxNf6WMvO5+ZSYlFQJxhneTpB5UPSaccUCN+KRMPx8XdxA9xqh87zCn0mMHo8chTUsFn30Dasd1GWzM2wU/cUumOYcOztlF5awJU6oft7o6uaVKfgL6NZcdhZeZCYznRASCSE+nZkBoQ0UAkgI/Hf4MdiUTTeqL9vYJTlnrnMs53SQZtQH1uJs7fF122m7rKnAT+ezcxPpiTdNNwxEgKLJsFysLY6z90oJ5pwgAANA1bVef1+Ls5mX8/BF05npU9ETqnnIdaFGwKwMO5p7fX0uxglk0SDTGJ5XhPmMIYBUMDovQPrhwyCefqfzhprXMVj0i5RlLlABmmA6PR0exmsWcRCOLByZz80BYV3kfqqmaX7Ov6llczKfHEuO2cys5IWUyZImwf8tf5sV+kaetbB1819x+NIOdwdLMTmJH4oNjaVGWbIW7iKzRp2R6w3+pgnax/qctLPH13Nlx1UbmzYG7KFyGheU/KnYyUPzh4/MH57NzgJZBzVj3JEiGFixxkXhJS0kYVi5uk7h9H3r73v/qjvSYgY4R8H3T+NMXsmNp8dSQgp6q59lvhjoeKDOM5kZUKKFjPUX1CU6aFWtw9XZ5m5XNVkzjEBMM7/TzwVh27IEA2MOK5yhuCZ78Ex85Gv7v3Y8cgy+7kJrjJdzDsr5xUv/7KrOq5NCCpTBOTMSfoH9OJMDDZE0rXSg1DhskHg+Np2ZgmFf5MpE4SZfk72p1dkKX22khzK5PPx3u1GAua1QhQo2kXG/0Nkkq/K3939zz9RumF+m0kkPYdAM36Guwbbd3n75+wfeNxBY1dCC+uGTD37v8Hdh2dtJey1Z1NmtDbRVlWFReVgPQ7ED/oFtrZeCRdRhunusb21VnExN7J169cD8voVcJCOmc3IOZDXIkGonaC+BCBIUhVEFHvyWbinoZ6lRTLApQGIEuGDY2WSB8b+tMw72LIhK0KoFESCrkgKSBLaeKsPGNGqN60DSRdgmBY5ueGoJCnqyDEKiTT2rwBaxUw4zXLDYzVIgKmZBd+ICH9B0s/Jju7td0/Xf2YYFReChPc3OVhftKCas1+AwODGbnQFTStYVJ+2YSI6Pp8Zho8E0AVUoFOGGDQg/oiLqhreRACEMgtroJ04s+yJKiLgvqucMJW2c9RccgMDACglJzn2AMK45lBM1BUseBMdvme+FwsgFh/TZg7m3k9SF4HKj6Neb696oMy8LII+0C5P+33Ee/C4x0rXFpRV8nYN0GMVQzJ1Z+PzizLtQtgOkIRB9GMnznSsGg6+YcVzIGf+fQh82vIN2wBeopmmE1Tz22jhtUBVQDJImw/w2O5qBrvk4n48NtLha/awPTDUX7WZI1k5xdjPP3e/RynxGSkf5SEJIAFmcSk+BUAOynhDiiXwcpKFhq5AUidXROVhhPQNnbXa2CIoIarKw3uBvUCHAzkH4nr+2zXgVBRaGIdwX9dAY6824mOiwkw79zXMh01GvA2XnKMNuMc6LdB0nwDKmgZTPZGdg1S1eHQxWSJurHXhDwY947mYCPAUbKm+QJ/mc8wh6C/3nZaN2+iJLt+ACAAZTyK59TqNA50iCALppHP6YziXYqvAxIA1TmemcnDF8TNVxF8Hw8grvNPJjBq7suPLW/ve0NGy88lD89A8HfwAc16hLUPMA1sJBIiwVYNWwu920O2gPwtb2sl4P6+329BghxfZQ2B4mcQK2p5d5izQssNiyUhZ2cTQfnUiNw74GypKWMlE+Gs9HFcPfSdE4XQ8ZCH7bcSDImnQhJytmOrYKZmpJzixQKyCujdPCKkShQJugxA2n7Hka0FSdBG6QRfgdX6rrQLVYrqbjAF6/IJRKkuQFcbqInAfZdSG3XaEONLAaw3FTHKWGrkI/jdhFmxGYkJOzWSlHmPNVOIosBKyfzRWG3OqIuP8OfwUY3BczTl8KkW1V9esYxTgNN4BSSC8Ki7KY2Cxg/7AhNbOE6rl2jAi8amqyQl1M1aYWwnXg6xZJB3k+PQI9V7jcXct5VFTFkFa40U8jR8TSHXGCNWWcwKqC4YbHaRftMqrrUU6aoElzugtOtXM9NFSgUQQ+L6pS3pBlQlrMAImHCWAIliEZ0HP1ptTPl+lASrJSxpSzxLkILsL0fuG/5xqBjUaZ61Z/u21iElDZ9N9gv7PA4D8W7FWsYDJpKklQQKGMQhsXVhuFSKqkmASWT0IvjNsjv/V/zRWOn39+C8MO9tLiWU2ws1xZ/T1XEzxlxM2qb1qYmLlQoTXgf2yB5duqVa8ehiaSi8zkZj+64aN/svXzXtbfuFL61amX//alv4ZhBCtoaT2akgY7NA/mnKgKsFo8rI8haOiVnXYUeCEwm/OFD2ZEbhj+ICD9ollhLS2mclIO3oUmKJbkgAy9A6/TwYY1Uh1UYfEXsr4uYZTR8p414C0X1Puappo3BIpPcmvIW1OvmSe3FEmQyI+OiDsCwtIDpJmsy6Cnwa7QTF2lmebQ73+ykCafMFN/FjKOIzcDglVrSksKqQAbuKX/1rvW3O02Y3UWXaUa2DMJIS4oAoGRkiYyJN3m7DROrnXZPEnHWZKxLVE4wWx29n+9/Pcnosc4yl4/IQ0FD0XB9QOUxdzaNuOX3yMf5r42HIe4sa+pajtcEBAQ3slAZisCQlkAfc0UqniizYRQfQCv5eVcQkxc3n7l5y/5Yre3+0KfBMY5mhg5MHfg+MKxvJKHp4zQJjPYCQxLiqCCXJAi6EIFYptZ7MlJu0mc4Egu5GiicMrHeEOOMPzuZ31VzdjY4my5pHXbWGpMNQLG6mUjwUCBYYO2NgICAiLuCAgICAglUnYMU1QlLsRC9qab+m+5feUHLsTaZU0ejp/eM/HS0eix4fjwTGaKJCgzjqsQwqQXYnhGEsPauUhZzGZWkzAczAzBBrgAgZNuxuXn/F7G5+P8zY5mF+NsdbaHHeEmR4gmKpyQrsPd7qDsiXwCRUEgICAgIOKOgICA0LCU3eTZvMzLqryhaeNda+65tvu6C304LaZ/PPijp0efnM/NGxcwGGeXp9uM7Sg2urRwx0BWpYXcvFGqxkyKmld4CqPbXe0Be7Dd1dbqal8VXLUhvMHH+isS3NLqamt3dUT56CIlLxAQEBAQEHFHQEBAqGvWrtm0jJgRlPxVnVd/fPMnV/oHLvTh45Fj9x//+Z6J3ZpNb3Y2F9J6lHpHEMfwN2uNMb9tPGh5mR9NjByJDApyfiCwakvrls3hizY3bwnZQ2VGdYMB0OnuOhY5WkwOLgQEBARE3BEQEBAQ6gtGkThFTIupfv/K61e8a0fvLQHuraud5+Tc82ee+/GRH85mZrycr5D5pIJpPcymMI6yc5TNY/MAj8/J2SeGnoCfbm/PNV3X7ujdYea5t0jfWZLzcX6KoGVNQsQdAQEBARF3BAQEhEYChmE5KZeTM23u9rvX33tTz02LfPgXx35+/7GfyZritweql4byfB5PE0yAYzRdm0pPfu/QfxyeP/ShtR/e3r7dWoN2g7j7SIKQVJQwDgEBAeGCIAbuXIlGAQEBAaGuSLvNyA7Oi6p0U+/N//Xiz1/Suu1CH00I8R8N/uBXJ36JY7iDdtQ4QBysC9YoOmafTk8enD+gaWq7q4OjOAvtSIq0d/rVrJwtpvAFAgICwjsTKNcsAgICQj1xdgzTdDUlJmVNvrzjyk9d9Ef9gQsGtdt0/WdHf/LLEw9ousaQzJL12YY5GVdGTH99///94eAPrTWiaqpuVN1CQEBAQLggUKgMAgICQt2wdptR0lxSJS/jv3PNB2/rv83FuC/0YVlTHz71qyeHnsCN8knskvfcKBaL4TvHn+/1r7i171a8xFD1Qv1mtAYQEBAQFgHyuCMgICDUDWs3fO0pJ+28d/1996778CKsHbBr/IWHTjyYljIcydUD5YU+MCQb5SNPDT9xPHoCTSgCAgICIu4ICAgIyxOargmK0Opq/cyWP75j4AOLf/hMcvTXpx4CluxhPfVke9g8rPdU7PSjpx4RFaGkZ2NCVFZlDENaCQEBAQERdwQEBIR6BmakdHQz7nvWfvj6nhtw/G086Ptm9x+PHoen6q3UKIVTopofXDg4nBgu/ilREWP5uKwpONJKCAgICIi4IyAgINQzBFlocoQ+ufkPd/Te8rYfHk4MHZrbr+kaS7K6Xl/5E3Wb7qRdSTE1uHBY1ZQin8or+aSYUDQZw1CYOwICAgIi7ggICAj1CiC7gpLf0rL15t4dNPH2yRAH5w6PJEZwDCOxekwwwBBMUkgcj5xICqniiXucj0mqhKNQGQQEBIQLA2WVQUBAQFhS1q7rgipc1LJlR++OYu6YZsXMWHoMHqFwutqFlqyh8BaKJkuaXOQjiXx8OjMNQ4E87ggICAiLAPk2EBAQEJYSQHBdtOvW/veuDa0v5vORfHQ+O69qKoET9flGYE4wBJsSk+PJM0U+EuEj8/wcjuEoIyQCAgICIu4ICAgIdcpxeSXf5+/bHN5c5CNZOZMUEoqm1HNUCfRNVMWsnC3y8xPpSVER69YUQUBAQEDEHQEBAeGdztrhj53kNoY3Bzh/scRdyibEeifuAAIjSFtRRDzCR/bPvp4Ukoi4IyAgICDijoCAgFCXxN1MCNPibG1ztRf/FEeydsqBY0S95ZP5vbezFRmwHs/HZzIzYMSgXJAICAgIiLgjICAg1Ce11WyYrdXV3u7uKP4pF+UJcEGKIDV4vF4ha7KDtjc5w8V8eHD+cFpM2Sl7fd61RUBAQEDEHQEBAeGdDs3kqQF70MuUUP3UQTvcjJvAiLol7pgNA+LOkXY/G3jbD5+KnTowt1/WlPpMbYmAgICAiDsCAgICgq3gX/Yybpqgi38o6Ai1udpInFSKLm9UY6i6yhBMkz3koO1v++G9068cWRikcBIlgkRAQEBAxB0BAQGhrpk7VuIdUxIjmh1hlmDrlrjLquykXR2eTiftWPyTY8mx16b2CkqeJhi0GhAQEBAQcUdAQECoV5g+Zl7OAdMt6bmLmrcMBFdpuqZqat0pFQxPiymWZPsDA2+rYo4uHBlKDhEEcrcjICAgIOKOgICAUM+83Sw2NJuZTYqJkh5sdbVd1XG1i3HllXy9VSySNZkh2a0tF68LrV38ky9N7Hp06NdgtDDI3Y6AgICAiDsCAgJC/RN3SRMFWSj12TWh1d3eblEVgSjXD3fHMTwpJFd4V1zffT2x6GXTnJh9cfzF8fS4neRQtVQEBAQERNwREBAQ6lv+YrhNt42nxs4kR0p9tsnRfNfqe9YE1/AyXz/pZYxodZy6pvvaLa1bF//kE6NPvDL5Mrw+VcrFXAQEBARE3BEQEBAQlgCFwO6ZzOxMdtbC41d2XnVz7w4bZktL6Xp4Hc2mxYXEmtC6d/fftri7/dWpV14881xe4WnE2hEQEBAQcUdAQEBoEPJuI3B8KjPNyzkLT9/Q866bV+xwUS5JlZa2ehGwdujD+qaN7x+43cf6FvnkseixX558YCo77aCdOIZ0EAICAgIi7ggICAiNwdsxmmBGE8OH5w9ZeNzNeD615dM39t6Uk3le5oG71z5eHL5R07WsmCEw4o6BD1zfc8MiH06L2UdO/3rfzBuyItM4crcjICAglAZi4M6VaBQQEBAQloy7Y1hOzjloZ7+vn6PspT7Oktzq4Oq0mJ7Jzuh6ITF8Tbk7sHb4Xhftvn3VBz6w+gOLfDu85gPH739l6mVZFTmKRVOPgICAgIg7AgICQoMRd1VT02Kq1dXe7e220AJDspd1XNHqats3u28hN88QNIbhNaDvwNdlTY7lY72+3v9+xZ/ftOLmxb/0R0d+cP/Rn4qqaKc4G8okg4CAgICIOwICAkKDEXcbRuBENBflKPul7duthX0DCwbS3+5pk1V5NjcraRKJk9ULm4GWdZvOKzyBEdd2Xffh9R/ZGN68yOdzcu6hkw8+NfJkRsrYKTuOEWjeERAQEBBxR0BAQGhE7o6Laj4lJPp9fS2uNsvtdLq7ru95V6urNSOkxuCPmCYJEhh8JWPfMaPEUoyPiKq0KbzpU1s+9ZENH2txtiz+0DcPfONHgz+QFNHJODGDteto0hEQEBAQcUdAQEBoSNAEk5Yyuq73+fqdjKucpjo9XWtC61tdbSzJRvjofG5O0zQCI3CAzZo73yD9iiZnpGycj7EUs7n5ortW333H6jvXhtYvfkQQy8d+MPi950efBbrvoB1mBxBrR0BAQLAI7LZf3IpGAQEBAWGJZbENE1UxI2ZuX33HF7f9WUXaBK58MnbiyMLgcGz4wPz+qfSkrCp22k7jNImTuBkHTxM0iZHnp5LUdE2BP7qm6iqQdUVT83Iefg87mi9vv3wgOLAyMNDr7XMz7rftwFD89Ff3fhW+2st4OJLTEWVHQEBAKA8kGgIEBASEJQeQWpZks1L2qeEnL27eelXX1eW3SeHU+tAG+JnPzR+JDE6np+azc0kxFeEX0mIa6Limq3E+lpNz5y6V6rpOEbSP9RE44WV8Xtbnoh3wr13urpAjvKVla9jRVOS3vzD2/E+P/uR07LSf9YF5gFg7AgICAiLuCAgICMsEmq6F7KEIH/m3vf+SkTK39r+7Ui2HHeGw412F3yVNXsjNZ8QUL+dVGxD3eE7K2s4j7rRJ3EmcdDJO4O7wO0dxRCnXSedysw+dfPDBE7/KK3zQHsJtOGLtCAgICIi4IyAgICwrqLrq5/wJIf7DwR90ebrXNa2r+FfQONXuarfBT3UwFB/63699df/cfiftCDuajSzviLUjICAgVAjocioCAgJCHQGzYQzJRvKRg3P7gfL2BwaIBkmeOJOZ+d7gd/794LfOJEYD9gBLsIiyIyAgIFQWyOOOgICAUEcAsovb8AAXmMlOf2v/1zmSe0//bXXe57ySPzR38IHjD7w0sdPNeoKOoPEaiLUjICAgVBooqwwCAgJCfYpnGy/xQNw3t2x+/8AdmxatcLRUmMlMH4+e2Dn+4itTewicsJN2NG8ICAgI1QMKlUFAQECoU9AELWriscix07GTTtrV4myhCKpO+iaq4snY8e8d+t73Dv3HdGbKThlZJs9lp0FAQEBAqAaQxx0BAQGhrqHZNIBu0y9q3vLe/vf2+ft9nH+pOiNr8nxubjg+9OyZZwfnD9sKsT0YXrHKrAgICAgIFwaKcUdAQECoaxDwB7NJmrR3+tU9k3uu7LjyIxs+0udfWXuuPJWZ2j2x66mhJyYzkyROEhhO4RSBIz2CgICAUCMgjzsCAgJCY6BQ05QhGTftpggaiHstL4DC18manFd4XuJVXS3UXkWTgoCAgFBLIE8JAgICQmMAiDJDMJIqTaYnVU0xolRq6HSHLyNwgiZo6AODMyhpDAICAgIi7ggICAgIi7BnncIpiqGWvBtoLhAQEBBqD3TQiYCAgICAgICAgICIOwICAgICAgICAgLC/2O3jgUAAAAABvlbz2F3USTuAAAg7gAAgLgDAADiDgAA4g4AAIg7AAAg7gAAIO4AAIC4AwCAuAMAAOIOAACIOwAAiDsAACDuAACAuAMAgLgDAADiDgAAiDsAAIg7AAAg7gAAIO4AAIC4AwAA4g4AAOIOAACIOwAAIO4AACDuAACAuAMAgLgDAADiDgAAiDsAAIg7AAAg7gAAgLgDAIC4AwAA4g4AAIg7AACIOwAAIO4AACDuAACAuAMAAOIOAADiDgAAiDsAACDuAAAg7gAAgLgDAIC4AwAA4g4AAIg7AACIOwAAIO4AAIC4AwCAuAMAAOIOAACIOwAAiDsAACDuAAAg7gAAgLgDAADiDgAA4g4AAIg7AAAg7gAAIO4AAIC4AwCAuAMAAOIOAACIOwAAiDsAACDuAACAuAMAgLgDAADiDgAAiDsAAIg7AAAg7gAAIO4AAIC4AwAA4g4AAOIOAACIOwAAIO4AACDuAACAuAMAgLgDAADiDgAAiDsAAIg7AAAg7gAAgLgDAIC4AwAA4g4AAIg7AACIOwAAIO4AACDuAACAuAMAAOIOAADiDgAAiDsAACDuAAAg7gAAgLgDAIC4AwAA4g4AAIg7AACIOwAAIO4AAIC4AwCAuAMAAOIOAACIOwAAiDsAACDuAAAg7gAAgLgDAADiDgAA4g4AAIg7AAAg7gAAIO4AAIC4AwCAuAMAAOIOAACIOwAAiDsAACDuAACAuAMAgLgDAADiDgAAiDsAAIg7AAAg7gAAIO4AAIC4AwAA4g4AAOIOAACIOwAAIO4AACDuAACAuAMAgLgDAADiDgAAiDsAAIg7AAAg7gAAgLgDAIC4AwAA4g4AAIg7AACIOwAAIO4AACDuAACAuAMAAOIOAADiDgAAiDsAACDuAAAg7gAAgLgDAIC4AwAA4g4AAIg7AACIOwAAIO4AAIC4AwCAuAMAAOIOAACIOwAAiDsAACDuAAAg7gAAgLgDAADiDgAA4g4AAIg7AAAg7gAAIO4AAIC4AwCAuAMAAOIOAACIOwAAiDsAACDuAACAuAMAgLgDAADiDgAAiDsAAIg7AAAg7gAAIO4AAIC4AwAAQwIMAOMn1HEXw/vRAAAAAElFTkSuQmCC;" vertex="1" parent="1">
          <mxGeometry x="700" y="399.14" width="101.27" height="100.86" as="geometry" />
        </mxCell>
        <mxCell id="Jegls9Esf1QxolKxggTZ-29" value="" style="endArrow=none;html=1;exitX=1;exitY=1;exitDx=0;exitDy=0;endFill=0;" edge="1" parent="1" source="Jegls9Esf1QxolKxggTZ-15">
          <mxGeometry width="50" height="50" relative="1" as="geometry">
            <mxPoint x="450" y="320" as="sourcePoint" />
            <mxPoint x="610" y="290" as="targetPoint" />
          </mxGeometry>
        </mxCell>
        <mxCell id="Jegls9Esf1QxolKxggTZ-30" value="" style="curved=1;endArrow=classic;html=1;entryX=0.5;entryY=0;entryDx=0;entryDy=0;" edge="1" parent="1" target="Jegls9Esf1QxolKxggTZ-21">
          <mxGeometry width="50" height="50" relative="1" as="geometry">
            <mxPoint x="610" y="290" as="sourcePoint" />
            <mxPoint x="700" y="290" as="targetPoint" />
            <Array as="points">
              <mxPoint x="630" y="320" />
              <mxPoint x="620" y="370" />
            </Array>
          </mxGeometry>
        </mxCell>
        <mxCell id="Jegls9Esf1QxolKxggTZ-31" value="" style="curved=1;endArrow=classic;html=1;entryX=0.25;entryY=0;entryDx=0;entryDy=0;" edge="1" parent="1" target="Jegls9Esf1QxolKxggTZ-28">
          <mxGeometry width="50" height="50" relative="1" as="geometry">
            <mxPoint x="610" y="290" as="sourcePoint" />
            <mxPoint x="720" y="370" as="targetPoint" />
            <Array as="points">
              <mxPoint x="670" y="340" />
            </Array>
          </mxGeometry>
        </mxCell>
        <mxCell id="Jegls9Esf1QxolKxggTZ-32" value="MetaData" style="text;html=1;align=center;verticalAlign=middle;resizable=0;points=[];autosize=1;rotation=45;" vertex="1" parent="1">
          <mxGeometry x="580" y="260" width="70" height="20" as="geometry" />
        </mxCell>
        <mxCell id="Jegls9Esf1QxolKxggTZ-33" value="&lt;h1&gt;&lt;font color=&quot;#ff3333&quot; style=&quot;font-size: 32px&quot;&gt;1&lt;/font&gt;&lt;/h1&gt;" style="text;html=1;align=center;verticalAlign=middle;resizable=0;points=[];autosize=1;" vertex="1" parent="1">
          <mxGeometry x="190" y="10" width="30" height="50" as="geometry" />
        </mxCell>
        <mxCell id="Jegls9Esf1QxolKxggTZ-34" value="&lt;h1&gt;&lt;font color=&quot;#ff3333&quot; style=&quot;font-size: 32px&quot;&gt;2&lt;/font&gt;&lt;/h1&gt;" style="text;html=1;align=center;verticalAlign=middle;resizable=0;points=[];autosize=1;" vertex="1" parent="1">
          <mxGeometry x="330" y="190" width="30" height="50" as="geometry" />
        </mxCell>
        <mxCell id="Jegls9Esf1QxolKxggTZ-35" value="&lt;h1&gt;&lt;font color=&quot;#ff3333&quot; style=&quot;font-size: 32px&quot;&gt;3&lt;/font&gt;&lt;/h1&gt;" style="text;html=1;align=center;verticalAlign=middle;resizable=0;points=[];autosize=1;" vertex="1" parent="1">
          <mxGeometry x="414" y="330" width="30" height="50" as="geometry" />
        </mxCell>
        <mxCell id="Jegls9Esf1QxolKxggTZ-36" value="&lt;h1&gt;&lt;font color=&quot;#ff3333&quot; style=&quot;font-size: 32px&quot;&gt;4&lt;/font&gt;&lt;/h1&gt;" style="text;html=1;align=center;verticalAlign=middle;resizable=0;points=[];autosize=1;" vertex="1" parent="1">
          <mxGeometry x="580" y="280" width="30" height="50" as="geometry" />
        </mxCell>
      </root>
    </mxGraphModel>
  </diagram>
</mxfile>
